%TF.GenerationSoftware,KiCad,Pcbnew,8.0.6*%
%TF.CreationDate,2024-12-10T23:47:37+05:30*%
%TF.ProjectId,PLL_type_2,504c4c5f-7479-4706-955f-322e6b696361,rev?*%
%TF.SameCoordinates,Original*%
%TF.FileFunction,Soldermask,Top*%
%TF.FilePolarity,Negative*%
%FSLAX46Y46*%
G04 Gerber Fmt 4.6, Leading zero omitted, Abs format (unit mm)*
G04 Created by KiCad (PCBNEW 8.0.6) date 2024-12-10 23:47:37*
%MOMM*%
%LPD*%
G01*
G04 APERTURE LIST*
%ADD10R,1.295400X1.295400*%
%ADD11C,1.295400*%
%ADD12C,2.400000*%
%ADD13O,2.400000X2.400000*%
%ADD14C,2.000000*%
%ADD15R,1.500000X1.050000*%
%ADD16O,1.500000X1.050000*%
%ADD17C,1.600000*%
%ADD18O,1.600000X1.600000*%
%ADD19R,1.600000X1.600000*%
%ADD20R,1.700000X1.700000*%
%ADD21O,1.700000X1.700000*%
G04 APERTURE END LIST*
D10*
%TO.C,U3*%
X119380000Y-92710000D03*
D11*
X119380000Y-95250000D03*
X119380000Y-97790000D03*
X119380000Y-100330000D03*
X119380000Y-102870000D03*
X119380000Y-105410000D03*
X119380000Y-107950000D03*
X127000000Y-107950000D03*
X127000000Y-105410000D03*
X127000000Y-102870000D03*
X127000000Y-100330000D03*
X127000000Y-97790000D03*
X127000000Y-95250000D03*
X127000000Y-92710000D03*
%TD*%
D12*
%TO.C,R5*%
X158675500Y-89892300D03*
D13*
X163755500Y-89892300D03*
%TD*%
D10*
%TO.C,U6*%
X144780000Y-74930000D03*
D11*
X147320000Y-74930000D03*
X149860000Y-74930000D03*
X152400000Y-74930000D03*
X154940000Y-74930000D03*
X157480000Y-74930000D03*
X160020000Y-74930000D03*
X160020000Y-67310000D03*
X157480000Y-67310000D03*
X154940000Y-67310000D03*
X152400000Y-67310000D03*
X149860000Y-67310000D03*
X147320000Y-67310000D03*
X144780000Y-67310000D03*
%TD*%
D12*
%TO.C,R7*%
X171450000Y-92185000D03*
D13*
X171450000Y-87105000D03*
%TD*%
D14*
%TO.C,C4*%
X171450000Y-101600000D03*
X171450000Y-106600000D03*
%TD*%
D15*
%TO.C,Q6*%
X134620000Y-99060000D03*
D16*
X134620000Y-100330000D03*
X134620000Y-101600000D03*
%TD*%
D17*
%TO.C,R1*%
X116840000Y-73660000D03*
D18*
X121920000Y-73660000D03*
%TD*%
D17*
%TO.C,R4*%
X149860000Y-80010000D03*
D18*
X149860000Y-85090000D03*
%TD*%
D15*
%TO.C,Q1*%
X127000000Y-69850000D03*
D16*
X127000000Y-68580000D03*
X127000000Y-67310000D03*
%TD*%
D15*
%TO.C,Q4*%
X135890000Y-76200000D03*
D16*
X135890000Y-74930000D03*
X135890000Y-73660000D03*
%TD*%
D10*
%TO.C,U2*%
X106680000Y-92710000D03*
D11*
X106680000Y-95250000D03*
X106680000Y-97790000D03*
X106680000Y-100330000D03*
X106680000Y-102870000D03*
X106680000Y-105410000D03*
X106680000Y-107950000D03*
X114300000Y-107950000D03*
X114300000Y-105410000D03*
X114300000Y-102870000D03*
X114300000Y-100330000D03*
X114300000Y-97790000D03*
X114300000Y-95250000D03*
X114300000Y-92710000D03*
%TD*%
D15*
%TO.C,Q2*%
X132080000Y-69850000D03*
D16*
X132080000Y-68580000D03*
X132080000Y-67310000D03*
%TD*%
D15*
%TO.C,Q8*%
X166370000Y-71120000D03*
D16*
X166370000Y-69850000D03*
X166370000Y-68580000D03*
%TD*%
D15*
%TO.C,Q7*%
X139700000Y-99060000D03*
D16*
X139700000Y-100330000D03*
X139700000Y-101600000D03*
%TD*%
D15*
%TO.C,Q10*%
X161290000Y-80010000D03*
D16*
X161290000Y-81280000D03*
X161290000Y-82550000D03*
%TD*%
D17*
%TO.C,R3*%
X135890000Y-92710000D03*
D18*
X135890000Y-87630000D03*
%TD*%
D15*
%TO.C,Q9*%
X171450000Y-71120000D03*
D16*
X171450000Y-69850000D03*
X171450000Y-68580000D03*
%TD*%
D19*
%TO.C,C5*%
X137160000Y-110180000D03*
D17*
X137160000Y-106680000D03*
%TD*%
D15*
%TO.C,Q3*%
X137160000Y-69850000D03*
D16*
X137160000Y-68580000D03*
X137160000Y-67310000D03*
%TD*%
D14*
%TO.C,C1*%
X140970000Y-81280000D03*
X145970000Y-81280000D03*
%TD*%
D19*
%TO.C,U4*%
X158760000Y-95260000D03*
D18*
X158760000Y-97800000D03*
X158760000Y-100340000D03*
X158760000Y-102880000D03*
X166380000Y-102880000D03*
X166380000Y-100340000D03*
X166380000Y-97800000D03*
X166380000Y-95260000D03*
%TD*%
D19*
%TO.C,C2*%
X143510000Y-88900000D03*
D17*
X146010000Y-88900000D03*
%TD*%
%TO.C,R2*%
X124685000Y-76200000D03*
D18*
X129765000Y-76200000D03*
%TD*%
D10*
%TO.C,U1*%
X110490000Y-86360000D03*
D11*
X113030000Y-86360000D03*
X115570000Y-86360000D03*
X118110000Y-86360000D03*
X120650000Y-86360000D03*
X123190000Y-86360000D03*
X125730000Y-86360000D03*
X125730000Y-78740000D03*
X123190000Y-78740000D03*
X120650000Y-78740000D03*
X118110000Y-78740000D03*
X115570000Y-78740000D03*
X113030000Y-78740000D03*
X110490000Y-78740000D03*
%TD*%
D20*
%TO.C,J1*%
X144780000Y-106680000D03*
D21*
X147320000Y-106680000D03*
X149860000Y-106680000D03*
X152400000Y-106680000D03*
X154940000Y-106680000D03*
%TD*%
D12*
%TO.C,R6*%
X171450000Y-77470000D03*
D13*
X171450000Y-82550000D03*
%TD*%
D15*
%TO.C,Q5*%
X134620000Y-81280000D03*
D16*
X134620000Y-82550000D03*
X134620000Y-83820000D03*
%TD*%
D14*
%TO.C,C3*%
X148630000Y-95250000D03*
X153630000Y-95250000D03*
%TD*%
M02*
