%TF.GenerationSoftware,KiCad,Pcbnew,8.0.6*%
%TF.CreationDate,2024-12-10T23:47:37+05:30*%
%TF.ProjectId,PLL_type_2,504c4c5f-7479-4706-955f-322e6b696361,rev?*%
%TF.SameCoordinates,Original*%
%TF.FileFunction,Copper,L1,Top*%
%TF.FilePolarity,Positive*%
%FSLAX46Y46*%
G04 Gerber Fmt 4.6, Leading zero omitted, Abs format (unit mm)*
G04 Created by KiCad (PCBNEW 8.0.6) date 2024-12-10 23:47:37*
%MOMM*%
%LPD*%
G01*
G04 APERTURE LIST*
%TA.AperFunction,ComponentPad*%
%ADD10R,1.295400X1.295400*%
%TD*%
%TA.AperFunction,ComponentPad*%
%ADD11C,1.295400*%
%TD*%
%TA.AperFunction,ComponentPad*%
%ADD12C,2.400000*%
%TD*%
%TA.AperFunction,ComponentPad*%
%ADD13O,2.400000X2.400000*%
%TD*%
%TA.AperFunction,ComponentPad*%
%ADD14C,2.000000*%
%TD*%
%TA.AperFunction,ComponentPad*%
%ADD15R,1.500000X1.050000*%
%TD*%
%TA.AperFunction,ComponentPad*%
%ADD16O,1.500000X1.050000*%
%TD*%
%TA.AperFunction,ComponentPad*%
%ADD17C,1.600000*%
%TD*%
%TA.AperFunction,ComponentPad*%
%ADD18O,1.600000X1.600000*%
%TD*%
%TA.AperFunction,ComponentPad*%
%ADD19R,1.600000X1.600000*%
%TD*%
%TA.AperFunction,ComponentPad*%
%ADD20R,1.700000X1.700000*%
%TD*%
%TA.AperFunction,ComponentPad*%
%ADD21O,1.700000X1.700000*%
%TD*%
%TA.AperFunction,Conductor*%
%ADD22C,1.000000*%
%TD*%
G04 APERTURE END LIST*
D10*
%TO.P,U3,1,\u002A1R*%
%TO.N,Net-(U1-2Y)*%
X119380000Y-92710000D03*
D11*
%TO.P,U3,2,1D*%
%TO.N,VDD*%
X119380000Y-95250000D03*
%TO.P,U3,3,1CP*%
%TO.N,vin*%
X119380000Y-97790000D03*
%TO.P,U3,4,\u002A1S*%
%TO.N,VDD*%
X119380000Y-100330000D03*
%TO.P,U3,5,1Q*%
%TO.N,Net-(U1-2A)*%
X119380000Y-102870000D03*
%TO.P,U3,6,\u002A1Q*%
%TO.N,unconnected-(U3-\u002A1Q-Pad6)*%
X119380000Y-105410000D03*
%TO.P,U3,7,GND*%
%TO.N,GND*%
X119380000Y-107950000D03*
%TO.P,U3,8,\u002A2Q*%
%TO.N,unconnected-(U3-\u002A2Q-Pad8)*%
X127000000Y-107950000D03*
%TO.P,U3,9,2Q*%
%TO.N,Net-(U1-2B)*%
X127000000Y-105410000D03*
%TO.P,U3,10,\u002A2S*%
%TO.N,VDD*%
X127000000Y-102870000D03*
%TO.P,U3,11,2CP*%
%TO.N,Net-(U2-2Q)*%
X127000000Y-100330000D03*
%TO.P,U3,12,2D*%
%TO.N,VDD*%
X127000000Y-97790000D03*
%TO.P,U3,13,\u002A2R*%
%TO.N,Net-(U1-2Y)*%
X127000000Y-95250000D03*
%TO.P,U3,14,VCC*%
%TO.N,VDD*%
X127000000Y-92710000D03*
%TD*%
D12*
%TO.P,R5,1*%
%TO.N,Net-(Q10-E)*%
X158675500Y-89892300D03*
D13*
%TO.P,R5,2*%
%TO.N,GND*%
X163755500Y-89892300D03*
%TD*%
D10*
%TO.P,U6,1,1OUT*%
%TO.N,unconnected-(U6-1OUT-Pad1)*%
X144780000Y-74930000D03*
D11*
%TO.P,U6,2,1IN-*%
%TO.N,unconnected-(U6-1IN--Pad2)*%
X147320000Y-74930000D03*
%TO.P,U6,3,1IN+*%
%TO.N,unconnected-(U6-1IN+-Pad3)*%
X149860000Y-74930000D03*
%TO.P,U6,4,VCC*%
%TO.N,VDD*%
X152400000Y-74930000D03*
%TO.P,U6,5,2IN+*%
%TO.N,Net-(Q4-C)*%
X154940000Y-74930000D03*
%TO.P,U6,6,2IN-*%
%TO.N,Net-(Q10-E)*%
X157480000Y-74930000D03*
%TO.P,U6,7,2OUT*%
%TO.N,Net-(Q10-B)*%
X160020000Y-74930000D03*
%TO.P,U6,8,3OUT*%
%TO.N,vout*%
X160020000Y-67310000D03*
%TO.P,U6,9,3IN-*%
X157480000Y-67310000D03*
%TO.P,U6,10,3IN+*%
%TO.N,Net-(U2-1CP)*%
X154940000Y-67310000D03*
%TO.P,U6,11,GND*%
%TO.N,GND*%
X152400000Y-67310000D03*
%TO.P,U6,12,4IN+*%
%TO.N,unconnected-(U6-4IN+-Pad12)*%
X149860000Y-67310000D03*
%TO.P,U6,13,4IN-*%
%TO.N,unconnected-(U6-4IN--Pad13)*%
X147320000Y-67310000D03*
%TO.P,U6,14,4OUT*%
%TO.N,unconnected-(U6-4OUT-Pad14)*%
X144780000Y-67310000D03*
%TD*%
D12*
%TO.P,R7,1*%
%TO.N,Net-(U4-DIS)*%
X171450000Y-92185000D03*
D13*
%TO.P,R7,2*%
%TO.N,vcap*%
X171450000Y-87105000D03*
%TD*%
D14*
%TO.P,C4,1*%
%TO.N,Net-(U4-CV)*%
X171450000Y-101600000D03*
%TO.P,C4,2*%
%TO.N,GND*%
X171450000Y-106600000D03*
%TD*%
D15*
%TO.P,Q6,1,C*%
%TO.N,Net-(Q2-C)*%
X134620000Y-99060000D03*
D16*
%TO.P,Q6,2,B*%
X134620000Y-100330000D03*
%TO.P,Q6,3,E*%
%TO.N,GND*%
X134620000Y-101600000D03*
%TD*%
D17*
%TO.P,R1,1*%
%TO.N,GND*%
X116840000Y-73660000D03*
D18*
%TO.P,R1,2*%
%TO.N,Net-(Q1-B)*%
X121920000Y-73660000D03*
%TD*%
D17*
%TO.P,R4,1*%
%TO.N,Net-(Q4-C)*%
X149860000Y-80010000D03*
D18*
%TO.P,R4,2*%
%TO.N,Net-(C2-Pad1)*%
X149860000Y-85090000D03*
%TD*%
D15*
%TO.P,Q1,1,C*%
%TO.N,Net-(Q1-B)*%
X127000000Y-69850000D03*
D16*
%TO.P,Q1,2,B*%
X127000000Y-68580000D03*
%TO.P,Q1,3,E*%
%TO.N,VDD*%
X127000000Y-67310000D03*
%TD*%
D15*
%TO.P,Q4,1,C*%
%TO.N,Net-(Q4-C)*%
X135890000Y-76200000D03*
D16*
%TO.P,Q4,2,B*%
%TO.N,Net-(Q4-B)*%
X135890000Y-74930000D03*
%TO.P,Q4,3,E*%
%TO.N,Net-(Q3-C)*%
X135890000Y-73660000D03*
%TD*%
D10*
%TO.P,U2,1,\u002A1R*%
%TO.N,VDD*%
X106680000Y-92710000D03*
D11*
%TO.P,U2,2,1D*%
%TO.N,Net-(U2-\u002A1Q)*%
X106680000Y-95250000D03*
%TO.P,U2,3,1CP*%
%TO.N,Net-(U2-1CP)*%
X106680000Y-97790000D03*
%TO.P,U2,4,\u002A1S*%
%TO.N,VDD*%
X106680000Y-100330000D03*
%TO.P,U2,5,1Q*%
%TO.N,unconnected-(U2-1Q-Pad5)*%
X106680000Y-102870000D03*
%TO.P,U2,6,\u002A1Q*%
%TO.N,Net-(U2-\u002A1Q)*%
X106680000Y-105410000D03*
%TO.P,U2,7,GND*%
%TO.N,GND*%
X106680000Y-107950000D03*
%TO.P,U2,8,\u002A2Q*%
%TO.N,Net-(U2-\u002A2Q)*%
X114300000Y-107950000D03*
%TO.P,U2,9,2Q*%
%TO.N,Net-(U2-2Q)*%
X114300000Y-105410000D03*
%TO.P,U2,10,\u002A2S*%
%TO.N,VDD*%
X114300000Y-102870000D03*
%TO.P,U2,11,2CP*%
%TO.N,Net-(U2-\u002A1Q)*%
X114300000Y-100330000D03*
%TO.P,U2,12,2D*%
%TO.N,Net-(U2-\u002A2Q)*%
X114300000Y-97790000D03*
%TO.P,U2,13,\u002A2R*%
%TO.N,VDD*%
X114300000Y-95250000D03*
%TO.P,U2,14,VCC*%
X114300000Y-92710000D03*
%TD*%
D15*
%TO.P,Q2,1,C*%
%TO.N,Net-(Q2-C)*%
X132080000Y-69850000D03*
D16*
%TO.P,Q2,2,B*%
%TO.N,Net-(Q1-B)*%
X132080000Y-68580000D03*
%TO.P,Q2,3,E*%
%TO.N,VDD*%
X132080000Y-67310000D03*
%TD*%
D15*
%TO.P,Q8,1,C*%
%TO.N,Net-(Q10-C)*%
X166370000Y-71120000D03*
D16*
%TO.P,Q8,2,B*%
X166370000Y-69850000D03*
%TO.P,Q8,3,E*%
%TO.N,VDD*%
X166370000Y-68580000D03*
%TD*%
D15*
%TO.P,Q7,1,C*%
%TO.N,Net-(Q5-E)*%
X139700000Y-99060000D03*
D16*
%TO.P,Q7,2,B*%
%TO.N,Net-(Q2-C)*%
X139700000Y-100330000D03*
%TO.P,Q7,3,E*%
%TO.N,GND*%
X139700000Y-101600000D03*
%TD*%
D15*
%TO.P,Q10,1,C*%
%TO.N,Net-(Q10-C)*%
X161290000Y-80010000D03*
D16*
%TO.P,Q10,2,B*%
%TO.N,Net-(Q10-B)*%
X161290000Y-81280000D03*
%TO.P,Q10,3,E*%
%TO.N,Net-(Q10-E)*%
X161290000Y-82550000D03*
%TD*%
D17*
%TO.P,R3,1*%
%TO.N,Net-(U1-2B)*%
X135890000Y-92710000D03*
D18*
%TO.P,R3,2*%
%TO.N,Net-(Q5-B)*%
X135890000Y-87630000D03*
%TD*%
D15*
%TO.P,Q9,1,C*%
%TO.N,Net-(Q9-C)*%
X171450000Y-71120000D03*
D16*
%TO.P,Q9,2,B*%
%TO.N,Net-(Q10-C)*%
X171450000Y-69850000D03*
%TO.P,Q9,3,E*%
%TO.N,VDD*%
X171450000Y-68580000D03*
%TD*%
D19*
%TO.P,C5,1*%
%TO.N,vin*%
X137160000Y-110180000D03*
D17*
%TO.P,C5,2*%
%TO.N,GND*%
X137160000Y-106680000D03*
%TD*%
D15*
%TO.P,Q3,1,C*%
%TO.N,Net-(Q3-C)*%
X137160000Y-69850000D03*
D16*
%TO.P,Q3,2,B*%
%TO.N,Net-(Q1-B)*%
X137160000Y-68580000D03*
%TO.P,Q3,3,E*%
%TO.N,VDD*%
X137160000Y-67310000D03*
%TD*%
D14*
%TO.P,C1,1*%
%TO.N,Net-(Q4-C)*%
X140970000Y-81280000D03*
%TO.P,C1,2*%
%TO.N,GND*%
X145970000Y-81280000D03*
%TD*%
D19*
%TO.P,U4,1,GND*%
%TO.N,GND*%
X158760000Y-95260000D03*
D18*
%TO.P,U4,2,TR*%
%TO.N,vcap*%
X158760000Y-97800000D03*
%TO.P,U4,3,Q*%
%TO.N,Net-(U2-1CP)*%
X158760000Y-100340000D03*
%TO.P,U4,4,R*%
%TO.N,VDD*%
X158760000Y-102880000D03*
%TO.P,U4,5,CV*%
%TO.N,Net-(U4-CV)*%
X166380000Y-102880000D03*
%TO.P,U4,6,THR*%
%TO.N,vcap*%
X166380000Y-100340000D03*
%TO.P,U4,7,DIS*%
%TO.N,Net-(U4-DIS)*%
X166380000Y-97800000D03*
%TO.P,U4,8,VCC*%
%TO.N,VDD*%
X166380000Y-95260000D03*
%TD*%
D19*
%TO.P,C2,1*%
%TO.N,Net-(C2-Pad1)*%
X143510000Y-88900000D03*
D17*
%TO.P,C2,2*%
%TO.N,GND*%
X146010000Y-88900000D03*
%TD*%
%TO.P,R2,1*%
%TO.N,Net-(U1-4Y)*%
X124685000Y-76200000D03*
D18*
%TO.P,R2,2*%
%TO.N,Net-(Q4-B)*%
X129765000Y-76200000D03*
%TD*%
D10*
%TO.P,U1,1,1A*%
%TO.N,unconnected-(U1-1A-Pad1)*%
X110490000Y-86360000D03*
D11*
%TO.P,U1,2,1B*%
%TO.N,unconnected-(U1-1B-Pad2)*%
X113030000Y-86360000D03*
%TO.P,U1,3,1Y*%
%TO.N,unconnected-(U1-1Y-Pad3)*%
X115570000Y-86360000D03*
%TO.P,U1,4,2A*%
%TO.N,Net-(U1-2A)*%
X118110000Y-86360000D03*
%TO.P,U1,5,2B*%
%TO.N,Net-(U1-2B)*%
X120650000Y-86360000D03*
%TO.P,U1,6,2Y*%
%TO.N,Net-(U1-2Y)*%
X123190000Y-86360000D03*
%TO.P,U1,7,GND*%
%TO.N,GND*%
X125730000Y-86360000D03*
%TO.P,U1,8,3Y*%
%TO.N,unconnected-(U1-3Y-Pad8)*%
X125730000Y-78740000D03*
%TO.P,U1,9,3A*%
%TO.N,unconnected-(U1-3A-Pad9)*%
X123190000Y-78740000D03*
%TO.P,U1,10,3B*%
%TO.N,unconnected-(U1-3B-Pad10)*%
X120650000Y-78740000D03*
%TO.P,U1,11,4Y*%
%TO.N,Net-(U1-4Y)*%
X118110000Y-78740000D03*
%TO.P,U1,12,4A*%
%TO.N,Net-(U1-2A)*%
X115570000Y-78740000D03*
%TO.P,U1,13,4B*%
X113030000Y-78740000D03*
%TO.P,U1,14,VCC*%
%TO.N,VDD*%
X110490000Y-78740000D03*
%TD*%
D20*
%TO.P,J1,1,Pin_1*%
%TO.N,GND*%
X144780000Y-106680000D03*
D21*
%TO.P,J1,2,Pin_2*%
%TO.N,VDD*%
X147320000Y-106680000D03*
%TO.P,J1,3,Pin_3*%
%TO.N,vin*%
X149860000Y-106680000D03*
%TO.P,J1,4,Pin_4*%
%TO.N,vout*%
X152400000Y-106680000D03*
%TO.P,J1,5,Pin_5*%
%TO.N,vcap*%
X154940000Y-106680000D03*
%TD*%
D12*
%TO.P,R6,1*%
%TO.N,Net-(Q9-C)*%
X171450000Y-77470000D03*
D13*
%TO.P,R6,2*%
%TO.N,vcap*%
X171450000Y-82550000D03*
%TD*%
D15*
%TO.P,Q5,1,C*%
%TO.N,Net-(Q4-C)*%
X134620000Y-81280000D03*
D16*
%TO.P,Q5,2,B*%
%TO.N,Net-(Q5-B)*%
X134620000Y-82550000D03*
%TO.P,Q5,3,E*%
%TO.N,Net-(Q5-E)*%
X134620000Y-83820000D03*
%TD*%
D14*
%TO.P,C3,1*%
%TO.N,GND*%
X148630000Y-95250000D03*
%TO.P,C3,2*%
%TO.N,vcap*%
X153630000Y-95250000D03*
%TD*%
D22*
%TO.N,Net-(Q4-C)*%
X135890000Y-76200000D02*
X135890000Y-80010000D01*
X142670000Y-79580000D02*
X140970000Y-81280000D01*
X149860000Y-80010000D02*
X148590000Y-80010000D01*
X135890000Y-80010000D02*
X134620000Y-81280000D01*
X148160000Y-79580000D02*
X142670000Y-79580000D01*
X148590000Y-80010000D02*
X148160000Y-79580000D01*
X134620000Y-81280000D02*
X140970000Y-81280000D01*
%TO.N,GND*%
X162560000Y-92710000D02*
X162560000Y-105410000D01*
X163755500Y-91514500D02*
X162560000Y-92710000D01*
X148630000Y-91520000D02*
X146010000Y-88900000D01*
X146010000Y-88900000D02*
X146010000Y-81320000D01*
X146010000Y-81320000D02*
X145970000Y-81280000D01*
X139700000Y-101600000D02*
X144780000Y-106680000D01*
X158750000Y-92710000D02*
X158750000Y-95250000D01*
X134620000Y-101600000D02*
X139700000Y-101600000D01*
X170260000Y-105410000D02*
X171450000Y-106600000D01*
X162560000Y-105410000D02*
X170260000Y-105410000D01*
X146050000Y-96550000D02*
X146050000Y-95250000D01*
X148630000Y-95250000D02*
X148630000Y-91520000D01*
X163755500Y-89892300D02*
X163755500Y-91514500D01*
X146050000Y-95250000D02*
X148630000Y-95250000D01*
X158750000Y-95250000D02*
X158760000Y-95260000D01*
X139700000Y-101600000D02*
X141000000Y-101600000D01*
X162560000Y-92710000D02*
X158750000Y-92710000D01*
X141000000Y-101600000D02*
X146050000Y-96550000D01*
%TO.N,vcap*%
X174735000Y-87105000D02*
X175260000Y-87630000D01*
X175260000Y-93980000D02*
X175260000Y-109220000D01*
X171450000Y-87105000D02*
X174735000Y-87105000D01*
X175260000Y-87630000D02*
X175260000Y-93980000D01*
X157480000Y-109220000D02*
X154940000Y-106680000D01*
X167640000Y-100330000D02*
X167630000Y-100340000D01*
X168910000Y-100330000D02*
X167640000Y-100330000D01*
X175260000Y-93980000D02*
X168910000Y-100330000D01*
X167630000Y-100340000D02*
X166380000Y-100340000D01*
X175260000Y-109220000D02*
X157480000Y-109220000D01*
X171450000Y-82550000D02*
X171450000Y-87105000D01*
%TO.N,Net-(U4-CV)*%
X167660000Y-101600000D02*
X166380000Y-102880000D01*
X171450000Y-101600000D02*
X167660000Y-101600000D01*
%TO.N,vout*%
X157480000Y-67310000D02*
X160020000Y-67310000D01*
%TO.N,vin*%
X129540000Y-91440000D02*
X129540000Y-111760000D01*
X137160000Y-110180000D02*
X137160000Y-114300000D01*
X132080000Y-114300000D02*
X137160000Y-114300000D01*
X124460000Y-88900000D02*
X127000000Y-88900000D01*
X137160000Y-114300000D02*
X147320000Y-114300000D01*
X127000000Y-88900000D02*
X129540000Y-91440000D01*
X123190000Y-90170000D02*
X124460000Y-88900000D01*
X123190000Y-97790000D02*
X123190000Y-90170000D01*
X147320000Y-114300000D02*
X149860000Y-111760000D01*
X129540000Y-111760000D02*
X132080000Y-114300000D01*
X149860000Y-111760000D02*
X149860000Y-106680000D01*
X119380000Y-97790000D02*
X123190000Y-97790000D01*
%TO.N,VDD*%
X116840000Y-99060000D02*
X118745000Y-100965000D01*
X110490000Y-74930000D02*
X111760000Y-74930000D01*
X105410000Y-100330000D02*
X106680000Y-100330000D01*
X166370000Y-68580000D02*
X171450000Y-68580000D01*
X152400000Y-74930000D02*
X152400000Y-72390000D01*
X114300000Y-92710000D02*
X114300000Y-95250000D01*
X118745000Y-100965000D02*
X119380000Y-100330000D01*
X124460000Y-67310000D02*
X127000000Y-67310000D01*
X110490000Y-78740000D02*
X107950000Y-78740000D01*
X105410000Y-92710000D02*
X105332300Y-92787700D01*
X147330000Y-102880000D02*
X147320000Y-102870000D01*
X147320000Y-102870000D02*
X147320000Y-106680000D01*
X106680000Y-80010000D02*
X106680000Y-92710000D01*
X106680000Y-92710000D02*
X114300000Y-92710000D01*
X165100000Y-68580000D02*
X166370000Y-68580000D01*
X116840000Y-102870000D02*
X118745000Y-100965000D01*
X116840000Y-95250000D02*
X119380000Y-95250000D01*
X105332300Y-92787700D02*
X105332300Y-100252300D01*
X111760000Y-74930000D02*
X116840000Y-69850000D01*
X107950000Y-78740000D02*
X106680000Y-80010000D01*
X105332300Y-100252300D02*
X105410000Y-100330000D01*
X114300000Y-95250000D02*
X116840000Y-95250000D01*
X116840000Y-95250000D02*
X116840000Y-99060000D01*
X152400000Y-72390000D02*
X161290000Y-72390000D01*
X163752300Y-65962300D02*
X138507700Y-65962300D01*
X158760000Y-102880000D02*
X147330000Y-102880000D01*
X166370000Y-68580000D02*
X163752300Y-65962300D01*
X127000000Y-67310000D02*
X137160000Y-67310000D01*
X138507700Y-65962300D02*
X137160000Y-67310000D01*
X116840000Y-69850000D02*
X121920000Y-69850000D01*
X106680000Y-92710000D02*
X105410000Y-92710000D01*
X110490000Y-78740000D02*
X110490000Y-74930000D01*
X114300000Y-102870000D02*
X116840000Y-102870000D01*
X161290000Y-72390000D02*
X165100000Y-68580000D01*
X121920000Y-69850000D02*
X124460000Y-67310000D01*
%TO.N,Net-(Q1-B)*%
X127000000Y-68580000D02*
X137160000Y-68580000D01*
X125730000Y-69850000D02*
X121920000Y-73660000D01*
X127000000Y-68580000D02*
X127000000Y-69850000D01*
X127000000Y-69850000D02*
X125730000Y-69850000D01*
%TO.N,Net-(Q2-C)*%
X133350000Y-97790000D02*
X134620000Y-99060000D01*
X134620000Y-99060000D02*
X134620000Y-100330000D01*
X133350000Y-96520000D02*
X133350000Y-97790000D01*
X132080000Y-95250000D02*
X133350000Y-96520000D01*
X129540000Y-81280000D02*
X129540000Y-88900000D01*
X134620000Y-100330000D02*
X139700000Y-100330000D01*
X132080000Y-69850000D02*
X132080000Y-78740000D01*
X132080000Y-78740000D02*
X129540000Y-81280000D01*
X132080000Y-91440000D02*
X132080000Y-95250000D01*
X129540000Y-88900000D02*
X132080000Y-91440000D01*
%TO.N,Net-(Q3-C)*%
X137160000Y-69850000D02*
X137160000Y-72390000D01*
X137160000Y-72390000D02*
X135890000Y-73660000D01*
%TO.N,Net-(Q5-E)*%
X139700000Y-88900000D02*
X139700000Y-99060000D01*
X134620000Y-83820000D02*
X139700000Y-88900000D01*
%TO.N,Net-(Q5-B)*%
X132080000Y-86360000D02*
X132080000Y-83820000D01*
X133350000Y-82550000D02*
X132080000Y-83820000D01*
X133350000Y-87630000D02*
X132080000Y-86360000D01*
X135890000Y-87630000D02*
X133350000Y-87630000D01*
X134620000Y-82550000D02*
X133350000Y-82550000D01*
%TO.N,Net-(Q10-C)*%
X166370000Y-69850000D02*
X166370000Y-71120000D01*
X166370000Y-80010000D02*
X161290000Y-80010000D01*
X166370000Y-71120000D02*
X166370000Y-80010000D01*
X166370000Y-69850000D02*
X171450000Y-69850000D01*
%TO.N,Net-(Q9-C)*%
X171450000Y-71120000D02*
X171450000Y-77470000D01*
%TO.N,Net-(Q10-E)*%
X158750000Y-86360000D02*
X158750000Y-87630000D01*
X157480000Y-74930000D02*
X157480000Y-81280000D01*
X158675500Y-87704500D02*
X158675500Y-89892300D01*
X161290000Y-85090000D02*
X160020000Y-86360000D01*
X157480000Y-81280000D02*
X158750000Y-82550000D01*
X161290000Y-82550000D02*
X161290000Y-85090000D01*
X158750000Y-82550000D02*
X161290000Y-82550000D01*
X160020000Y-86360000D02*
X158750000Y-86360000D01*
X158750000Y-87630000D02*
X158675500Y-87704500D01*
%TO.N,Net-(Q10-B)*%
X158750000Y-77470000D02*
X158750000Y-80852944D01*
X158750000Y-80852944D02*
X159177056Y-81280000D01*
X160020000Y-74930000D02*
X160020000Y-76200000D01*
X160020000Y-76200000D02*
X158750000Y-77470000D01*
X159177056Y-81280000D02*
X161290000Y-81280000D01*
%TO.N,Net-(U1-4Y)*%
X118110000Y-76200000D02*
X124685000Y-76200000D01*
X118110000Y-78740000D02*
X118110000Y-76200000D01*
%TO.N,Net-(U4-DIS)*%
X171450000Y-95250000D02*
X168900000Y-97800000D01*
X171450000Y-92185000D02*
X171450000Y-95250000D01*
X168900000Y-97800000D02*
X166380000Y-97800000D01*
%TO.N,Net-(U1-2A)*%
X113030000Y-78740000D02*
X115570000Y-78740000D01*
X115570000Y-81280000D02*
X118110000Y-83820000D01*
X115570000Y-78740000D02*
X115570000Y-81280000D01*
X118110000Y-83820000D02*
X118110000Y-86360000D01*
%TO.N,Net-(U1-2Y)*%
X123190000Y-86360000D02*
X119380000Y-90170000D01*
X119380000Y-90170000D02*
X119380000Y-92710000D01*
%TO.N,Net-(U2-1CP)*%
X155330000Y-96910000D02*
X158760000Y-100340000D01*
X152400000Y-77470000D02*
X155330000Y-80400000D01*
X142240000Y-69850000D02*
X140970000Y-71120000D01*
X154940000Y-67310000D02*
X154940000Y-69850000D01*
X155330000Y-80400000D02*
X155330000Y-96910000D01*
X154940000Y-69850000D02*
X142240000Y-69850000D01*
X140970000Y-71120000D02*
X140970000Y-77470000D01*
X140970000Y-77470000D02*
X152400000Y-77470000D01*
%TO.N,Net-(U2-2Q)*%
X116840000Y-109220000D02*
X116840000Y-107950000D01*
X127000000Y-100330000D02*
X121920000Y-105410000D01*
X121920000Y-110490000D02*
X118110000Y-110490000D01*
X118110000Y-110490000D02*
X116840000Y-109220000D01*
X116840000Y-107950000D02*
X114300000Y-105410000D01*
X121920000Y-105410000D02*
X121920000Y-110490000D01*
%TO.N,Net-(U2-\u002A1Q)*%
X114300000Y-100330000D02*
X109220000Y-105410000D01*
X109220000Y-95250000D02*
X114300000Y-100330000D01*
X106680000Y-95250000D02*
X109220000Y-95250000D01*
X109220000Y-105410000D02*
X106680000Y-105410000D01*
%TD*%
%TA.AperFunction,Conductor*%
%TO.N,GND*%
G36*
X152001257Y-78490185D02*
G01*
X152021899Y-78506819D01*
X154293181Y-80778101D01*
X154326666Y-80839424D01*
X154329500Y-80865782D01*
X154329500Y-93730006D01*
X154309815Y-93797045D01*
X154257011Y-93842800D01*
X154187853Y-93852744D01*
X154165237Y-93847287D01*
X153999616Y-93790429D01*
X153754335Y-93749500D01*
X153505665Y-93749500D01*
X153260383Y-93790429D01*
X153025197Y-93871169D01*
X153025188Y-93871172D01*
X152806493Y-93989524D01*
X152610257Y-94142261D01*
X152441833Y-94325217D01*
X152305826Y-94533393D01*
X152205936Y-94761118D01*
X152144892Y-95002175D01*
X152144890Y-95002187D01*
X152124357Y-95249994D01*
X152124357Y-95250005D01*
X152144890Y-95497812D01*
X152144892Y-95497824D01*
X152205936Y-95738881D01*
X152305826Y-95966606D01*
X152441833Y-96174782D01*
X152441836Y-96174785D01*
X152610256Y-96357738D01*
X152806491Y-96510474D01*
X152886177Y-96553598D01*
X153024332Y-96628364D01*
X153025190Y-96628828D01*
X153187788Y-96684648D01*
X153258964Y-96709083D01*
X153260386Y-96709571D01*
X153505665Y-96750500D01*
X153754335Y-96750500D01*
X153999614Y-96709571D01*
X154165238Y-96652711D01*
X154235035Y-96649562D01*
X154295457Y-96684648D01*
X154327317Y-96746830D01*
X154329500Y-96769993D01*
X154329500Y-97008542D01*
X154346783Y-97095428D01*
X154346783Y-97095429D01*
X154360068Y-97162218D01*
X154367947Y-97201829D01*
X154367949Y-97201837D01*
X154443364Y-97383907D01*
X154443371Y-97383920D01*
X154552859Y-97547780D01*
X154552860Y-97547781D01*
X154552861Y-97547782D01*
X154692218Y-97687139D01*
X154692219Y-97687139D01*
X154699286Y-97694206D01*
X154699285Y-97694206D01*
X154699289Y-97694209D01*
X157433111Y-100428032D01*
X157466596Y-100489355D01*
X157468958Y-100504903D01*
X157474364Y-100566688D01*
X157474366Y-100566697D01*
X157533258Y-100786488D01*
X157533261Y-100786497D01*
X157629431Y-100992732D01*
X157629432Y-100992734D01*
X157759954Y-101179141D01*
X157920858Y-101340045D01*
X157935075Y-101350000D01*
X158107266Y-101470568D01*
X158165275Y-101497618D01*
X158217714Y-101543791D01*
X158236866Y-101610984D01*
X158216650Y-101677865D01*
X158165275Y-101722382D01*
X158107267Y-101749431D01*
X158107265Y-101749432D01*
X158004595Y-101821322D01*
X157966747Y-101847824D01*
X157953535Y-101857075D01*
X157887329Y-101879402D01*
X157882412Y-101879500D01*
X147481026Y-101879500D01*
X147456834Y-101877117D01*
X147438238Y-101873418D01*
X147418542Y-101869500D01*
X147418541Y-101869500D01*
X147221459Y-101869500D01*
X147221458Y-101869500D01*
X147195184Y-101874726D01*
X147168909Y-101879953D01*
X147168908Y-101879953D01*
X147028171Y-101907947D01*
X147028163Y-101907949D01*
X146982048Y-101927051D01*
X146982047Y-101927051D01*
X146846092Y-101983364D01*
X146846079Y-101983371D01*
X146682218Y-102092860D01*
X146682214Y-102092863D01*
X146542860Y-102232217D01*
X146433371Y-102396080D01*
X146433364Y-102396093D01*
X146395863Y-102486632D01*
X146364625Y-102562048D01*
X146364624Y-102562052D01*
X146357948Y-102578167D01*
X146357947Y-102578171D01*
X146319500Y-102771454D01*
X146319500Y-105560569D01*
X146299815Y-105627608D01*
X146247011Y-105673363D01*
X146177853Y-105683307D01*
X146114297Y-105654282D01*
X146079319Y-105603903D01*
X146073356Y-105587917D01*
X146073350Y-105587906D01*
X145987190Y-105472812D01*
X145987187Y-105472809D01*
X145872093Y-105386649D01*
X145872086Y-105386645D01*
X145737379Y-105336403D01*
X145737372Y-105336401D01*
X145677844Y-105330000D01*
X145030000Y-105330000D01*
X145030000Y-106246988D01*
X144972993Y-106214075D01*
X144845826Y-106180000D01*
X144714174Y-106180000D01*
X144587007Y-106214075D01*
X144530000Y-106246988D01*
X144530000Y-105330000D01*
X143882155Y-105330000D01*
X143822627Y-105336401D01*
X143822620Y-105336403D01*
X143687913Y-105386645D01*
X143687906Y-105386649D01*
X143572812Y-105472809D01*
X143572809Y-105472812D01*
X143486649Y-105587906D01*
X143486645Y-105587913D01*
X143436403Y-105722620D01*
X143436401Y-105722627D01*
X143430000Y-105782155D01*
X143430000Y-106430000D01*
X144346988Y-106430000D01*
X144314075Y-106487007D01*
X144280000Y-106614174D01*
X144280000Y-106745826D01*
X144314075Y-106872993D01*
X144346988Y-106930000D01*
X143430000Y-106930000D01*
X143430000Y-107577844D01*
X143436401Y-107637372D01*
X143436403Y-107637379D01*
X143486645Y-107772086D01*
X143486649Y-107772093D01*
X143572809Y-107887187D01*
X143572812Y-107887190D01*
X143687906Y-107973350D01*
X143687913Y-107973354D01*
X143822620Y-108023596D01*
X143822627Y-108023598D01*
X143882155Y-108029999D01*
X143882172Y-108030000D01*
X144530000Y-108030000D01*
X144530000Y-107113012D01*
X144587007Y-107145925D01*
X144714174Y-107180000D01*
X144845826Y-107180000D01*
X144972993Y-107145925D01*
X145030000Y-107113012D01*
X145030000Y-108030000D01*
X145677828Y-108030000D01*
X145677844Y-108029999D01*
X145737372Y-108023598D01*
X145737379Y-108023596D01*
X145872086Y-107973354D01*
X145872093Y-107973350D01*
X145987187Y-107887190D01*
X145987190Y-107887187D01*
X146073350Y-107772093D01*
X146073354Y-107772086D01*
X146122422Y-107640529D01*
X146164293Y-107584595D01*
X146229757Y-107560178D01*
X146298030Y-107575030D01*
X146326285Y-107596181D01*
X146448599Y-107718495D01*
X146506482Y-107759025D01*
X146642165Y-107854032D01*
X146642167Y-107854033D01*
X146642170Y-107854035D01*
X146856337Y-107953903D01*
X147084592Y-108015063D01*
X147255319Y-108030000D01*
X147319999Y-108035659D01*
X147320000Y-108035659D01*
X147320001Y-108035659D01*
X147384681Y-108030000D01*
X147555408Y-108015063D01*
X147783663Y-107953903D01*
X147997830Y-107854035D01*
X148191401Y-107718495D01*
X148358495Y-107551401D01*
X148488425Y-107365842D01*
X148543002Y-107322217D01*
X148612500Y-107315023D01*
X148674855Y-107346546D01*
X148691575Y-107365842D01*
X148821501Y-107551396D01*
X148821505Y-107551401D01*
X148823181Y-107553077D01*
X148823682Y-107553995D01*
X148824982Y-107555544D01*
X148824670Y-107555805D01*
X148856666Y-107614400D01*
X148859500Y-107640758D01*
X148859500Y-111294217D01*
X148839815Y-111361256D01*
X148823181Y-111381898D01*
X146941899Y-113263181D01*
X146880576Y-113296666D01*
X146854218Y-113299500D01*
X138284500Y-113299500D01*
X138217461Y-113279815D01*
X138171706Y-113227011D01*
X138160500Y-113175500D01*
X138160500Y-111517180D01*
X138180185Y-111450141D01*
X138210187Y-111417914D01*
X138317546Y-111337546D01*
X138403796Y-111222331D01*
X138454091Y-111087483D01*
X138460500Y-111027873D01*
X138460499Y-109332128D01*
X138454091Y-109272517D01*
X138403796Y-109137669D01*
X138403795Y-109137668D01*
X138403793Y-109137664D01*
X138317547Y-109022455D01*
X138317544Y-109022452D01*
X138202335Y-108936206D01*
X138202328Y-108936202D01*
X138067482Y-108885908D01*
X138067483Y-108885908D01*
X138007883Y-108879501D01*
X138007881Y-108879500D01*
X138007873Y-108879500D01*
X138007864Y-108879500D01*
X136312129Y-108879500D01*
X136312123Y-108879501D01*
X136252516Y-108885908D01*
X136117671Y-108936202D01*
X136117664Y-108936206D01*
X136002455Y-109022452D01*
X136002452Y-109022455D01*
X135916206Y-109137664D01*
X135916202Y-109137671D01*
X135865908Y-109272517D01*
X135860960Y-109318543D01*
X135859501Y-109332123D01*
X135859500Y-109332135D01*
X135859500Y-111027870D01*
X135859501Y-111027876D01*
X135865908Y-111087483D01*
X135916202Y-111222328D01*
X135916206Y-111222335D01*
X135954776Y-111273857D01*
X136002454Y-111337546D01*
X136109811Y-111417914D01*
X136151682Y-111473847D01*
X136159500Y-111517180D01*
X136159500Y-113175500D01*
X136139815Y-113242539D01*
X136087011Y-113288294D01*
X136035500Y-113299500D01*
X132545783Y-113299500D01*
X132478744Y-113279815D01*
X132458102Y-113263181D01*
X130576819Y-111381898D01*
X130543334Y-111320575D01*
X130540500Y-111294217D01*
X130540500Y-106679997D01*
X135855034Y-106679997D01*
X135855034Y-106680002D01*
X135874858Y-106906599D01*
X135874860Y-106906610D01*
X135933730Y-107126317D01*
X135933735Y-107126331D01*
X136029863Y-107332478D01*
X136080974Y-107405472D01*
X136760000Y-106726446D01*
X136760000Y-106732661D01*
X136787259Y-106834394D01*
X136839920Y-106925606D01*
X136914394Y-107000080D01*
X137005606Y-107052741D01*
X137107339Y-107080000D01*
X137113553Y-107080000D01*
X136434526Y-107759025D01*
X136507513Y-107810132D01*
X136507521Y-107810136D01*
X136713668Y-107906264D01*
X136713682Y-107906269D01*
X136933389Y-107965139D01*
X136933400Y-107965141D01*
X137159998Y-107984966D01*
X137160002Y-107984966D01*
X137386599Y-107965141D01*
X137386610Y-107965139D01*
X137606317Y-107906269D01*
X137606331Y-107906264D01*
X137812478Y-107810136D01*
X137885471Y-107759024D01*
X137206447Y-107080000D01*
X137212661Y-107080000D01*
X137314394Y-107052741D01*
X137405606Y-107000080D01*
X137480080Y-106925606D01*
X137532741Y-106834394D01*
X137560000Y-106732661D01*
X137560000Y-106726447D01*
X138239024Y-107405471D01*
X138290136Y-107332478D01*
X138386264Y-107126331D01*
X138386269Y-107126317D01*
X138445139Y-106906610D01*
X138445141Y-106906599D01*
X138464966Y-106680002D01*
X138464966Y-106679997D01*
X138445141Y-106453400D01*
X138445139Y-106453389D01*
X138386269Y-106233682D01*
X138386264Y-106233668D01*
X138290136Y-106027521D01*
X138290132Y-106027513D01*
X138239025Y-105954526D01*
X137560000Y-106633551D01*
X137560000Y-106627339D01*
X137532741Y-106525606D01*
X137480080Y-106434394D01*
X137405606Y-106359920D01*
X137314394Y-106307259D01*
X137212661Y-106280000D01*
X137206448Y-106280000D01*
X137885472Y-105600974D01*
X137812478Y-105549863D01*
X137606331Y-105453735D01*
X137606317Y-105453730D01*
X137386610Y-105394860D01*
X137386599Y-105394858D01*
X137160002Y-105375034D01*
X137159998Y-105375034D01*
X136933400Y-105394858D01*
X136933389Y-105394860D01*
X136713682Y-105453730D01*
X136713673Y-105453734D01*
X136507516Y-105549866D01*
X136507512Y-105549868D01*
X136434526Y-105600973D01*
X136434526Y-105600974D01*
X137113553Y-106280000D01*
X137107339Y-106280000D01*
X137005606Y-106307259D01*
X136914394Y-106359920D01*
X136839920Y-106434394D01*
X136787259Y-106525606D01*
X136760000Y-106627339D01*
X136760000Y-106633552D01*
X136080974Y-105954526D01*
X136080973Y-105954526D01*
X136029868Y-106027512D01*
X136029866Y-106027516D01*
X135933734Y-106233673D01*
X135933730Y-106233682D01*
X135874860Y-106453389D01*
X135874858Y-106453400D01*
X135855034Y-106679997D01*
X130540500Y-106679997D01*
X130540500Y-91614782D01*
X130560185Y-91547743D01*
X130612989Y-91501988D01*
X130682147Y-91492044D01*
X130745703Y-91521069D01*
X130752172Y-91527092D01*
X130810580Y-91585500D01*
X131043181Y-91818101D01*
X131076666Y-91879424D01*
X131079500Y-91905782D01*
X131079500Y-95348544D01*
X131117947Y-95541833D01*
X131117949Y-95541836D01*
X131140038Y-95595165D01*
X131155603Y-95632741D01*
X131193366Y-95723911D01*
X131193371Y-95723920D01*
X131302860Y-95887781D01*
X131302863Y-95887785D01*
X131446537Y-96031459D01*
X131446559Y-96031479D01*
X132313181Y-96898101D01*
X132346666Y-96959424D01*
X132349500Y-96985782D01*
X132349500Y-97888544D01*
X132387947Y-98081833D01*
X132387949Y-98081837D01*
X132410038Y-98135164D01*
X132463366Y-98263911D01*
X132463371Y-98263920D01*
X132572860Y-98427781D01*
X132572863Y-98427785D01*
X132716537Y-98571459D01*
X132716559Y-98571479D01*
X133333181Y-99188101D01*
X133366666Y-99249424D01*
X133369500Y-99275782D01*
X133369500Y-99632869D01*
X133369501Y-99632876D01*
X133375908Y-99692483D01*
X133426202Y-99827328D01*
X133426203Y-99827330D01*
X133426204Y-99827331D01*
X133427028Y-99828432D01*
X133427509Y-99829721D01*
X133430454Y-99835114D01*
X133429678Y-99835537D01*
X133451448Y-99893895D01*
X133442325Y-99950198D01*
X133408910Y-100030868D01*
X133408907Y-100030880D01*
X133369500Y-100228992D01*
X133369500Y-100431007D01*
X133408907Y-100629119D01*
X133408909Y-100629127D01*
X133486212Y-100815754D01*
X133540204Y-100896558D01*
X133561081Y-100963235D01*
X133542596Y-101030615D01*
X133540204Y-101034337D01*
X133486655Y-101114479D01*
X133486654Y-101114481D01*
X133409390Y-101301016D01*
X133409387Y-101301025D01*
X133399647Y-101350000D01*
X134254134Y-101350000D01*
X134278326Y-101352383D01*
X134281123Y-101352939D01*
X134293995Y-101355499D01*
X134293996Y-101355500D01*
X134293997Y-101355500D01*
X134334170Y-101355500D01*
X134319925Y-101369745D01*
X134270556Y-101455255D01*
X134245000Y-101550630D01*
X134245000Y-101649370D01*
X134270556Y-101744745D01*
X134319925Y-101830255D01*
X134339670Y-101850000D01*
X133399647Y-101850000D01*
X133409387Y-101898974D01*
X133409390Y-101898983D01*
X133486652Y-102085513D01*
X133486659Y-102085526D01*
X133598829Y-102253399D01*
X133598832Y-102253403D01*
X133741596Y-102396167D01*
X133741600Y-102396170D01*
X133909473Y-102508340D01*
X133909486Y-102508347D01*
X134096016Y-102585609D01*
X134096025Y-102585612D01*
X134294041Y-102624999D01*
X134294045Y-102625000D01*
X134370000Y-102625000D01*
X134370000Y-101880330D01*
X134389745Y-101900075D01*
X134475255Y-101949444D01*
X134570630Y-101975000D01*
X134669370Y-101975000D01*
X134764745Y-101949444D01*
X134850255Y-101900075D01*
X134870000Y-101880330D01*
X134870000Y-102625000D01*
X134945955Y-102625000D01*
X134945958Y-102624999D01*
X135143974Y-102585612D01*
X135143983Y-102585609D01*
X135330513Y-102508347D01*
X135330526Y-102508340D01*
X135498399Y-102396170D01*
X135498403Y-102396167D01*
X135641167Y-102253403D01*
X135641170Y-102253399D01*
X135753340Y-102085526D01*
X135753347Y-102085513D01*
X135830609Y-101898983D01*
X135830612Y-101898974D01*
X135840353Y-101850000D01*
X134900330Y-101850000D01*
X134920075Y-101830255D01*
X134969444Y-101744745D01*
X134995000Y-101649370D01*
X134995000Y-101550630D01*
X134969444Y-101455255D01*
X134920075Y-101369745D01*
X134905830Y-101355500D01*
X134946004Y-101355500D01*
X134961673Y-101352383D01*
X134985866Y-101350000D01*
X135857079Y-101350000D01*
X135876896Y-101336501D01*
X135915004Y-101330500D01*
X138404996Y-101330500D01*
X138471405Y-101350000D01*
X139334134Y-101350000D01*
X139358327Y-101352383D01*
X139373996Y-101355500D01*
X139373997Y-101355500D01*
X139414170Y-101355500D01*
X139399925Y-101369745D01*
X139350556Y-101455255D01*
X139325000Y-101550630D01*
X139325000Y-101649370D01*
X139350556Y-101744745D01*
X139399925Y-101830255D01*
X139419670Y-101850000D01*
X138479647Y-101850000D01*
X138489387Y-101898974D01*
X138489390Y-101898983D01*
X138566652Y-102085513D01*
X138566659Y-102085526D01*
X138678829Y-102253399D01*
X138678832Y-102253403D01*
X138821596Y-102396167D01*
X138821600Y-102396170D01*
X138989473Y-102508340D01*
X138989486Y-102508347D01*
X139176016Y-102585609D01*
X139176025Y-102585612D01*
X139374041Y-102624999D01*
X139374045Y-102625000D01*
X139450000Y-102625000D01*
X139450000Y-101880330D01*
X139469745Y-101900075D01*
X139555255Y-101949444D01*
X139650630Y-101975000D01*
X139749370Y-101975000D01*
X139844745Y-101949444D01*
X139930255Y-101900075D01*
X139950000Y-101880330D01*
X139950000Y-102625000D01*
X140025955Y-102625000D01*
X140025958Y-102624999D01*
X140223974Y-102585612D01*
X140223983Y-102585609D01*
X140410513Y-102508347D01*
X140410526Y-102508340D01*
X140578399Y-102396170D01*
X140578403Y-102396167D01*
X140721167Y-102253403D01*
X140721170Y-102253399D01*
X140833340Y-102085526D01*
X140833347Y-102085513D01*
X140910609Y-101898983D01*
X140910612Y-101898974D01*
X140920353Y-101850000D01*
X139980330Y-101850000D01*
X140000075Y-101830255D01*
X140049444Y-101744745D01*
X140075000Y-101649370D01*
X140075000Y-101550630D01*
X140049444Y-101455255D01*
X140000075Y-101369745D01*
X139985830Y-101355500D01*
X140026004Y-101355500D01*
X140026004Y-101355499D01*
X140039473Y-101352820D01*
X140041674Y-101352383D01*
X140065866Y-101350000D01*
X140920353Y-101350000D01*
X140910612Y-101301025D01*
X140910609Y-101301016D01*
X140833347Y-101114486D01*
X140833343Y-101114479D01*
X140779795Y-101034340D01*
X140758917Y-100967662D01*
X140777401Y-100900282D01*
X140779733Y-100896652D01*
X140833786Y-100815756D01*
X140911091Y-100629127D01*
X140950500Y-100431003D01*
X140950500Y-100228997D01*
X140911091Y-100030873D01*
X140877673Y-99950198D01*
X140870205Y-99880730D01*
X140889964Y-99835340D01*
X140889547Y-99835112D01*
X140892095Y-99830444D01*
X140892972Y-99828431D01*
X140893796Y-99827331D01*
X140944091Y-99692483D01*
X140950500Y-99632873D01*
X140950499Y-98487128D01*
X140944120Y-98427785D01*
X140944091Y-98427516D01*
X140893797Y-98292671D01*
X140893793Y-98292664D01*
X140807548Y-98177457D01*
X140807546Y-98177454D01*
X140807542Y-98177451D01*
X140750188Y-98134515D01*
X140708318Y-98078581D01*
X140700500Y-98035249D01*
X140700500Y-95249994D01*
X147124859Y-95249994D01*
X147124859Y-95250005D01*
X147145385Y-95497729D01*
X147145387Y-95497738D01*
X147206412Y-95738717D01*
X147306266Y-95966364D01*
X147406564Y-96119882D01*
X148147037Y-95379409D01*
X148164075Y-95442993D01*
X148229901Y-95557007D01*
X148322993Y-95650099D01*
X148437007Y-95715925D01*
X148500590Y-95732962D01*
X147759942Y-96473609D01*
X147806768Y-96510055D01*
X147806770Y-96510056D01*
X148025385Y-96628364D01*
X148025396Y-96628369D01*
X148260506Y-96709083D01*
X148505707Y-96750000D01*
X148754293Y-96750000D01*
X148999493Y-96709083D01*
X149234603Y-96628369D01*
X149234614Y-96628364D01*
X149453228Y-96510057D01*
X149453231Y-96510055D01*
X149500056Y-96473609D01*
X148759409Y-95732962D01*
X148822993Y-95715925D01*
X148937007Y-95650099D01*
X149030099Y-95557007D01*
X149095925Y-95442993D01*
X149112962Y-95379409D01*
X149853434Y-96119882D01*
X149953731Y-95966369D01*
X150053587Y-95738717D01*
X150114612Y-95497738D01*
X150114614Y-95497729D01*
X150135141Y-95250005D01*
X150135141Y-95249994D01*
X150114614Y-95002270D01*
X150114612Y-95002261D01*
X150053587Y-94761282D01*
X149953731Y-94533630D01*
X149853434Y-94380116D01*
X149112962Y-95120589D01*
X149095925Y-95057007D01*
X149030099Y-94942993D01*
X148937007Y-94849901D01*
X148822993Y-94784075D01*
X148759410Y-94767037D01*
X149500057Y-94026390D01*
X149500056Y-94026389D01*
X149453229Y-93989943D01*
X149234614Y-93871635D01*
X149234603Y-93871630D01*
X148999493Y-93790916D01*
X148754293Y-93750000D01*
X148505707Y-93750000D01*
X148260506Y-93790916D01*
X148025396Y-93871630D01*
X148025390Y-93871632D01*
X147806761Y-93989949D01*
X147759942Y-94026388D01*
X147759942Y-94026390D01*
X148500590Y-94767037D01*
X148437007Y-94784075D01*
X148322993Y-94849901D01*
X148229901Y-94942993D01*
X148164075Y-95057007D01*
X148147037Y-95120589D01*
X147406564Y-94380116D01*
X147306267Y-94533632D01*
X147206412Y-94761282D01*
X147145387Y-95002261D01*
X147145385Y-95002270D01*
X147124859Y-95249994D01*
X140700500Y-95249994D01*
X140700500Y-88801456D01*
X140700499Y-88801454D01*
X140689390Y-88745606D01*
X140662051Y-88608165D01*
X140655376Y-88592051D01*
X140641875Y-88559457D01*
X140624137Y-88516632D01*
X140586635Y-88426093D01*
X140586634Y-88426092D01*
X140586632Y-88426086D01*
X140505978Y-88305378D01*
X140477139Y-88262217D01*
X140334686Y-88119764D01*
X140334655Y-88119735D01*
X140267055Y-88052135D01*
X142209500Y-88052135D01*
X142209500Y-89747870D01*
X142209501Y-89747876D01*
X142215908Y-89807483D01*
X142266202Y-89942328D01*
X142266206Y-89942335D01*
X142352452Y-90057544D01*
X142352455Y-90057547D01*
X142467664Y-90143793D01*
X142467671Y-90143797D01*
X142602517Y-90194091D01*
X142602516Y-90194091D01*
X142609444Y-90194835D01*
X142662127Y-90200500D01*
X144357872Y-90200499D01*
X144417483Y-90194091D01*
X144552331Y-90143796D01*
X144667546Y-90057546D01*
X144753796Y-89942331D01*
X144804091Y-89807483D01*
X144810500Y-89747873D01*
X144810499Y-89747845D01*
X144810678Y-89744547D01*
X144812183Y-89744627D01*
X144830112Y-89683326D01*
X144882868Y-89637514D01*
X144926465Y-89629981D01*
X145610000Y-88946446D01*
X145610000Y-88952661D01*
X145637259Y-89054394D01*
X145689920Y-89145606D01*
X145764394Y-89220080D01*
X145855606Y-89272741D01*
X145957339Y-89300000D01*
X145963553Y-89300000D01*
X145284526Y-89979025D01*
X145357513Y-90030132D01*
X145357521Y-90030136D01*
X145563668Y-90126264D01*
X145563682Y-90126269D01*
X145783389Y-90185139D01*
X145783400Y-90185141D01*
X146009998Y-90204966D01*
X146010002Y-90204966D01*
X146236599Y-90185141D01*
X146236610Y-90185139D01*
X146456317Y-90126269D01*
X146456331Y-90126264D01*
X146662478Y-90030136D01*
X146735471Y-89979024D01*
X146056447Y-89300000D01*
X146062661Y-89300000D01*
X146164394Y-89272741D01*
X146255606Y-89220080D01*
X146330080Y-89145606D01*
X146382741Y-89054394D01*
X146410000Y-88952661D01*
X146410000Y-88946447D01*
X147089024Y-89625471D01*
X147140136Y-89552478D01*
X147236264Y-89346331D01*
X147236269Y-89346317D01*
X147295139Y-89126610D01*
X147295141Y-89126599D01*
X147314966Y-88900002D01*
X147314966Y-88899997D01*
X147295141Y-88673400D01*
X147295139Y-88673389D01*
X147236269Y-88453682D01*
X147236264Y-88453668D01*
X147140136Y-88247521D01*
X147140132Y-88247513D01*
X147089025Y-88174526D01*
X146410000Y-88853551D01*
X146410000Y-88847339D01*
X146382741Y-88745606D01*
X146330080Y-88654394D01*
X146255606Y-88579920D01*
X146164394Y-88527259D01*
X146062661Y-88500000D01*
X146056448Y-88500000D01*
X146735472Y-87820974D01*
X146662478Y-87769863D01*
X146456331Y-87673735D01*
X146456317Y-87673730D01*
X146236610Y-87614860D01*
X146236599Y-87614858D01*
X146010002Y-87595034D01*
X146009998Y-87595034D01*
X145783400Y-87614858D01*
X145783389Y-87614860D01*
X145563682Y-87673730D01*
X145563673Y-87673734D01*
X145357516Y-87769866D01*
X145357512Y-87769868D01*
X145284526Y-87820973D01*
X145284526Y-87820974D01*
X145963553Y-88500000D01*
X145957339Y-88500000D01*
X145855606Y-88527259D01*
X145764394Y-88579920D01*
X145689920Y-88654394D01*
X145637259Y-88745606D01*
X145610000Y-88847339D01*
X145610000Y-88853552D01*
X144925799Y-88169351D01*
X144876805Y-88159505D01*
X144826622Y-88110889D01*
X144811981Y-88055366D01*
X144810900Y-88055423D01*
X144810854Y-88055429D01*
X144810853Y-88055426D01*
X144810676Y-88055436D01*
X144810499Y-88052135D01*
X144810499Y-88052128D01*
X144804091Y-87992517D01*
X144790620Y-87956400D01*
X144753797Y-87857671D01*
X144753793Y-87857664D01*
X144667547Y-87742455D01*
X144667544Y-87742452D01*
X144552335Y-87656206D01*
X144552328Y-87656202D01*
X144417482Y-87605908D01*
X144417483Y-87605908D01*
X144357883Y-87599501D01*
X144357881Y-87599500D01*
X144357873Y-87599500D01*
X144357864Y-87599500D01*
X142662129Y-87599500D01*
X142662123Y-87599501D01*
X142602516Y-87605908D01*
X142467671Y-87656202D01*
X142467664Y-87656206D01*
X142352455Y-87742452D01*
X142352452Y-87742455D01*
X142266206Y-87857664D01*
X142266202Y-87857671D01*
X142215908Y-87992517D01*
X142209501Y-88052116D01*
X142209501Y-88052123D01*
X142209500Y-88052135D01*
X140267055Y-88052135D01*
X137304918Y-85089998D01*
X148554532Y-85089998D01*
X148554532Y-85090001D01*
X148574364Y-85316686D01*
X148574366Y-85316697D01*
X148633258Y-85536488D01*
X148633261Y-85536497D01*
X148729431Y-85742732D01*
X148729432Y-85742734D01*
X148859954Y-85929141D01*
X149020858Y-86090045D01*
X149020861Y-86090047D01*
X149207266Y-86220568D01*
X149413504Y-86316739D01*
X149413509Y-86316740D01*
X149413511Y-86316741D01*
X149463308Y-86330084D01*
X149633308Y-86375635D01*
X149795230Y-86389801D01*
X149859998Y-86395468D01*
X149860000Y-86395468D01*
X149860002Y-86395468D01*
X149916673Y-86390509D01*
X150086692Y-86375635D01*
X150306496Y-86316739D01*
X150512734Y-86220568D01*
X150699139Y-86090047D01*
X150860047Y-85929139D01*
X150990568Y-85742734D01*
X151086739Y-85536496D01*
X151145635Y-85316692D01*
X151165468Y-85090000D01*
X151145635Y-84863308D01*
X151086739Y-84643504D01*
X150990568Y-84437266D01*
X150860047Y-84250861D01*
X150860045Y-84250858D01*
X150699141Y-84089954D01*
X150512734Y-83959432D01*
X150512732Y-83959431D01*
X150306497Y-83863261D01*
X150306488Y-83863258D01*
X150086697Y-83804366D01*
X150086693Y-83804365D01*
X150086692Y-83804365D01*
X150086691Y-83804364D01*
X150086686Y-83804364D01*
X149860002Y-83784532D01*
X149859998Y-83784532D01*
X149633313Y-83804364D01*
X149633302Y-83804366D01*
X149413511Y-83863258D01*
X149413502Y-83863261D01*
X149207267Y-83959431D01*
X149207265Y-83959432D01*
X149020858Y-84089954D01*
X148859954Y-84250858D01*
X148729432Y-84437265D01*
X148729431Y-84437267D01*
X148633261Y-84643502D01*
X148633258Y-84643511D01*
X148574366Y-84863302D01*
X148574364Y-84863313D01*
X148554532Y-85089998D01*
X137304918Y-85089998D01*
X135881351Y-83666431D01*
X135847866Y-83605108D01*
X135847429Y-83603014D01*
X135831091Y-83520873D01*
X135771298Y-83376523D01*
X135753787Y-83334246D01*
X135753786Y-83334244D01*
X135700094Y-83253889D01*
X135679217Y-83187214D01*
X135697701Y-83119834D01*
X135700078Y-83116134D01*
X135753786Y-83035756D01*
X135831091Y-82849127D01*
X135870500Y-82651003D01*
X135870500Y-82448997D01*
X135866461Y-82428691D01*
X135872688Y-82359101D01*
X135915550Y-82303923D01*
X135981439Y-82280678D01*
X135988078Y-82280500D01*
X139797145Y-82280500D01*
X139864184Y-82300185D01*
X139888374Y-82320517D01*
X139950252Y-82387734D01*
X139950256Y-82387738D01*
X140146491Y-82540474D01*
X140146493Y-82540475D01*
X140364332Y-82658364D01*
X140365190Y-82658828D01*
X140584141Y-82733994D01*
X140598964Y-82739083D01*
X140600386Y-82739571D01*
X140845665Y-82780500D01*
X141094335Y-82780500D01*
X141339614Y-82739571D01*
X141574810Y-82658828D01*
X141793509Y-82540474D01*
X141989744Y-82387738D01*
X142158164Y-82204785D01*
X142294173Y-81996607D01*
X142394063Y-81768881D01*
X142455108Y-81527821D01*
X142466518Y-81390121D01*
X142475643Y-81280004D01*
X142475643Y-81279995D01*
X142473447Y-81253498D01*
X142487527Y-81185062D01*
X142509338Y-81155580D01*
X143048101Y-80616819D01*
X143109424Y-80583334D01*
X143135782Y-80580500D01*
X144449074Y-80580500D01*
X144516113Y-80600185D01*
X144561868Y-80652989D01*
X144571812Y-80722147D01*
X144562630Y-80754311D01*
X144546411Y-80791285D01*
X144485387Y-81032261D01*
X144485385Y-81032270D01*
X144464859Y-81279994D01*
X144464859Y-81280005D01*
X144485385Y-81527729D01*
X144485387Y-81527738D01*
X144546412Y-81768717D01*
X144646266Y-81996364D01*
X144746564Y-82149882D01*
X145487037Y-81409408D01*
X145504075Y-81472993D01*
X145569901Y-81587007D01*
X145662993Y-81680099D01*
X145777007Y-81745925D01*
X145840590Y-81762962D01*
X145099942Y-82503609D01*
X145146768Y-82540055D01*
X145146770Y-82540056D01*
X145365385Y-82658364D01*
X145365396Y-82658369D01*
X145600506Y-82739083D01*
X145845707Y-82780000D01*
X146094293Y-82780000D01*
X146339493Y-82739083D01*
X146574603Y-82658369D01*
X146574614Y-82658364D01*
X146793228Y-82540057D01*
X146793231Y-82540055D01*
X146840056Y-82503609D01*
X146099409Y-81762962D01*
X146162993Y-81745925D01*
X146277007Y-81680099D01*
X146370099Y-81587007D01*
X146435925Y-81472993D01*
X146452962Y-81409410D01*
X147193434Y-82149882D01*
X147293731Y-81996369D01*
X147393587Y-81768717D01*
X147454612Y-81527738D01*
X147454614Y-81527729D01*
X147475141Y-81280005D01*
X147475141Y-81279994D01*
X147454614Y-81032270D01*
X147454612Y-81032261D01*
X147393588Y-80791285D01*
X147377370Y-80754311D01*
X147368467Y-80685011D01*
X147398444Y-80621898D01*
X147457783Y-80585011D01*
X147490926Y-80580500D01*
X147694218Y-80580500D01*
X147761257Y-80600185D01*
X147781899Y-80616819D01*
X147809735Y-80644655D01*
X147809764Y-80644686D01*
X147952214Y-80787136D01*
X147952218Y-80787139D01*
X148116079Y-80896628D01*
X148116092Y-80896635D01*
X148244833Y-80949961D01*
X148275374Y-80962611D01*
X148298164Y-80972051D01*
X148394812Y-80991275D01*
X148443135Y-81000887D01*
X148491458Y-81010500D01*
X148491459Y-81010500D01*
X148491460Y-81010500D01*
X148688540Y-81010500D01*
X148982412Y-81010500D01*
X149049451Y-81030185D01*
X149053523Y-81032917D01*
X149207266Y-81140568D01*
X149413504Y-81236739D01*
X149633308Y-81295635D01*
X149795230Y-81309801D01*
X149859998Y-81315468D01*
X149860000Y-81315468D01*
X149860002Y-81315468D01*
X149916673Y-81310509D01*
X150086692Y-81295635D01*
X150306496Y-81236739D01*
X150512734Y-81140568D01*
X150699139Y-81010047D01*
X150860047Y-80849139D01*
X150990568Y-80662734D01*
X151086739Y-80456496D01*
X151145635Y-80236692D01*
X151165468Y-80010000D01*
X151163260Y-79984768D01*
X151145635Y-79783309D01*
X151145635Y-79783308D01*
X151086739Y-79563504D01*
X150990568Y-79357266D01*
X150860047Y-79170861D01*
X150860045Y-79170858D01*
X150699141Y-79009954D01*
X150512734Y-78879432D01*
X150512732Y-78879431D01*
X150306497Y-78783261D01*
X150306488Y-78783258D01*
X150086697Y-78724366D01*
X150086693Y-78724365D01*
X150086692Y-78724365D01*
X150086691Y-78724364D01*
X150086686Y-78724364D01*
X150014260Y-78718028D01*
X149949191Y-78692576D01*
X149908212Y-78635985D01*
X149904334Y-78566223D01*
X149938788Y-78505439D01*
X150000635Y-78472931D01*
X150025067Y-78470500D01*
X151934218Y-78470500D01*
X152001257Y-78490185D01*
G37*
%TD.AperFunction*%
%TA.AperFunction,Conductor*%
G36*
X125698961Y-68330185D02*
G01*
X125744716Y-68382989D01*
X125754660Y-68452147D01*
X125753539Y-68458693D01*
X125749500Y-68478996D01*
X125749500Y-68681003D01*
X125753539Y-68701307D01*
X125747312Y-68770899D01*
X125704450Y-68826077D01*
X125638561Y-68849322D01*
X125631922Y-68849500D01*
X125631454Y-68849500D01*
X125599391Y-68855876D01*
X125599392Y-68855877D01*
X125438170Y-68887946D01*
X125438164Y-68887948D01*
X125256088Y-68963366D01*
X125256079Y-68963371D01*
X125092219Y-69072859D01*
X125092215Y-69072862D01*
X121831966Y-72333111D01*
X121770643Y-72366596D01*
X121755095Y-72368958D01*
X121693307Y-72374365D01*
X121473511Y-72433258D01*
X121473502Y-72433261D01*
X121267267Y-72529431D01*
X121267265Y-72529432D01*
X121080858Y-72659954D01*
X120919954Y-72820858D01*
X120789432Y-73007265D01*
X120789431Y-73007267D01*
X120693261Y-73213502D01*
X120693258Y-73213511D01*
X120634366Y-73433302D01*
X120634364Y-73433313D01*
X120614532Y-73659998D01*
X120614532Y-73660001D01*
X120634364Y-73886686D01*
X120634366Y-73886697D01*
X120693258Y-74106488D01*
X120693261Y-74106497D01*
X120789431Y-74312732D01*
X120789432Y-74312734D01*
X120919954Y-74499141D01*
X121080858Y-74660045D01*
X121080861Y-74660047D01*
X121267266Y-74790568D01*
X121473504Y-74886739D01*
X121693308Y-74945635D01*
X121763374Y-74951765D01*
X121765740Y-74951972D01*
X121830809Y-74977424D01*
X121871788Y-75034015D01*
X121875666Y-75103777D01*
X121841212Y-75164561D01*
X121779365Y-75197069D01*
X121754933Y-75199500D01*
X118011457Y-75199500D01*
X117818170Y-75237947D01*
X117818160Y-75237950D01*
X117636092Y-75313364D01*
X117636079Y-75313371D01*
X117472218Y-75422860D01*
X117472214Y-75422863D01*
X117332863Y-75562214D01*
X117332860Y-75562218D01*
X117223371Y-75726079D01*
X117223364Y-75726092D01*
X117147950Y-75908160D01*
X117147947Y-75908170D01*
X117109500Y-76101456D01*
X117109500Y-78144157D01*
X117096501Y-78199427D01*
X117034750Y-78323442D01*
X116976514Y-78528115D01*
X116963471Y-78668881D01*
X116937685Y-78733819D01*
X116930616Y-78738882D01*
X116961693Y-78798751D01*
X116963471Y-78811118D01*
X116976514Y-78951884D01*
X117034750Y-79156559D01*
X117034750Y-79156560D01*
X117129596Y-79347037D01*
X117257836Y-79516852D01*
X117415090Y-79660208D01*
X117415092Y-79660210D01*
X117596007Y-79772228D01*
X117596013Y-79772231D01*
X117614777Y-79779500D01*
X117794434Y-79849099D01*
X118003604Y-79888200D01*
X118003606Y-79888200D01*
X118216394Y-79888200D01*
X118216396Y-79888200D01*
X118425566Y-79849099D01*
X118623989Y-79772230D01*
X118804909Y-79660209D01*
X118962165Y-79516851D01*
X119090402Y-79347039D01*
X119147255Y-79232862D01*
X119185249Y-79156560D01*
X119185249Y-79156559D01*
X119185248Y-79156559D01*
X119185251Y-79156555D01*
X119243485Y-78951885D01*
X119256529Y-78811118D01*
X119282315Y-78746181D01*
X119289384Y-78741117D01*
X119288224Y-78738882D01*
X119470616Y-78738882D01*
X119501693Y-78798751D01*
X119503471Y-78811118D01*
X119516514Y-78951884D01*
X119574750Y-79156559D01*
X119574750Y-79156560D01*
X119669596Y-79347037D01*
X119797836Y-79516852D01*
X119955090Y-79660208D01*
X119955092Y-79660210D01*
X120136007Y-79772228D01*
X120136013Y-79772231D01*
X120154777Y-79779500D01*
X120334434Y-79849099D01*
X120543604Y-79888200D01*
X120543606Y-79888200D01*
X120756394Y-79888200D01*
X120756396Y-79888200D01*
X120965566Y-79849099D01*
X121163989Y-79772230D01*
X121344909Y-79660209D01*
X121502165Y-79516851D01*
X121630402Y-79347039D01*
X121687255Y-79232862D01*
X121725249Y-79156560D01*
X121725249Y-79156559D01*
X121725248Y-79156559D01*
X121725251Y-79156555D01*
X121783485Y-78951885D01*
X121796529Y-78811118D01*
X121822315Y-78746181D01*
X121829384Y-78741117D01*
X121828224Y-78738882D01*
X122010616Y-78738882D01*
X122041693Y-78798751D01*
X122043471Y-78811118D01*
X122056514Y-78951884D01*
X122114750Y-79156559D01*
X122114750Y-79156560D01*
X122209596Y-79347037D01*
X122337836Y-79516852D01*
X122495090Y-79660208D01*
X122495092Y-79660210D01*
X122676007Y-79772228D01*
X122676013Y-79772231D01*
X122694777Y-79779500D01*
X122874434Y-79849099D01*
X123083604Y-79888200D01*
X123083606Y-79888200D01*
X123296394Y-79888200D01*
X123296396Y-79888200D01*
X123505566Y-79849099D01*
X123703989Y-79772230D01*
X123884909Y-79660209D01*
X124042165Y-79516851D01*
X124170402Y-79347039D01*
X124227255Y-79232862D01*
X124265249Y-79156560D01*
X124265249Y-79156559D01*
X124265248Y-79156559D01*
X124265251Y-79156555D01*
X124323485Y-78951885D01*
X124336529Y-78811118D01*
X124362315Y-78746181D01*
X124369384Y-78741117D01*
X124368224Y-78738882D01*
X124550616Y-78738882D01*
X124581693Y-78798751D01*
X124583471Y-78811118D01*
X124596514Y-78951884D01*
X124654750Y-79156559D01*
X124654750Y-79156560D01*
X124749596Y-79347037D01*
X124877836Y-79516852D01*
X125035090Y-79660208D01*
X125035092Y-79660210D01*
X125216007Y-79772228D01*
X125216013Y-79772231D01*
X125234777Y-79779500D01*
X125414434Y-79849099D01*
X125623604Y-79888200D01*
X125623606Y-79888200D01*
X125836394Y-79888200D01*
X125836396Y-79888200D01*
X126045566Y-79849099D01*
X126243989Y-79772230D01*
X126424909Y-79660209D01*
X126582165Y-79516851D01*
X126710402Y-79347039D01*
X126767255Y-79232862D01*
X126805249Y-79156560D01*
X126805249Y-79156559D01*
X126805248Y-79156559D01*
X126805251Y-79156555D01*
X126863485Y-78951885D01*
X126883119Y-78740000D01*
X126867798Y-78574665D01*
X126863485Y-78528115D01*
X126847092Y-78470500D01*
X126805251Y-78323445D01*
X126805249Y-78323440D01*
X126805249Y-78323439D01*
X126710403Y-78132962D01*
X126589330Y-77972637D01*
X126582165Y-77963149D01*
X126424909Y-77819791D01*
X126424907Y-77819789D01*
X126243992Y-77707771D01*
X126243986Y-77707768D01*
X126087603Y-77647186D01*
X126045566Y-77630901D01*
X125836396Y-77591800D01*
X125623604Y-77591800D01*
X125414434Y-77630901D01*
X125414431Y-77630901D01*
X125414431Y-77630902D01*
X125216013Y-77707768D01*
X125216007Y-77707771D01*
X125035092Y-77819789D01*
X125035090Y-77819791D01*
X124877836Y-77963147D01*
X124749596Y-78132962D01*
X124654750Y-78323439D01*
X124654750Y-78323440D01*
X124596514Y-78528115D01*
X124583471Y-78668881D01*
X124557685Y-78733819D01*
X124550616Y-78738882D01*
X124368224Y-78738882D01*
X124338307Y-78681248D01*
X124336529Y-78668881D01*
X124323485Y-78528115D01*
X124307092Y-78470500D01*
X124265251Y-78323445D01*
X124265249Y-78323440D01*
X124265249Y-78323439D01*
X124170403Y-78132962D01*
X124049330Y-77972637D01*
X124042165Y-77963149D01*
X123884909Y-77819791D01*
X123884907Y-77819789D01*
X123703992Y-77707771D01*
X123703986Y-77707768D01*
X123547603Y-77647186D01*
X123505566Y-77630901D01*
X123296396Y-77591800D01*
X123083604Y-77591800D01*
X122874434Y-77630901D01*
X122874431Y-77630901D01*
X122874431Y-77630902D01*
X122676013Y-77707768D01*
X122676007Y-77707771D01*
X122495092Y-77819789D01*
X122495090Y-77819791D01*
X122337836Y-77963147D01*
X122209596Y-78132962D01*
X122114750Y-78323439D01*
X122114750Y-78323440D01*
X122056514Y-78528115D01*
X122043471Y-78668881D01*
X122017685Y-78733819D01*
X122010616Y-78738882D01*
X121828224Y-78738882D01*
X121798307Y-78681248D01*
X121796529Y-78668881D01*
X121783485Y-78528115D01*
X121767092Y-78470500D01*
X121725251Y-78323445D01*
X121725249Y-78323440D01*
X121725249Y-78323439D01*
X121630403Y-78132962D01*
X121509330Y-77972637D01*
X121502165Y-77963149D01*
X121344909Y-77819791D01*
X121344907Y-77819789D01*
X121163992Y-77707771D01*
X121163986Y-77707768D01*
X121007603Y-77647186D01*
X120965566Y-77630901D01*
X120756396Y-77591800D01*
X120543604Y-77591800D01*
X120334434Y-77630901D01*
X120334431Y-77630901D01*
X120334431Y-77630902D01*
X120136013Y-77707768D01*
X120136007Y-77707771D01*
X119955092Y-77819789D01*
X119955090Y-77819791D01*
X119797836Y-77963147D01*
X119669596Y-78132962D01*
X119574750Y-78323439D01*
X119574750Y-78323440D01*
X119516514Y-78528115D01*
X119503471Y-78668881D01*
X119477685Y-78733819D01*
X119470616Y-78738882D01*
X119288224Y-78738882D01*
X119258307Y-78681248D01*
X119256529Y-78668881D01*
X119243485Y-78528115D01*
X119185251Y-78323445D01*
X119147254Y-78247136D01*
X119123499Y-78199427D01*
X119110500Y-78144157D01*
X119110500Y-77324500D01*
X119130185Y-77257461D01*
X119182989Y-77211706D01*
X119234500Y-77200500D01*
X123807412Y-77200500D01*
X123874451Y-77220185D01*
X123878523Y-77222917D01*
X124032266Y-77330568D01*
X124238504Y-77426739D01*
X124458308Y-77485635D01*
X124620230Y-77499801D01*
X124684998Y-77505468D01*
X124685000Y-77505468D01*
X124685002Y-77505468D01*
X124741673Y-77500509D01*
X124911692Y-77485635D01*
X125131496Y-77426739D01*
X125337734Y-77330568D01*
X125524139Y-77200047D01*
X125685047Y-77039139D01*
X125815568Y-76852734D01*
X125911739Y-76646496D01*
X125970635Y-76426692D01*
X125990468Y-76200000D01*
X125970635Y-75973308D01*
X125911739Y-75753504D01*
X125815568Y-75547266D01*
X125685047Y-75360861D01*
X125685045Y-75360858D01*
X125524141Y-75199954D01*
X125337734Y-75069432D01*
X125337732Y-75069431D01*
X125131497Y-74973261D01*
X125131488Y-74973258D01*
X124911697Y-74914366D01*
X124911693Y-74914365D01*
X124911692Y-74914365D01*
X124911691Y-74914364D01*
X124911686Y-74914364D01*
X124685002Y-74894532D01*
X124684998Y-74894532D01*
X124458313Y-74914364D01*
X124458302Y-74914366D01*
X124238511Y-74973258D01*
X124238502Y-74973261D01*
X124032267Y-75069431D01*
X124032265Y-75069432D01*
X123878535Y-75177075D01*
X123812329Y-75199402D01*
X123807412Y-75199500D01*
X122085067Y-75199500D01*
X122018028Y-75179815D01*
X121972273Y-75127011D01*
X121962329Y-75057853D01*
X121991354Y-74994297D01*
X122050132Y-74956523D01*
X122074260Y-74951972D01*
X122076241Y-74951798D01*
X122146692Y-74945635D01*
X122366496Y-74886739D01*
X122572734Y-74790568D01*
X122759139Y-74660047D01*
X122920047Y-74499139D01*
X123050568Y-74312734D01*
X123146739Y-74106496D01*
X123205635Y-73886692D01*
X123211040Y-73824905D01*
X123236492Y-73759838D01*
X123246879Y-73748040D01*
X126085500Y-70909419D01*
X126146821Y-70875936D01*
X126186429Y-70873812D01*
X126202127Y-70875500D01*
X127797872Y-70875499D01*
X127857483Y-70869091D01*
X127992331Y-70818796D01*
X128107546Y-70732546D01*
X128193796Y-70617331D01*
X128244091Y-70482483D01*
X128250500Y-70422873D01*
X128250499Y-69704499D01*
X128270183Y-69637461D01*
X128322987Y-69591706D01*
X128374499Y-69580500D01*
X130705500Y-69580500D01*
X130772539Y-69600185D01*
X130818294Y-69652989D01*
X130829500Y-69704500D01*
X130829500Y-70422870D01*
X130829501Y-70422876D01*
X130835908Y-70482483D01*
X130886202Y-70617328D01*
X130886203Y-70617329D01*
X130886204Y-70617331D01*
X130972452Y-70732543D01*
X130972455Y-70732547D01*
X130977907Y-70736628D01*
X131028945Y-70774835D01*
X131029810Y-70775482D01*
X131071682Y-70831415D01*
X131079500Y-70874749D01*
X131079500Y-75416670D01*
X131059815Y-75483709D01*
X131007011Y-75529464D01*
X130937853Y-75539408D01*
X130874297Y-75510383D01*
X130853925Y-75487793D01*
X130765045Y-75360858D01*
X130604141Y-75199954D01*
X130417734Y-75069432D01*
X130417732Y-75069431D01*
X130211497Y-74973261D01*
X130211488Y-74973258D01*
X129991697Y-74914366D01*
X129991693Y-74914365D01*
X129991692Y-74914365D01*
X129991691Y-74914364D01*
X129991686Y-74914364D01*
X129765002Y-74894532D01*
X129764998Y-74894532D01*
X129538313Y-74914364D01*
X129538302Y-74914366D01*
X129318511Y-74973258D01*
X129318502Y-74973261D01*
X129112267Y-75069431D01*
X129112265Y-75069432D01*
X128925858Y-75199954D01*
X128764954Y-75360858D01*
X128634432Y-75547265D01*
X128634431Y-75547267D01*
X128538261Y-75753502D01*
X128538258Y-75753511D01*
X128479366Y-75973302D01*
X128479364Y-75973313D01*
X128459532Y-76199998D01*
X128459532Y-76200001D01*
X128479364Y-76426686D01*
X128479366Y-76426697D01*
X128538258Y-76646488D01*
X128538261Y-76646497D01*
X128634431Y-76852732D01*
X128634432Y-76852734D01*
X128764954Y-77039141D01*
X128925858Y-77200045D01*
X128925861Y-77200047D01*
X129112266Y-77330568D01*
X129318504Y-77426739D01*
X129538308Y-77485635D01*
X129700230Y-77499801D01*
X129764998Y-77505468D01*
X129765000Y-77505468D01*
X129765002Y-77505468D01*
X129821673Y-77500509D01*
X129991692Y-77485635D01*
X130211496Y-77426739D01*
X130417734Y-77330568D01*
X130604139Y-77200047D01*
X130765047Y-77039139D01*
X130853927Y-76912203D01*
X130908501Y-76868581D01*
X130977999Y-76861387D01*
X131040354Y-76892909D01*
X131075769Y-76953139D01*
X131079500Y-76983329D01*
X131079500Y-78274217D01*
X131059815Y-78341256D01*
X131043181Y-78361898D01*
X128902220Y-80502859D01*
X128902218Y-80502861D01*
X128832538Y-80572540D01*
X128762859Y-80642219D01*
X128653371Y-80806080D01*
X128653366Y-80806089D01*
X128615863Y-80896632D01*
X128577949Y-80988163D01*
X128577947Y-80988171D01*
X128568533Y-81035499D01*
X128539500Y-81181455D01*
X128539500Y-88725218D01*
X128519815Y-88792257D01*
X128467011Y-88838012D01*
X128397853Y-88847956D01*
X128334297Y-88818931D01*
X128327819Y-88812899D01*
X127784209Y-88269289D01*
X127784206Y-88269285D01*
X127784206Y-88269286D01*
X127777139Y-88262219D01*
X127777139Y-88262218D01*
X127637782Y-88122861D01*
X127637781Y-88122860D01*
X127637780Y-88122859D01*
X127473920Y-88013371D01*
X127473911Y-88013366D01*
X127401315Y-87983296D01*
X127345165Y-87960038D01*
X127291836Y-87937949D01*
X127291832Y-87937948D01*
X127291828Y-87937946D01*
X127195188Y-87918724D01*
X127098544Y-87899500D01*
X127098541Y-87899500D01*
X124361459Y-87899500D01*
X124361455Y-87899500D01*
X124264812Y-87918724D01*
X124168167Y-87937947D01*
X124168161Y-87937949D01*
X124114834Y-87960037D01*
X124114834Y-87960038D01*
X124069315Y-87978892D01*
X123986089Y-88013366D01*
X123986079Y-88013371D01*
X123822219Y-88122859D01*
X123785574Y-88159505D01*
X123682861Y-88262218D01*
X123682858Y-88262221D01*
X122552221Y-89392858D01*
X122552218Y-89392861D01*
X122482538Y-89462540D01*
X122412859Y-89532219D01*
X122303371Y-89696080D01*
X122303364Y-89696093D01*
X122265863Y-89786632D01*
X122234625Y-89862048D01*
X122234624Y-89862052D01*
X122227948Y-89878167D01*
X122227947Y-89878171D01*
X122189500Y-90071454D01*
X122189500Y-96665500D01*
X122169815Y-96732539D01*
X122117011Y-96778294D01*
X122065500Y-96789500D01*
X119980516Y-96789500D01*
X119915239Y-96770927D01*
X119893994Y-96757773D01*
X119893991Y-96757771D01*
X119893989Y-96757770D01*
X119893988Y-96757769D01*
X119893987Y-96757769D01*
X119769570Y-96709570D01*
X119695566Y-96680901D01*
X119486868Y-96641888D01*
X119424589Y-96610221D01*
X119389316Y-96549908D01*
X119392250Y-96480100D01*
X119432459Y-96422960D01*
X119486868Y-96398111D01*
X119695566Y-96359099D01*
X119893989Y-96282230D01*
X120074909Y-96170209D01*
X120232165Y-96026851D01*
X120360402Y-95857039D01*
X120413701Y-95750000D01*
X120455249Y-95666560D01*
X120455249Y-95666559D01*
X120455248Y-95666559D01*
X120455251Y-95666555D01*
X120513485Y-95461885D01*
X120533119Y-95250000D01*
X120533118Y-95249994D01*
X120513485Y-95038115D01*
X120506736Y-95014394D01*
X120455251Y-94833445D01*
X120455249Y-94833440D01*
X120455249Y-94833439D01*
X120360403Y-94642962D01*
X120232163Y-94473147D01*
X120074909Y-94329791D01*
X120074907Y-94329789D01*
X119893992Y-94217771D01*
X119893986Y-94217768D01*
X119699079Y-94142262D01*
X119695566Y-94140901D01*
X119498634Y-94104087D01*
X119436354Y-94072419D01*
X119401081Y-94012107D01*
X119404015Y-93942299D01*
X119444224Y-93885159D01*
X119508942Y-93858828D01*
X119521412Y-93858199D01*
X120075572Y-93858199D01*
X120135183Y-93851791D01*
X120270031Y-93801496D01*
X120385246Y-93715246D01*
X120471496Y-93600031D01*
X120521791Y-93465183D01*
X120528200Y-93405573D01*
X120528199Y-92014428D01*
X120521791Y-91954817D01*
X120513709Y-91933149D01*
X120471497Y-91819971D01*
X120471496Y-91819970D01*
X120471496Y-91819969D01*
X120405233Y-91731453D01*
X120380816Y-91665989D01*
X120380500Y-91657142D01*
X120380500Y-90635782D01*
X120400185Y-90568743D01*
X120416819Y-90548101D01*
X121933875Y-89031045D01*
X123471163Y-87493756D01*
X123514046Y-87465813D01*
X123703989Y-87392230D01*
X123884909Y-87280209D01*
X124042165Y-87136851D01*
X124170402Y-86967039D01*
X124170533Y-86966775D01*
X124265249Y-86776560D01*
X124265249Y-86776559D01*
X124265248Y-86776559D01*
X124265251Y-86776555D01*
X124323485Y-86571885D01*
X124336780Y-86428407D01*
X124362565Y-86363473D01*
X124367243Y-86360121D01*
X124552915Y-86360121D01*
X124581943Y-86416042D01*
X124583721Y-86428409D01*
X124597008Y-86571793D01*
X124655217Y-86776372D01*
X124750025Y-86966775D01*
X124758477Y-86977968D01*
X125336300Y-86400145D01*
X125336300Y-86411832D01*
X125363130Y-86511962D01*
X125414962Y-86601737D01*
X125488263Y-86675038D01*
X125578038Y-86726870D01*
X125678168Y-86753700D01*
X125689853Y-86753700D01*
X125114662Y-87328889D01*
X125216235Y-87391780D01*
X125216236Y-87391781D01*
X125414563Y-87468613D01*
X125414573Y-87468616D01*
X125623653Y-87507700D01*
X125836347Y-87507700D01*
X126045426Y-87468616D01*
X126045436Y-87468613D01*
X126243765Y-87391780D01*
X126243767Y-87391779D01*
X126345336Y-87328889D01*
X125770148Y-86753700D01*
X125781832Y-86753700D01*
X125881962Y-86726870D01*
X125971737Y-86675038D01*
X126045038Y-86601737D01*
X126096870Y-86511962D01*
X126123700Y-86411832D01*
X126123700Y-86400146D01*
X126701521Y-86977967D01*
X126709974Y-86966775D01*
X126804782Y-86776372D01*
X126862991Y-86571793D01*
X126882617Y-86360000D01*
X126882617Y-86359999D01*
X126862991Y-86148206D01*
X126804781Y-85943623D01*
X126804781Y-85943621D01*
X126709976Y-85753226D01*
X126709975Y-85753224D01*
X126701522Y-85742031D01*
X126701521Y-85742031D01*
X126123700Y-86319852D01*
X126123700Y-86308168D01*
X126096870Y-86208038D01*
X126045038Y-86118263D01*
X125971737Y-86044962D01*
X125881962Y-85993130D01*
X125781832Y-85966300D01*
X125770147Y-85966300D01*
X126345336Y-85391109D01*
X126345335Y-85391108D01*
X126243769Y-85328221D01*
X126243763Y-85328218D01*
X126045427Y-85251383D01*
X125836347Y-85212300D01*
X125623653Y-85212300D01*
X125414573Y-85251383D01*
X125414572Y-85251383D01*
X125216237Y-85328218D01*
X125114662Y-85391109D01*
X125689854Y-85966300D01*
X125678168Y-85966300D01*
X125578038Y-85993130D01*
X125488263Y-86044962D01*
X125414962Y-86118263D01*
X125363130Y-86208038D01*
X125336300Y-86308168D01*
X125336300Y-86319853D01*
X124758477Y-85742031D01*
X124758476Y-85742031D01*
X124750025Y-85753224D01*
X124750023Y-85753228D01*
X124655218Y-85943621D01*
X124655218Y-85943623D01*
X124597008Y-86148206D01*
X124583721Y-86291590D01*
X124557934Y-86356527D01*
X124552915Y-86360121D01*
X124367243Y-86360121D01*
X124367585Y-86359876D01*
X124338557Y-86303955D01*
X124336781Y-86291604D01*
X124323485Y-86148115D01*
X124265251Y-85943445D01*
X124265249Y-85943440D01*
X124265249Y-85943439D01*
X124170403Y-85752962D01*
X124103535Y-85664416D01*
X124042165Y-85583149D01*
X123990980Y-85536488D01*
X123884909Y-85439791D01*
X123884907Y-85439789D01*
X123703992Y-85327771D01*
X123703986Y-85327768D01*
X123506810Y-85251383D01*
X123505566Y-85250901D01*
X123296396Y-85211800D01*
X123083604Y-85211800D01*
X122874434Y-85250901D01*
X122874431Y-85250901D01*
X122874431Y-85250902D01*
X122676013Y-85327768D01*
X122676007Y-85327771D01*
X122495092Y-85439789D01*
X122495090Y-85439791D01*
X122337836Y-85583147D01*
X122209596Y-85752962D01*
X122114751Y-85943438D01*
X122092986Y-86019931D01*
X122061401Y-86073676D01*
X121977758Y-86157319D01*
X121916435Y-86190804D01*
X121846743Y-86185820D01*
X121790810Y-86143948D01*
X121770811Y-86103572D01*
X121766963Y-86090047D01*
X121725251Y-85943445D01*
X121725249Y-85943440D01*
X121725249Y-85943439D01*
X121630403Y-85752962D01*
X121563535Y-85664416D01*
X121502165Y-85583149D01*
X121450980Y-85536488D01*
X121344909Y-85439791D01*
X121344907Y-85439789D01*
X121163992Y-85327771D01*
X121163986Y-85327768D01*
X120966810Y-85251383D01*
X120965566Y-85250901D01*
X120756396Y-85211800D01*
X120543604Y-85211800D01*
X120334434Y-85250901D01*
X120334431Y-85250901D01*
X120334431Y-85250902D01*
X120136013Y-85327768D01*
X120136007Y-85327771D01*
X119955092Y-85439789D01*
X119955090Y-85439791D01*
X119797836Y-85583147D01*
X119669596Y-85752962D01*
X119574750Y-85943439D01*
X119574750Y-85943440D01*
X119516514Y-86148115D01*
X119503471Y-86288881D01*
X119477685Y-86353819D01*
X119470616Y-86358882D01*
X119501693Y-86418751D01*
X119503471Y-86431118D01*
X119516514Y-86571884D01*
X119574750Y-86776559D01*
X119574750Y-86776560D01*
X119669596Y-86967037D01*
X119736464Y-87055583D01*
X119797835Y-87136851D01*
X119918254Y-87246628D01*
X119955090Y-87280208D01*
X119955092Y-87280210D01*
X120136007Y-87392228D01*
X120136013Y-87392231D01*
X120136016Y-87392232D01*
X120334434Y-87469099D01*
X120382526Y-87478089D01*
X120444805Y-87509756D01*
X120480078Y-87570069D01*
X120477144Y-87639877D01*
X120447420Y-87687658D01*
X119588632Y-88546447D01*
X118742220Y-89392859D01*
X118742218Y-89392861D01*
X118672538Y-89462540D01*
X118602859Y-89532219D01*
X118493371Y-89696080D01*
X118493364Y-89696093D01*
X118455863Y-89786632D01*
X118424625Y-89862048D01*
X118424624Y-89862052D01*
X118417948Y-89878167D01*
X118417947Y-89878171D01*
X118379500Y-90071454D01*
X118379500Y-91657142D01*
X118359815Y-91724181D01*
X118354767Y-91731453D01*
X118288504Y-91819969D01*
X118288502Y-91819971D01*
X118238208Y-91954817D01*
X118231801Y-92014416D01*
X118231801Y-92014423D01*
X118231800Y-92014435D01*
X118231800Y-93405570D01*
X118231801Y-93405576D01*
X118238208Y-93465183D01*
X118288502Y-93600028D01*
X118288506Y-93600035D01*
X118374752Y-93715244D01*
X118374755Y-93715247D01*
X118489964Y-93801493D01*
X118489971Y-93801497D01*
X118624817Y-93851791D01*
X118624816Y-93851791D01*
X118631744Y-93852535D01*
X118684427Y-93858200D01*
X119238580Y-93858199D01*
X119305617Y-93877883D01*
X119351372Y-93930687D01*
X119361316Y-93999846D01*
X119332291Y-94063402D01*
X119273513Y-94101176D01*
X119261362Y-94104088D01*
X119064434Y-94140901D01*
X119064432Y-94140901D01*
X119064430Y-94140902D01*
X118866012Y-94217769D01*
X118866005Y-94217773D01*
X118844761Y-94230927D01*
X118779484Y-94249500D01*
X115424500Y-94249500D01*
X115357461Y-94229815D01*
X115311706Y-94177011D01*
X115300500Y-94125500D01*
X115300500Y-93305839D01*
X115313499Y-93250569D01*
X115375251Y-93126555D01*
X115433485Y-92921885D01*
X115453119Y-92710000D01*
X115433485Y-92498115D01*
X115375251Y-92293445D01*
X115375249Y-92293440D01*
X115375249Y-92293439D01*
X115280403Y-92102962D01*
X115152163Y-91933147D01*
X114994909Y-91789791D01*
X114994907Y-91789789D01*
X114813992Y-91677771D01*
X114813986Y-91677768D01*
X114651397Y-91614782D01*
X114615566Y-91600901D01*
X114406396Y-91561800D01*
X114193604Y-91561800D01*
X113984434Y-91600901D01*
X113984431Y-91600901D01*
X113984431Y-91600902D01*
X113786012Y-91677769D01*
X113786005Y-91677773D01*
X113764761Y-91690927D01*
X113699484Y-91709500D01*
X107804500Y-91709500D01*
X107737461Y-91689815D01*
X107691706Y-91637011D01*
X107680500Y-91585500D01*
X107680500Y-85664435D01*
X109341800Y-85664435D01*
X109341800Y-87055570D01*
X109341801Y-87055576D01*
X109348208Y-87115183D01*
X109398502Y-87250028D01*
X109398506Y-87250035D01*
X109484752Y-87365244D01*
X109484755Y-87365247D01*
X109599964Y-87451493D01*
X109599971Y-87451497D01*
X109734817Y-87501791D01*
X109734816Y-87501791D01*
X109741744Y-87502535D01*
X109794427Y-87508200D01*
X111185572Y-87508199D01*
X111245183Y-87501791D01*
X111380031Y-87451496D01*
X111495246Y-87365246D01*
X111581496Y-87250031D01*
X111631791Y-87115183D01*
X111638200Y-87055573D01*
X111638199Y-86466294D01*
X111657883Y-86399257D01*
X111702456Y-86360633D01*
X111817235Y-86360633D01*
X111843402Y-86372583D01*
X111881176Y-86431361D01*
X111885670Y-86454854D01*
X111896514Y-86571884D01*
X111954750Y-86776559D01*
X111954750Y-86776560D01*
X112049596Y-86967037D01*
X112116464Y-87055583D01*
X112177835Y-87136851D01*
X112298254Y-87246628D01*
X112335090Y-87280208D01*
X112335092Y-87280210D01*
X112516007Y-87392228D01*
X112516013Y-87392231D01*
X112516016Y-87392232D01*
X112714434Y-87469099D01*
X112923604Y-87508200D01*
X112923606Y-87508200D01*
X113136394Y-87508200D01*
X113136396Y-87508200D01*
X113345566Y-87469099D01*
X113543989Y-87392230D01*
X113724909Y-87280209D01*
X113882165Y-87136851D01*
X114010402Y-86967039D01*
X114010533Y-86966775D01*
X114105249Y-86776560D01*
X114105249Y-86776559D01*
X114105248Y-86776559D01*
X114105251Y-86776555D01*
X114163485Y-86571885D01*
X114173988Y-86458540D01*
X114176529Y-86431118D01*
X114202315Y-86366181D01*
X114209384Y-86361117D01*
X114208224Y-86358882D01*
X114390616Y-86358882D01*
X114421693Y-86418751D01*
X114423471Y-86431118D01*
X114436514Y-86571884D01*
X114494750Y-86776559D01*
X114494750Y-86776560D01*
X114589596Y-86967037D01*
X114656464Y-87055583D01*
X114717835Y-87136851D01*
X114838254Y-87246628D01*
X114875090Y-87280208D01*
X114875092Y-87280210D01*
X115056007Y-87392228D01*
X115056013Y-87392231D01*
X115056016Y-87392232D01*
X115254434Y-87469099D01*
X115463604Y-87508200D01*
X115463606Y-87508200D01*
X115676394Y-87508200D01*
X115676396Y-87508200D01*
X115885566Y-87469099D01*
X116083989Y-87392230D01*
X116264909Y-87280209D01*
X116422165Y-87136851D01*
X116550402Y-86967039D01*
X116550533Y-86966775D01*
X116645249Y-86776560D01*
X116645249Y-86776559D01*
X116645248Y-86776559D01*
X116645251Y-86776555D01*
X116703485Y-86571885D01*
X116713988Y-86458540D01*
X116716529Y-86431118D01*
X116742315Y-86366181D01*
X116749384Y-86361117D01*
X116718307Y-86301248D01*
X116716529Y-86288881D01*
X116703485Y-86148115D01*
X116686963Y-86090047D01*
X116645251Y-85943445D01*
X116645249Y-85943440D01*
X116645249Y-85943439D01*
X116550403Y-85752962D01*
X116483535Y-85664416D01*
X116422165Y-85583149D01*
X116370980Y-85536488D01*
X116264909Y-85439791D01*
X116264907Y-85439789D01*
X116083992Y-85327771D01*
X116083986Y-85327768D01*
X115886810Y-85251383D01*
X115885566Y-85250901D01*
X115676396Y-85211800D01*
X115463604Y-85211800D01*
X115254434Y-85250901D01*
X115254431Y-85250901D01*
X115254431Y-85250902D01*
X115056013Y-85327768D01*
X115056007Y-85327771D01*
X114875092Y-85439789D01*
X114875090Y-85439791D01*
X114717836Y-85583147D01*
X114589596Y-85752962D01*
X114494750Y-85943439D01*
X114494750Y-85943440D01*
X114436514Y-86148115D01*
X114423471Y-86288881D01*
X114397685Y-86353819D01*
X114390616Y-86358882D01*
X114208224Y-86358882D01*
X114178307Y-86301248D01*
X114176529Y-86288881D01*
X114163485Y-86148115D01*
X114146963Y-86090047D01*
X114105251Y-85943445D01*
X114105249Y-85943440D01*
X114105249Y-85943439D01*
X114010403Y-85752962D01*
X113943535Y-85664416D01*
X113882165Y-85583149D01*
X113830980Y-85536488D01*
X113724909Y-85439791D01*
X113724907Y-85439789D01*
X113543992Y-85327771D01*
X113543986Y-85327768D01*
X113346810Y-85251383D01*
X113345566Y-85250901D01*
X113136396Y-85211800D01*
X112923604Y-85211800D01*
X112714434Y-85250901D01*
X112714431Y-85250901D01*
X112714431Y-85250902D01*
X112516013Y-85327768D01*
X112516007Y-85327771D01*
X112335092Y-85439789D01*
X112335090Y-85439791D01*
X112177836Y-85583147D01*
X112049596Y-85752962D01*
X111954750Y-85943439D01*
X111954750Y-85943440D01*
X111896514Y-86148115D01*
X111885670Y-86265147D01*
X111859884Y-86330084D01*
X111817235Y-86360633D01*
X111702456Y-86360633D01*
X111705259Y-86358204D01*
X111672696Y-86339525D01*
X111640506Y-86277513D01*
X111638199Y-86253705D01*
X111638199Y-85664429D01*
X111638198Y-85664423D01*
X111638197Y-85664416D01*
X111631791Y-85604817D01*
X111623709Y-85583149D01*
X111581497Y-85469971D01*
X111581493Y-85469964D01*
X111495247Y-85354755D01*
X111495244Y-85354752D01*
X111380035Y-85268506D01*
X111380028Y-85268502D01*
X111245182Y-85218208D01*
X111245183Y-85218208D01*
X111185583Y-85211801D01*
X111185581Y-85211800D01*
X111185573Y-85211800D01*
X111185564Y-85211800D01*
X109794429Y-85211800D01*
X109794423Y-85211801D01*
X109734816Y-85218208D01*
X109599971Y-85268502D01*
X109599964Y-85268506D01*
X109484755Y-85354752D01*
X109484752Y-85354755D01*
X109398506Y-85469964D01*
X109398502Y-85469971D01*
X109348208Y-85604817D01*
X109341801Y-85664416D01*
X109341801Y-85664423D01*
X109341800Y-85664435D01*
X107680500Y-85664435D01*
X107680500Y-80475782D01*
X107700185Y-80408743D01*
X107716819Y-80388101D01*
X108328101Y-79776819D01*
X108389424Y-79743334D01*
X108415782Y-79740500D01*
X109889484Y-79740500D01*
X109954761Y-79759073D01*
X109966738Y-79766488D01*
X109976011Y-79772230D01*
X110174434Y-79849099D01*
X110383604Y-79888200D01*
X110383606Y-79888200D01*
X110596394Y-79888200D01*
X110596396Y-79888200D01*
X110805566Y-79849099D01*
X111003989Y-79772230D01*
X111184909Y-79660209D01*
X111342165Y-79516851D01*
X111470402Y-79347039D01*
X111527255Y-79232862D01*
X111565249Y-79156560D01*
X111565249Y-79156559D01*
X111565248Y-79156559D01*
X111565251Y-79156555D01*
X111623485Y-78951885D01*
X111636529Y-78811118D01*
X111662315Y-78746181D01*
X111669384Y-78741117D01*
X111668224Y-78738882D01*
X111850616Y-78738882D01*
X111881693Y-78798751D01*
X111883471Y-78811118D01*
X111896514Y-78951884D01*
X111954750Y-79156559D01*
X111954750Y-79156560D01*
X112049596Y-79347037D01*
X112177836Y-79516852D01*
X112335090Y-79660208D01*
X112335092Y-79660210D01*
X112516007Y-79772228D01*
X112516013Y-79772231D01*
X112534777Y-79779500D01*
X112714434Y-79849099D01*
X112923604Y-79888200D01*
X112923606Y-79888200D01*
X113136394Y-79888200D01*
X113136396Y-79888200D01*
X113345566Y-79849099D01*
X113543989Y-79772230D01*
X113559088Y-79762880D01*
X113565239Y-79759073D01*
X113630516Y-79740500D01*
X114445500Y-79740500D01*
X114512539Y-79760185D01*
X114558294Y-79812989D01*
X114569500Y-79864500D01*
X114569500Y-81378544D01*
X114607947Y-81571828D01*
X114607949Y-81571836D01*
X114623247Y-81608768D01*
X114623247Y-81608769D01*
X114683364Y-81753907D01*
X114683371Y-81753920D01*
X114792859Y-81917780D01*
X114792860Y-81917781D01*
X114792861Y-81917782D01*
X114932218Y-82057139D01*
X114932219Y-82057139D01*
X114939286Y-82064206D01*
X114939285Y-82064206D01*
X114939289Y-82064209D01*
X117073181Y-84198101D01*
X117106666Y-84259424D01*
X117109500Y-84285782D01*
X117109500Y-85764157D01*
X117096501Y-85819427D01*
X117034750Y-85943442D01*
X116976514Y-86148115D01*
X116963471Y-86288881D01*
X116937685Y-86353819D01*
X116930616Y-86358882D01*
X116961693Y-86418751D01*
X116963471Y-86431118D01*
X116976514Y-86571884D01*
X117034750Y-86776559D01*
X117034750Y-86776560D01*
X117129596Y-86967037D01*
X117196464Y-87055583D01*
X117257835Y-87136851D01*
X117378254Y-87246628D01*
X117415090Y-87280208D01*
X117415092Y-87280210D01*
X117596007Y-87392228D01*
X117596013Y-87392231D01*
X117596016Y-87392232D01*
X117794434Y-87469099D01*
X118003604Y-87508200D01*
X118003606Y-87508200D01*
X118216394Y-87508200D01*
X118216396Y-87508200D01*
X118425566Y-87469099D01*
X118623989Y-87392230D01*
X118804909Y-87280209D01*
X118962165Y-87136851D01*
X119090402Y-86967039D01*
X119090533Y-86966775D01*
X119185249Y-86776560D01*
X119185249Y-86776559D01*
X119185248Y-86776559D01*
X119185251Y-86776555D01*
X119243485Y-86571885D01*
X119253988Y-86458540D01*
X119256529Y-86431118D01*
X119282315Y-86366181D01*
X119289384Y-86361117D01*
X119258307Y-86301248D01*
X119256529Y-86288881D01*
X119243485Y-86148115D01*
X119226963Y-86090047D01*
X119185251Y-85943445D01*
X119156690Y-85886086D01*
X119123499Y-85819427D01*
X119110500Y-85764157D01*
X119110500Y-83721456D01*
X119110499Y-83721454D01*
X119076494Y-83550500D01*
X119072051Y-83528165D01*
X119065376Y-83512051D01*
X119049960Y-83474834D01*
X119014579Y-83389414D01*
X118996632Y-83346086D01*
X118996628Y-83346079D01*
X118887140Y-83182219D01*
X118821030Y-83116109D01*
X118747782Y-83042861D01*
X118747781Y-83042860D01*
X116606819Y-80901898D01*
X116573334Y-80840575D01*
X116570500Y-80814217D01*
X116570500Y-79335839D01*
X116583499Y-79280569D01*
X116645251Y-79156555D01*
X116703485Y-78951885D01*
X116716529Y-78811118D01*
X116742315Y-78746181D01*
X116749384Y-78741117D01*
X116718307Y-78681248D01*
X116716529Y-78668881D01*
X116703485Y-78528115D01*
X116687092Y-78470500D01*
X116645251Y-78323445D01*
X116645249Y-78323440D01*
X116645249Y-78323439D01*
X116550403Y-78132962D01*
X116429330Y-77972637D01*
X116422165Y-77963149D01*
X116264909Y-77819791D01*
X116264907Y-77819789D01*
X116083992Y-77707771D01*
X116083986Y-77707768D01*
X115927603Y-77647186D01*
X115885566Y-77630901D01*
X115676396Y-77591800D01*
X115463604Y-77591800D01*
X115254434Y-77630901D01*
X115254431Y-77630901D01*
X115254431Y-77630902D01*
X115056012Y-77707769D01*
X115056005Y-77707773D01*
X115034761Y-77720927D01*
X114969484Y-77739500D01*
X113630516Y-77739500D01*
X113565239Y-77720927D01*
X113543994Y-77707773D01*
X113543991Y-77707771D01*
X113543989Y-77707770D01*
X113543988Y-77707769D01*
X113543987Y-77707769D01*
X113444777Y-77669335D01*
X113345566Y-77630901D01*
X113136396Y-77591800D01*
X112923604Y-77591800D01*
X112714434Y-77630901D01*
X112714431Y-77630901D01*
X112714431Y-77630902D01*
X112516013Y-77707768D01*
X112516007Y-77707771D01*
X112335092Y-77819789D01*
X112335090Y-77819791D01*
X112177836Y-77963147D01*
X112049596Y-78132962D01*
X111954750Y-78323439D01*
X111954750Y-78323440D01*
X111896514Y-78528115D01*
X111883471Y-78668881D01*
X111857685Y-78733819D01*
X111850616Y-78738882D01*
X111668224Y-78738882D01*
X111638307Y-78681248D01*
X111636529Y-78668881D01*
X111623485Y-78528115D01*
X111565251Y-78323445D01*
X111527254Y-78247136D01*
X111503499Y-78199427D01*
X111490500Y-78144157D01*
X111490500Y-76054500D01*
X111510185Y-75987461D01*
X111562989Y-75941706D01*
X111614500Y-75930500D01*
X111858542Y-75930500D01*
X111877870Y-75926655D01*
X111955188Y-75911275D01*
X112051836Y-75892051D01*
X112105165Y-75869961D01*
X112233914Y-75816632D01*
X112397782Y-75707139D01*
X112537139Y-75567782D01*
X112537140Y-75567779D01*
X112544206Y-75560714D01*
X112544208Y-75560710D01*
X114444922Y-73659997D01*
X115535034Y-73659997D01*
X115535034Y-73660002D01*
X115554858Y-73886599D01*
X115554860Y-73886610D01*
X115613730Y-74106317D01*
X115613735Y-74106331D01*
X115709863Y-74312478D01*
X115760974Y-74385472D01*
X116440000Y-73706446D01*
X116440000Y-73712661D01*
X116467259Y-73814394D01*
X116519920Y-73905606D01*
X116594394Y-73980080D01*
X116685606Y-74032741D01*
X116787339Y-74060000D01*
X116793553Y-74060000D01*
X116114526Y-74739025D01*
X116187513Y-74790132D01*
X116187521Y-74790136D01*
X116393668Y-74886264D01*
X116393682Y-74886269D01*
X116613389Y-74945139D01*
X116613400Y-74945141D01*
X116839998Y-74964966D01*
X116840002Y-74964966D01*
X117066599Y-74945141D01*
X117066610Y-74945139D01*
X117286317Y-74886269D01*
X117286331Y-74886264D01*
X117492478Y-74790136D01*
X117565471Y-74739024D01*
X116886447Y-74060000D01*
X116892661Y-74060000D01*
X116994394Y-74032741D01*
X117085606Y-73980080D01*
X117160080Y-73905606D01*
X117212741Y-73814394D01*
X117240000Y-73712661D01*
X117240000Y-73706447D01*
X117919024Y-74385471D01*
X117970136Y-74312478D01*
X118066264Y-74106331D01*
X118066269Y-74106317D01*
X118125139Y-73886610D01*
X118125141Y-73886599D01*
X118144966Y-73660002D01*
X118144966Y-73659997D01*
X118125141Y-73433400D01*
X118125139Y-73433389D01*
X118066269Y-73213682D01*
X118066264Y-73213668D01*
X117970136Y-73007521D01*
X117970132Y-73007513D01*
X117919025Y-72934526D01*
X117240000Y-73613551D01*
X117240000Y-73607339D01*
X117212741Y-73505606D01*
X117160080Y-73414394D01*
X117085606Y-73339920D01*
X116994394Y-73287259D01*
X116892661Y-73260000D01*
X116886448Y-73260000D01*
X117565472Y-72580974D01*
X117492478Y-72529863D01*
X117286331Y-72433735D01*
X117286317Y-72433730D01*
X117066610Y-72374860D01*
X117066599Y-72374858D01*
X116840002Y-72355034D01*
X116839998Y-72355034D01*
X116613400Y-72374858D01*
X116613389Y-72374860D01*
X116393682Y-72433730D01*
X116393673Y-72433734D01*
X116187516Y-72529866D01*
X116187512Y-72529868D01*
X116114526Y-72580973D01*
X116114526Y-72580974D01*
X116793553Y-73260000D01*
X116787339Y-73260000D01*
X116685606Y-73287259D01*
X116594394Y-73339920D01*
X116519920Y-73414394D01*
X116467259Y-73505606D01*
X116440000Y-73607339D01*
X116440000Y-73613552D01*
X115760974Y-72934526D01*
X115760973Y-72934526D01*
X115709868Y-73007512D01*
X115709866Y-73007516D01*
X115613734Y-73213673D01*
X115613730Y-73213682D01*
X115554860Y-73433389D01*
X115554858Y-73433400D01*
X115535034Y-73659997D01*
X114444922Y-73659997D01*
X117218101Y-70886819D01*
X117279424Y-70853334D01*
X117305782Y-70850500D01*
X122018542Y-70850500D01*
X122037870Y-70846655D01*
X122115188Y-70831275D01*
X122211836Y-70812051D01*
X122265165Y-70789961D01*
X122393914Y-70736632D01*
X122557782Y-70627139D01*
X122697139Y-70487782D01*
X122697139Y-70487780D01*
X122707347Y-70477573D01*
X122707348Y-70477570D01*
X124838102Y-68346819D01*
X124899425Y-68313334D01*
X124925783Y-68310500D01*
X125631922Y-68310500D01*
X125698961Y-68330185D01*
G37*
%TD.AperFunction*%
%TA.AperFunction,Conductor*%
G36*
X143590071Y-66982485D02*
G01*
X143635826Y-67035289D01*
X143646503Y-67098241D01*
X143626881Y-67309999D01*
X143626881Y-67310000D01*
X143646514Y-67521884D01*
X143704750Y-67726559D01*
X143704750Y-67726560D01*
X143799596Y-67917037D01*
X143927836Y-68086852D01*
X144085090Y-68230208D01*
X144085092Y-68230210D01*
X144266007Y-68342228D01*
X144266013Y-68342231D01*
X144308048Y-68358515D01*
X144464434Y-68419099D01*
X144673604Y-68458200D01*
X144673606Y-68458200D01*
X144886394Y-68458200D01*
X144886396Y-68458200D01*
X145095566Y-68419099D01*
X145293989Y-68342230D01*
X145474909Y-68230209D01*
X145632165Y-68086851D01*
X145760402Y-67917039D01*
X145793501Y-67850567D01*
X145855249Y-67726560D01*
X145855249Y-67726559D01*
X145855248Y-67726559D01*
X145855251Y-67726555D01*
X145913485Y-67521885D01*
X145926529Y-67381118D01*
X145952315Y-67316181D01*
X146009116Y-67275493D01*
X146078897Y-67271973D01*
X146139503Y-67306738D01*
X146171693Y-67368751D01*
X146173471Y-67381118D01*
X146186514Y-67521884D01*
X146244750Y-67726559D01*
X146244750Y-67726560D01*
X146339596Y-67917037D01*
X146467836Y-68086852D01*
X146625090Y-68230208D01*
X146625092Y-68230210D01*
X146806007Y-68342228D01*
X146806013Y-68342231D01*
X146848048Y-68358515D01*
X147004434Y-68419099D01*
X147213604Y-68458200D01*
X147213606Y-68458200D01*
X147426394Y-68458200D01*
X147426396Y-68458200D01*
X147635566Y-68419099D01*
X147833989Y-68342230D01*
X148014909Y-68230209D01*
X148172165Y-68086851D01*
X148300402Y-67917039D01*
X148333501Y-67850567D01*
X148395249Y-67726560D01*
X148395249Y-67726559D01*
X148395248Y-67726559D01*
X148395251Y-67726555D01*
X148453485Y-67521885D01*
X148466529Y-67381118D01*
X148492315Y-67316181D01*
X148549116Y-67275493D01*
X148618897Y-67271973D01*
X148679503Y-67306738D01*
X148711693Y-67368751D01*
X148713471Y-67381118D01*
X148726514Y-67521884D01*
X148784750Y-67726559D01*
X148784750Y-67726560D01*
X148879596Y-67917037D01*
X149007836Y-68086852D01*
X149165090Y-68230208D01*
X149165092Y-68230210D01*
X149346007Y-68342228D01*
X149346013Y-68342231D01*
X149388048Y-68358515D01*
X149544434Y-68419099D01*
X149753604Y-68458200D01*
X149753606Y-68458200D01*
X149966394Y-68458200D01*
X149966396Y-68458200D01*
X150175566Y-68419099D01*
X150373989Y-68342230D01*
X150554909Y-68230209D01*
X150712165Y-68086851D01*
X150840402Y-67917039D01*
X150873501Y-67850567D01*
X150935249Y-67726560D01*
X150935249Y-67726559D01*
X150935248Y-67726559D01*
X150935251Y-67726555D01*
X150993485Y-67521885D01*
X151006780Y-67378407D01*
X151032565Y-67313473D01*
X151089365Y-67272785D01*
X151159146Y-67269265D01*
X151219753Y-67304030D01*
X151251943Y-67366042D01*
X151253721Y-67378409D01*
X151267008Y-67521793D01*
X151325217Y-67726372D01*
X151420025Y-67916775D01*
X151428477Y-67927968D01*
X152006300Y-67350145D01*
X152006300Y-67361832D01*
X152033130Y-67461962D01*
X152084962Y-67551737D01*
X152158263Y-67625038D01*
X152248038Y-67676870D01*
X152348168Y-67703700D01*
X152359853Y-67703700D01*
X151784662Y-68278889D01*
X151886235Y-68341780D01*
X151886236Y-68341781D01*
X152084563Y-68418613D01*
X152084573Y-68418616D01*
X152293653Y-68457700D01*
X152506347Y-68457700D01*
X152715426Y-68418616D01*
X152715436Y-68418613D01*
X152913765Y-68341780D01*
X152913767Y-68341779D01*
X153015336Y-68278889D01*
X152440148Y-67703700D01*
X152451832Y-67703700D01*
X152551962Y-67676870D01*
X152641737Y-67625038D01*
X152715038Y-67551737D01*
X152766870Y-67461962D01*
X152793700Y-67361832D01*
X152793700Y-67350146D01*
X153371522Y-67927968D01*
X153379974Y-67916775D01*
X153474782Y-67726372D01*
X153532991Y-67521793D01*
X153546278Y-67378410D01*
X153572064Y-67313473D01*
X153628864Y-67272785D01*
X153698645Y-67269265D01*
X153759252Y-67304030D01*
X153791442Y-67366043D01*
X153793220Y-67378410D01*
X153806514Y-67521884D01*
X153864748Y-67726552D01*
X153864753Y-67726565D01*
X153893075Y-67783442D01*
X153926500Y-67850569D01*
X153939500Y-67905839D01*
X153939500Y-68725500D01*
X153919815Y-68792539D01*
X153867011Y-68838294D01*
X153815500Y-68849500D01*
X142141457Y-68849500D01*
X142069021Y-68863909D01*
X142069020Y-68863909D01*
X141948167Y-68887947D01*
X141948159Y-68887950D01*
X141894834Y-68910037D01*
X141894834Y-68910038D01*
X141868486Y-68920952D01*
X141766089Y-68963366D01*
X141766079Y-68963371D01*
X141602219Y-69072859D01*
X141544828Y-69130251D01*
X141462861Y-69212218D01*
X141462858Y-69212221D01*
X140332221Y-70342858D01*
X140332218Y-70342861D01*
X140284237Y-70390842D01*
X140192859Y-70482219D01*
X140083371Y-70646079D01*
X140083366Y-70646089D01*
X140030038Y-70774835D01*
X140007949Y-70828161D01*
X140007947Y-70828167D01*
X139998533Y-70875499D01*
X139969500Y-71021455D01*
X139969500Y-71021459D01*
X139969500Y-77371459D01*
X139969500Y-77568541D01*
X139969500Y-77568543D01*
X139969499Y-77568543D01*
X140007947Y-77761829D01*
X140007950Y-77761839D01*
X140083364Y-77943907D01*
X140083371Y-77943920D01*
X140192860Y-78107781D01*
X140192863Y-78107785D01*
X140332214Y-78247136D01*
X140332218Y-78247139D01*
X140496079Y-78356628D01*
X140496092Y-78356635D01*
X140674691Y-78430612D01*
X140678165Y-78432051D01*
X140678169Y-78432051D01*
X140678170Y-78432052D01*
X140871456Y-78470500D01*
X140871459Y-78470500D01*
X142120857Y-78470500D01*
X142187896Y-78490185D01*
X142233651Y-78542989D01*
X142243595Y-78612147D01*
X142214570Y-78675703D01*
X142189748Y-78697602D01*
X142032219Y-78802859D01*
X141996538Y-78838541D01*
X141892861Y-78942218D01*
X141892858Y-78942221D01*
X141477813Y-79357267D01*
X141091899Y-79743181D01*
X141030576Y-79776666D01*
X141004218Y-79779500D01*
X140845665Y-79779500D01*
X140600383Y-79820429D01*
X140365197Y-79901169D01*
X140365188Y-79901172D01*
X140146493Y-80019524D01*
X139950255Y-80172262D01*
X139950252Y-80172265D01*
X139888374Y-80239483D01*
X139828487Y-80275474D01*
X139797145Y-80279500D01*
X137007588Y-80279500D01*
X136940549Y-80259815D01*
X136894794Y-80207011D01*
X136884850Y-80137853D01*
X136885971Y-80131307D01*
X136890500Y-80108540D01*
X136890500Y-77224749D01*
X136910185Y-77157710D01*
X136940190Y-77125482D01*
X136997546Y-77082546D01*
X137083796Y-76967331D01*
X137134091Y-76832483D01*
X137140500Y-76772873D01*
X137140499Y-75627128D01*
X137135299Y-75578757D01*
X137134091Y-75567516D01*
X137083797Y-75432671D01*
X137083796Y-75432670D01*
X137083796Y-75432669D01*
X137082967Y-75431562D01*
X137082485Y-75430268D01*
X137079546Y-75424886D01*
X137080319Y-75424463D01*
X137058551Y-75366099D01*
X137067675Y-75309798D01*
X137101089Y-75229132D01*
X137101089Y-75229131D01*
X137101091Y-75229127D01*
X137140500Y-75031003D01*
X137140500Y-74828997D01*
X137101091Y-74630873D01*
X137023786Y-74444244D01*
X136970094Y-74363889D01*
X136949217Y-74297214D01*
X136967701Y-74229834D01*
X136970078Y-74226134D01*
X137023786Y-74145756D01*
X137101091Y-73959127D01*
X137117415Y-73877054D01*
X137149799Y-73815147D01*
X137151295Y-73813623D01*
X137797778Y-73167141D01*
X137797782Y-73167139D01*
X137937139Y-73027782D01*
X138046632Y-72863914D01*
X138122051Y-72681835D01*
X138142114Y-72580973D01*
X138160500Y-72488543D01*
X138160500Y-70874749D01*
X138180185Y-70807710D01*
X138210190Y-70775482D01*
X138267546Y-70732546D01*
X138353796Y-70617331D01*
X138404091Y-70482483D01*
X138410500Y-70422873D01*
X138410499Y-69277128D01*
X138404091Y-69217517D01*
X138403152Y-69215000D01*
X138353797Y-69082671D01*
X138353796Y-69082670D01*
X138353796Y-69082669D01*
X138352967Y-69081562D01*
X138352485Y-69080268D01*
X138349546Y-69074886D01*
X138350319Y-69074463D01*
X138328551Y-69016099D01*
X138337675Y-68959798D01*
X138371089Y-68879132D01*
X138371089Y-68879131D01*
X138371091Y-68879127D01*
X138410500Y-68681003D01*
X138410500Y-68478997D01*
X138371091Y-68280873D01*
X138293786Y-68094244D01*
X138240094Y-68013889D01*
X138219217Y-67947214D01*
X138237701Y-67879834D01*
X138240078Y-67876134D01*
X138293786Y-67795756D01*
X138371091Y-67609127D01*
X138387415Y-67527054D01*
X138419799Y-67465147D01*
X138421238Y-67463680D01*
X138885803Y-66999116D01*
X138947125Y-66965634D01*
X138973483Y-66962800D01*
X143523032Y-66962800D01*
X143590071Y-66982485D01*
G37*
%TD.AperFunction*%
%TA.AperFunction,Conductor*%
G36*
X177242539Y-64020185D02*
G01*
X177288294Y-64072989D01*
X177299500Y-64124500D01*
X177299500Y-118755500D01*
X177279815Y-118822539D01*
X177227011Y-118868294D01*
X177175500Y-118879500D01*
X102224500Y-118879500D01*
X102157461Y-118859815D01*
X102111706Y-118807011D01*
X102100500Y-118755500D01*
X102100500Y-100350843D01*
X104331799Y-100350843D01*
X104370247Y-100544129D01*
X104370250Y-100544139D01*
X104445664Y-100726207D01*
X104445671Y-100726220D01*
X104555159Y-100890080D01*
X104555160Y-100890081D01*
X104555161Y-100890082D01*
X104632860Y-100967781D01*
X104632861Y-100967782D01*
X104717760Y-101052681D01*
X104772219Y-101107140D01*
X104879974Y-101179139D01*
X104936086Y-101216632D01*
X105017149Y-101250209D01*
X105118164Y-101292051D01*
X105239021Y-101316091D01*
X105311454Y-101330499D01*
X105311457Y-101330500D01*
X105311459Y-101330500D01*
X105508540Y-101330500D01*
X106079484Y-101330500D01*
X106144761Y-101349073D01*
X106149778Y-101352179D01*
X106166011Y-101362230D01*
X106364434Y-101439099D01*
X106573129Y-101478111D01*
X106635410Y-101509779D01*
X106670683Y-101570092D01*
X106667749Y-101639900D01*
X106627540Y-101697040D01*
X106573129Y-101721888D01*
X106364434Y-101760901D01*
X106364431Y-101760901D01*
X106364431Y-101760902D01*
X106166013Y-101837768D01*
X106166007Y-101837771D01*
X105985092Y-101949789D01*
X105985090Y-101949791D01*
X105827836Y-102093147D01*
X105699596Y-102262962D01*
X105604750Y-102453439D01*
X105604750Y-102453440D01*
X105546514Y-102658115D01*
X105526881Y-102869999D01*
X105526881Y-102870000D01*
X105546514Y-103081884D01*
X105604750Y-103286559D01*
X105604750Y-103286560D01*
X105699596Y-103477037D01*
X105741657Y-103532734D01*
X105827835Y-103646851D01*
X105948254Y-103756628D01*
X105985090Y-103790208D01*
X105985092Y-103790210D01*
X106166007Y-103902228D01*
X106166013Y-103902231D01*
X106208048Y-103918515D01*
X106364434Y-103979099D01*
X106573129Y-104018111D01*
X106635410Y-104049779D01*
X106670683Y-104110092D01*
X106667749Y-104179900D01*
X106627540Y-104237040D01*
X106573129Y-104261888D01*
X106364434Y-104300901D01*
X106364431Y-104300901D01*
X106364431Y-104300902D01*
X106166013Y-104377768D01*
X106166007Y-104377771D01*
X105985092Y-104489789D01*
X105985090Y-104489791D01*
X105827836Y-104633147D01*
X105699596Y-104802962D01*
X105604750Y-104993439D01*
X105604750Y-104993440D01*
X105546514Y-105198115D01*
X105526881Y-105409999D01*
X105526881Y-105410000D01*
X105546514Y-105621884D01*
X105604750Y-105826559D01*
X105604750Y-105826560D01*
X105699596Y-106017037D01*
X105785089Y-106130247D01*
X105822661Y-106180000D01*
X105827836Y-106186852D01*
X105860187Y-106216344D01*
X105948254Y-106296628D01*
X105985090Y-106330208D01*
X105985092Y-106330210D01*
X106166007Y-106442228D01*
X106166013Y-106442231D01*
X106194816Y-106453389D01*
X106364434Y-106519099D01*
X106573604Y-106558200D01*
X106573607Y-106558200D01*
X106574490Y-106558365D01*
X106636771Y-106590033D01*
X106672044Y-106650346D01*
X106669110Y-106720154D01*
X106628901Y-106777294D01*
X106574490Y-106802143D01*
X106364573Y-106841383D01*
X106364572Y-106841383D01*
X106166237Y-106918218D01*
X106064662Y-106981109D01*
X106639854Y-107556300D01*
X106628168Y-107556300D01*
X106528038Y-107583130D01*
X106438263Y-107634962D01*
X106364962Y-107708263D01*
X106313130Y-107798038D01*
X106286300Y-107898168D01*
X106286300Y-107909853D01*
X105708477Y-107332031D01*
X105708476Y-107332031D01*
X105700025Y-107343224D01*
X105700023Y-107343228D01*
X105605218Y-107533621D01*
X105605218Y-107533623D01*
X105547008Y-107738206D01*
X105527383Y-107949999D01*
X105527383Y-107950000D01*
X105547008Y-108161793D01*
X105605217Y-108366372D01*
X105700025Y-108556775D01*
X105708477Y-108567968D01*
X106286300Y-107990145D01*
X106286300Y-108001832D01*
X106313130Y-108101962D01*
X106364962Y-108191737D01*
X106438263Y-108265038D01*
X106528038Y-108316870D01*
X106628168Y-108343700D01*
X106639853Y-108343700D01*
X106064662Y-108918889D01*
X106166235Y-108981780D01*
X106166236Y-108981781D01*
X106364563Y-109058613D01*
X106364573Y-109058616D01*
X106573653Y-109097700D01*
X106786347Y-109097700D01*
X106995426Y-109058616D01*
X106995436Y-109058613D01*
X107193765Y-108981780D01*
X107193767Y-108981779D01*
X107295336Y-108918889D01*
X106720148Y-108343700D01*
X106731832Y-108343700D01*
X106831962Y-108316870D01*
X106921737Y-108265038D01*
X106995038Y-108191737D01*
X107046870Y-108101962D01*
X107073700Y-108001832D01*
X107073700Y-107990146D01*
X107651521Y-108567967D01*
X107659974Y-108556775D01*
X107754782Y-108366372D01*
X107812991Y-108161793D01*
X107832617Y-107950000D01*
X107832617Y-107949999D01*
X107812991Y-107738206D01*
X107754781Y-107533623D01*
X107754781Y-107533621D01*
X107659976Y-107343226D01*
X107659975Y-107343224D01*
X107651522Y-107332031D01*
X107651521Y-107332031D01*
X107073700Y-107909852D01*
X107073700Y-107898168D01*
X107046870Y-107798038D01*
X106995038Y-107708263D01*
X106921737Y-107634962D01*
X106831962Y-107583130D01*
X106731832Y-107556300D01*
X106720147Y-107556300D01*
X107295336Y-106981109D01*
X107295335Y-106981108D01*
X107193769Y-106918221D01*
X107193763Y-106918218D01*
X106995426Y-106841383D01*
X106785509Y-106802143D01*
X106723228Y-106770475D01*
X106687955Y-106710163D01*
X106690889Y-106640355D01*
X106731098Y-106583214D01*
X106785509Y-106558365D01*
X106786392Y-106558200D01*
X106786396Y-106558200D01*
X106995566Y-106519099D01*
X107193989Y-106442230D01*
X107209088Y-106432880D01*
X107215239Y-106429073D01*
X107280516Y-106410500D01*
X109318542Y-106410500D01*
X109337870Y-106406655D01*
X109415188Y-106391275D01*
X109511836Y-106372051D01*
X109565165Y-106349961D01*
X109693914Y-106296632D01*
X109857782Y-106187139D01*
X109997139Y-106047782D01*
X109997140Y-106047779D01*
X110004206Y-106040714D01*
X110004209Y-106040710D01*
X112972242Y-103072676D01*
X113033563Y-103039193D01*
X113103255Y-103044177D01*
X113159188Y-103086049D01*
X113179187Y-103126424D01*
X113224750Y-103286558D01*
X113224750Y-103286560D01*
X113319596Y-103477037D01*
X113361657Y-103532734D01*
X113447835Y-103646851D01*
X113568254Y-103756628D01*
X113605090Y-103790208D01*
X113605092Y-103790210D01*
X113786007Y-103902228D01*
X113786013Y-103902231D01*
X113828048Y-103918515D01*
X113984434Y-103979099D01*
X114193129Y-104018111D01*
X114255410Y-104049779D01*
X114290683Y-104110092D01*
X114287749Y-104179900D01*
X114247540Y-104237040D01*
X114193129Y-104261888D01*
X113984434Y-104300901D01*
X113984431Y-104300901D01*
X113984431Y-104300902D01*
X113786013Y-104377768D01*
X113786007Y-104377771D01*
X113605092Y-104489789D01*
X113605090Y-104489791D01*
X113447836Y-104633147D01*
X113319596Y-104802962D01*
X113224750Y-104993439D01*
X113224750Y-104993440D01*
X113166514Y-105198115D01*
X113146881Y-105409999D01*
X113146881Y-105410000D01*
X113166514Y-105621884D01*
X113224750Y-105826559D01*
X113224750Y-105826560D01*
X113319596Y-106017037D01*
X113405089Y-106130247D01*
X113442661Y-106180000D01*
X113447836Y-106186852D01*
X113480187Y-106216344D01*
X113568254Y-106296628D01*
X113605090Y-106330208D01*
X113605092Y-106330210D01*
X113786007Y-106442228D01*
X113786009Y-106442229D01*
X113786011Y-106442230D01*
X113786014Y-106442231D01*
X113786016Y-106442232D01*
X113792108Y-106444592D01*
X113975951Y-106515812D01*
X114018838Y-106543758D01*
X114097421Y-106622341D01*
X114130906Y-106683664D01*
X114125922Y-106753356D01*
X114084050Y-106809289D01*
X114032527Y-106831910D01*
X113984434Y-106840900D01*
X113786013Y-106917768D01*
X113786007Y-106917771D01*
X113605092Y-107029789D01*
X113605090Y-107029791D01*
X113447836Y-107173147D01*
X113319596Y-107342962D01*
X113224750Y-107533439D01*
X113224750Y-107533440D01*
X113166514Y-107738115D01*
X113146881Y-107949999D01*
X113146881Y-107950000D01*
X113166514Y-108161884D01*
X113224750Y-108366559D01*
X113224750Y-108366560D01*
X113319596Y-108557037D01*
X113327851Y-108567968D01*
X113447835Y-108726851D01*
X113574036Y-108841899D01*
X113605090Y-108870208D01*
X113605092Y-108870210D01*
X113786007Y-108982228D01*
X113786013Y-108982231D01*
X113828048Y-108998515D01*
X113984434Y-109059099D01*
X114193604Y-109098200D01*
X114193606Y-109098200D01*
X114406394Y-109098200D01*
X114406396Y-109098200D01*
X114615566Y-109059099D01*
X114813989Y-108982230D01*
X114994909Y-108870209D01*
X115152165Y-108726851D01*
X115280402Y-108557039D01*
X115375251Y-108366555D01*
X115420814Y-108206418D01*
X115458090Y-108147332D01*
X115521399Y-108117774D01*
X115590639Y-108127136D01*
X115627758Y-108152678D01*
X115803181Y-108328101D01*
X115836666Y-108389424D01*
X115839500Y-108415782D01*
X115839500Y-109318544D01*
X115858724Y-109415188D01*
X115877947Y-109511829D01*
X115877949Y-109511837D01*
X115890534Y-109542219D01*
X115953364Y-109693907D01*
X115953371Y-109693920D01*
X116062860Y-109857781D01*
X116062863Y-109857785D01*
X116206537Y-110001459D01*
X116206559Y-110001479D01*
X117329735Y-111124655D01*
X117329764Y-111124686D01*
X117472214Y-111267136D01*
X117472218Y-111267139D01*
X117636082Y-111376630D01*
X117636084Y-111376630D01*
X117636086Y-111376632D01*
X117749951Y-111423796D01*
X117818164Y-111452051D01*
X117914812Y-111471275D01*
X117963135Y-111480887D01*
X118011458Y-111490500D01*
X118011459Y-111490500D01*
X122018543Y-111490500D01*
X122148582Y-111464632D01*
X122211835Y-111452051D01*
X122393914Y-111376632D01*
X122557782Y-111267139D01*
X122697139Y-111127782D01*
X122806632Y-110963914D01*
X122882051Y-110781835D01*
X122920500Y-110588541D01*
X122920500Y-105875781D01*
X122940185Y-105808742D01*
X122956814Y-105788105D01*
X125672242Y-103072676D01*
X125733563Y-103039193D01*
X125803255Y-103044177D01*
X125859188Y-103086049D01*
X125879187Y-103126424D01*
X125924750Y-103286558D01*
X125924750Y-103286560D01*
X126019596Y-103477037D01*
X126061657Y-103532734D01*
X126147835Y-103646851D01*
X126268254Y-103756628D01*
X126305090Y-103790208D01*
X126305092Y-103790210D01*
X126486007Y-103902228D01*
X126486013Y-103902231D01*
X126528048Y-103918515D01*
X126684434Y-103979099D01*
X126893129Y-104018111D01*
X126955410Y-104049779D01*
X126990683Y-104110092D01*
X126987749Y-104179900D01*
X126947540Y-104237040D01*
X126893129Y-104261888D01*
X126684434Y-104300901D01*
X126684431Y-104300901D01*
X126684431Y-104300902D01*
X126486013Y-104377768D01*
X126486007Y-104377771D01*
X126305092Y-104489789D01*
X126305090Y-104489791D01*
X126147836Y-104633147D01*
X126019596Y-104802962D01*
X125924750Y-104993439D01*
X125924750Y-104993440D01*
X125866514Y-105198115D01*
X125846881Y-105409999D01*
X125846881Y-105410000D01*
X125866514Y-105621884D01*
X125924750Y-105826559D01*
X125924750Y-105826560D01*
X126019596Y-106017037D01*
X126105089Y-106130247D01*
X126142661Y-106180000D01*
X126147836Y-106186852D01*
X126180187Y-106216344D01*
X126268254Y-106296628D01*
X126305090Y-106330208D01*
X126305092Y-106330210D01*
X126486007Y-106442228D01*
X126486013Y-106442231D01*
X126514816Y-106453389D01*
X126684434Y-106519099D01*
X126893129Y-106558111D01*
X126955410Y-106589779D01*
X126990683Y-106650092D01*
X126987749Y-106719900D01*
X126947540Y-106777040D01*
X126893129Y-106801888D01*
X126684434Y-106840901D01*
X126684431Y-106840901D01*
X126684431Y-106840902D01*
X126486013Y-106917768D01*
X126486007Y-106917771D01*
X126305092Y-107029789D01*
X126305090Y-107029791D01*
X126147836Y-107173147D01*
X126019596Y-107342962D01*
X125924750Y-107533439D01*
X125924750Y-107533440D01*
X125866514Y-107738115D01*
X125846881Y-107949999D01*
X125846881Y-107950000D01*
X125866514Y-108161884D01*
X125924750Y-108366559D01*
X125924750Y-108366560D01*
X126019596Y-108557037D01*
X126027851Y-108567968D01*
X126147835Y-108726851D01*
X126274036Y-108841899D01*
X126305090Y-108870208D01*
X126305092Y-108870210D01*
X126486007Y-108982228D01*
X126486013Y-108982231D01*
X126528048Y-108998515D01*
X126684434Y-109059099D01*
X126893604Y-109098200D01*
X126893606Y-109098200D01*
X127106394Y-109098200D01*
X127106396Y-109098200D01*
X127315566Y-109059099D01*
X127513989Y-108982230D01*
X127694909Y-108870209D01*
X127852165Y-108726851D01*
X127980402Y-108557039D01*
X128063864Y-108389424D01*
X128075249Y-108366560D01*
X128075249Y-108366559D01*
X128075248Y-108366559D01*
X128075251Y-108366555D01*
X128133485Y-108161885D01*
X128153119Y-107950000D01*
X128144784Y-107860056D01*
X128133485Y-107738115D01*
X128110739Y-107658171D01*
X128075251Y-107533445D01*
X128075249Y-107533440D01*
X128075249Y-107533439D01*
X127980403Y-107342962D01*
X127937656Y-107286357D01*
X127852165Y-107173149D01*
X127819820Y-107143663D01*
X127694909Y-107029791D01*
X127694907Y-107029789D01*
X127513992Y-106917771D01*
X127513986Y-106917768D01*
X127316810Y-106841383D01*
X127315566Y-106840901D01*
X127106868Y-106801888D01*
X127044589Y-106770221D01*
X127009316Y-106709908D01*
X127012250Y-106640100D01*
X127052459Y-106582960D01*
X127106868Y-106558111D01*
X127315566Y-106519099D01*
X127513989Y-106442230D01*
X127694909Y-106330209D01*
X127852165Y-106186851D01*
X127980402Y-106017039D01*
X128011530Y-105954526D01*
X128075249Y-105826560D01*
X128075249Y-105826559D01*
X128075248Y-105826559D01*
X128075251Y-105826555D01*
X128133485Y-105621885D01*
X128153119Y-105410000D01*
X128152757Y-105406098D01*
X128133485Y-105198115D01*
X128112306Y-105123678D01*
X128075251Y-104993445D01*
X128075249Y-104993440D01*
X128075249Y-104993439D01*
X127980403Y-104802962D01*
X127852163Y-104633147D01*
X127694909Y-104489791D01*
X127694907Y-104489789D01*
X127513992Y-104377771D01*
X127513986Y-104377768D01*
X127357603Y-104317186D01*
X127315566Y-104300901D01*
X127106868Y-104261888D01*
X127044589Y-104230221D01*
X127009316Y-104169908D01*
X127012250Y-104100100D01*
X127052459Y-104042960D01*
X127106868Y-104018111D01*
X127315566Y-103979099D01*
X127513989Y-103902230D01*
X127694909Y-103790209D01*
X127852165Y-103646851D01*
X127980402Y-103477039D01*
X127980403Y-103477037D01*
X128075249Y-103286560D01*
X128075249Y-103286559D01*
X128075248Y-103286559D01*
X128075251Y-103286555D01*
X128133485Y-103081885D01*
X128153119Y-102870000D01*
X128133485Y-102658115D01*
X128075251Y-102453445D01*
X128075249Y-102453440D01*
X128075249Y-102453439D01*
X127980403Y-102262962D01*
X127852163Y-102093147D01*
X127694909Y-101949791D01*
X127694907Y-101949789D01*
X127513992Y-101837771D01*
X127513986Y-101837768D01*
X127315564Y-101760900D01*
X127267472Y-101751910D01*
X127205191Y-101720242D01*
X127169919Y-101659929D01*
X127172853Y-101590121D01*
X127202573Y-101542346D01*
X127281163Y-101463755D01*
X127324048Y-101435813D01*
X127494590Y-101369745D01*
X127513989Y-101362230D01*
X127694909Y-101250209D01*
X127694909Y-101250208D01*
X127694912Y-101250207D01*
X127830547Y-101126558D01*
X127852165Y-101106851D01*
X127980402Y-100937039D01*
X128010139Y-100877319D01*
X128075249Y-100746560D01*
X128075249Y-100746559D01*
X128075248Y-100746559D01*
X128075251Y-100746555D01*
X128133485Y-100541885D01*
X128153119Y-100330000D01*
X128133485Y-100118115D01*
X128075251Y-99913445D01*
X128075249Y-99913440D01*
X128075249Y-99913439D01*
X127980403Y-99722962D01*
X127852163Y-99553147D01*
X127694909Y-99409791D01*
X127694907Y-99409789D01*
X127513992Y-99297771D01*
X127513986Y-99297768D01*
X127347200Y-99233156D01*
X127315566Y-99220901D01*
X127106868Y-99181888D01*
X127044589Y-99150221D01*
X127009316Y-99089908D01*
X127012250Y-99020100D01*
X127052459Y-98962960D01*
X127106868Y-98938111D01*
X127315566Y-98899099D01*
X127513989Y-98822230D01*
X127694909Y-98710209D01*
X127852165Y-98566851D01*
X127980402Y-98397039D01*
X128046690Y-98263914D01*
X128075249Y-98206560D01*
X128075249Y-98206559D01*
X128075248Y-98206559D01*
X128075251Y-98206555D01*
X128133485Y-98001885D01*
X128153119Y-97790000D01*
X128133485Y-97578115D01*
X128075251Y-97373445D01*
X128075249Y-97373440D01*
X128075249Y-97373439D01*
X127980403Y-97182962D01*
X127852163Y-97013147D01*
X127694909Y-96869791D01*
X127694907Y-96869789D01*
X127513992Y-96757771D01*
X127513986Y-96757768D01*
X127325238Y-96684648D01*
X127315566Y-96680901D01*
X127106868Y-96641888D01*
X127044589Y-96610221D01*
X127009316Y-96549908D01*
X127012250Y-96480100D01*
X127052459Y-96422960D01*
X127106868Y-96398111D01*
X127315566Y-96359099D01*
X127513989Y-96282230D01*
X127694909Y-96170209D01*
X127852165Y-96026851D01*
X127980402Y-95857039D01*
X128033701Y-95750000D01*
X128075249Y-95666560D01*
X128075249Y-95666559D01*
X128075248Y-95666559D01*
X128075251Y-95666555D01*
X128133485Y-95461885D01*
X128153119Y-95250000D01*
X128153118Y-95249994D01*
X128133485Y-95038115D01*
X128126736Y-95014394D01*
X128075251Y-94833445D01*
X128075249Y-94833440D01*
X128075249Y-94833439D01*
X127980403Y-94642962D01*
X127852163Y-94473147D01*
X127694909Y-94329791D01*
X127694907Y-94329789D01*
X127513992Y-94217771D01*
X127513986Y-94217768D01*
X127319079Y-94142262D01*
X127315566Y-94140901D01*
X127106868Y-94101888D01*
X127044589Y-94070221D01*
X127009316Y-94009908D01*
X127012250Y-93940100D01*
X127052459Y-93882960D01*
X127106868Y-93858111D01*
X127315566Y-93819099D01*
X127513989Y-93742230D01*
X127694909Y-93630209D01*
X127852165Y-93486851D01*
X127980402Y-93317039D01*
X128060342Y-93156497D01*
X128075249Y-93126560D01*
X128075249Y-93126559D01*
X128075248Y-93126559D01*
X128075251Y-93126555D01*
X128133485Y-92921885D01*
X128153119Y-92710000D01*
X128133485Y-92498115D01*
X128075251Y-92293445D01*
X128075249Y-92293440D01*
X128075249Y-92293439D01*
X127980403Y-92102962D01*
X127852163Y-91933147D01*
X127694909Y-91789791D01*
X127694907Y-91789789D01*
X127513992Y-91677771D01*
X127513986Y-91677768D01*
X127351397Y-91614782D01*
X127315566Y-91600901D01*
X127106396Y-91561800D01*
X126893604Y-91561800D01*
X126684434Y-91600901D01*
X126684431Y-91600901D01*
X126684431Y-91600902D01*
X126486013Y-91677768D01*
X126486007Y-91677771D01*
X126305092Y-91789789D01*
X126305090Y-91789791D01*
X126147836Y-91933147D01*
X126019596Y-92102962D01*
X125924750Y-92293439D01*
X125924750Y-92293440D01*
X125866514Y-92498115D01*
X125846881Y-92709999D01*
X125846881Y-92710000D01*
X125866514Y-92921884D01*
X125924750Y-93126559D01*
X125924750Y-93126560D01*
X126019596Y-93317037D01*
X126147836Y-93486852D01*
X126305090Y-93630208D01*
X126305092Y-93630210D01*
X126486007Y-93742228D01*
X126486013Y-93742231D01*
X126504777Y-93749500D01*
X126684434Y-93819099D01*
X126893129Y-93858111D01*
X126955410Y-93889779D01*
X126990683Y-93950092D01*
X126987749Y-94019900D01*
X126947540Y-94077040D01*
X126893129Y-94101888D01*
X126684434Y-94140901D01*
X126684431Y-94140901D01*
X126684431Y-94140902D01*
X126486013Y-94217768D01*
X126486007Y-94217771D01*
X126305092Y-94329789D01*
X126305090Y-94329791D01*
X126147836Y-94473147D01*
X126019596Y-94642962D01*
X125924750Y-94833439D01*
X125924750Y-94833440D01*
X125866514Y-95038115D01*
X125846881Y-95249999D01*
X125846881Y-95250000D01*
X125866514Y-95461884D01*
X125924750Y-95666559D01*
X125924750Y-95666560D01*
X126019596Y-95857037D01*
X126147836Y-96026852D01*
X126305090Y-96170208D01*
X126305092Y-96170210D01*
X126486007Y-96282228D01*
X126486013Y-96282231D01*
X126528048Y-96298515D01*
X126684434Y-96359099D01*
X126893129Y-96398111D01*
X126955410Y-96429779D01*
X126990683Y-96490092D01*
X126987749Y-96559900D01*
X126947540Y-96617040D01*
X126893129Y-96641888D01*
X126684434Y-96680901D01*
X126684431Y-96680901D01*
X126684431Y-96680902D01*
X126486013Y-96757768D01*
X126486007Y-96757771D01*
X126305092Y-96869789D01*
X126305090Y-96869791D01*
X126147836Y-97013147D01*
X126019596Y-97182962D01*
X125924750Y-97373439D01*
X125924750Y-97373440D01*
X125866514Y-97578115D01*
X125846881Y-97789999D01*
X125846881Y-97790000D01*
X125866514Y-98001884D01*
X125924750Y-98206559D01*
X125924750Y-98206560D01*
X126019596Y-98397037D01*
X126087631Y-98487129D01*
X126147835Y-98566851D01*
X126274036Y-98681899D01*
X126305090Y-98710208D01*
X126305092Y-98710210D01*
X126486007Y-98822228D01*
X126486013Y-98822231D01*
X126528048Y-98838515D01*
X126684434Y-98899099D01*
X126893129Y-98938111D01*
X126955410Y-98969779D01*
X126990683Y-99030092D01*
X126987749Y-99099900D01*
X126947540Y-99157040D01*
X126893129Y-99181888D01*
X126684434Y-99220901D01*
X126684431Y-99220901D01*
X126684431Y-99220902D01*
X126486013Y-99297768D01*
X126486007Y-99297771D01*
X126305092Y-99409789D01*
X126305090Y-99409791D01*
X126147836Y-99553147D01*
X126019596Y-99722962D01*
X125924751Y-99913438D01*
X125902986Y-99989932D01*
X125871401Y-100043677D01*
X123518999Y-102396080D01*
X121282221Y-104632858D01*
X121282218Y-104632861D01*
X121212538Y-104702540D01*
X121142859Y-104772219D01*
X121033371Y-104936079D01*
X121033364Y-104936092D01*
X120957950Y-105118160D01*
X120957947Y-105118170D01*
X120919500Y-105311456D01*
X120919500Y-109365500D01*
X120899815Y-109432539D01*
X120847011Y-109478294D01*
X120795500Y-109489500D01*
X118575782Y-109489500D01*
X118508743Y-109469815D01*
X118488101Y-109453181D01*
X117876819Y-108841899D01*
X117843334Y-108780576D01*
X117840500Y-108754218D01*
X117840500Y-107851456D01*
X117840499Y-107851454D01*
X117824713Y-107772093D01*
X117802051Y-107658165D01*
X117795376Y-107642051D01*
X117757828Y-107551401D01*
X117750463Y-107533621D01*
X117726635Y-107476093D01*
X117726634Y-107476092D01*
X117726632Y-107476086D01*
X117679449Y-107405471D01*
X117617140Y-107312219D01*
X117617139Y-107312218D01*
X117477782Y-107172861D01*
X117477781Y-107172860D01*
X115428597Y-105123677D01*
X115397013Y-105069932D01*
X115375251Y-104993445D01*
X115346690Y-104936086D01*
X115280403Y-104802962D01*
X115152163Y-104633147D01*
X114994909Y-104489791D01*
X114994907Y-104489789D01*
X114813992Y-104377771D01*
X114813986Y-104377768D01*
X114657603Y-104317186D01*
X114615566Y-104300901D01*
X114406868Y-104261888D01*
X114344589Y-104230221D01*
X114309316Y-104169908D01*
X114312250Y-104100100D01*
X114352459Y-104042960D01*
X114406868Y-104018111D01*
X114615566Y-103979099D01*
X114813989Y-103902230D01*
X114830986Y-103891706D01*
X114835239Y-103889073D01*
X114900516Y-103870500D01*
X116938542Y-103870500D01*
X116957870Y-103866655D01*
X117035188Y-103851275D01*
X117131836Y-103832051D01*
X117185165Y-103809961D01*
X117313914Y-103756632D01*
X117477782Y-103647139D01*
X117617139Y-103507782D01*
X117617140Y-103507779D01*
X117624206Y-103500714D01*
X117624209Y-103500710D01*
X118052242Y-103072676D01*
X118113563Y-103039193D01*
X118183255Y-103044177D01*
X118239188Y-103086049D01*
X118259187Y-103126424D01*
X118304750Y-103286558D01*
X118304750Y-103286560D01*
X118399596Y-103477037D01*
X118441657Y-103532734D01*
X118527835Y-103646851D01*
X118648254Y-103756628D01*
X118685090Y-103790208D01*
X118685092Y-103790210D01*
X118866007Y-103902228D01*
X118866013Y-103902231D01*
X118908048Y-103918515D01*
X119064434Y-103979099D01*
X119273129Y-104018111D01*
X119335410Y-104049779D01*
X119370683Y-104110092D01*
X119367749Y-104179900D01*
X119327540Y-104237040D01*
X119273129Y-104261888D01*
X119064434Y-104300901D01*
X119064431Y-104300901D01*
X119064431Y-104300902D01*
X118866013Y-104377768D01*
X118866007Y-104377771D01*
X118685092Y-104489789D01*
X118685090Y-104489791D01*
X118527836Y-104633147D01*
X118399596Y-104802962D01*
X118304750Y-104993439D01*
X118304750Y-104993440D01*
X118246514Y-105198115D01*
X118226881Y-105409999D01*
X118226881Y-105410000D01*
X118246514Y-105621884D01*
X118304750Y-105826559D01*
X118304750Y-105826560D01*
X118399596Y-106017037D01*
X118485089Y-106130247D01*
X118522661Y-106180000D01*
X118527836Y-106186852D01*
X118560187Y-106216344D01*
X118648254Y-106296628D01*
X118685090Y-106330208D01*
X118685092Y-106330210D01*
X118866007Y-106442228D01*
X118866013Y-106442231D01*
X118894816Y-106453389D01*
X119064434Y-106519099D01*
X119273604Y-106558200D01*
X119273607Y-106558200D01*
X119274490Y-106558365D01*
X119336771Y-106590033D01*
X119372044Y-106650346D01*
X119369110Y-106720154D01*
X119328901Y-106777294D01*
X119274490Y-106802143D01*
X119064573Y-106841383D01*
X119064572Y-106841383D01*
X118866237Y-106918218D01*
X118764662Y-106981109D01*
X119339854Y-107556300D01*
X119328168Y-107556300D01*
X119228038Y-107583130D01*
X119138263Y-107634962D01*
X119064962Y-107708263D01*
X119013130Y-107798038D01*
X118986300Y-107898168D01*
X118986300Y-107909853D01*
X118408477Y-107332031D01*
X118408476Y-107332031D01*
X118400025Y-107343224D01*
X118400023Y-107343228D01*
X118305218Y-107533621D01*
X118305218Y-107533623D01*
X118247008Y-107738206D01*
X118227383Y-107949999D01*
X118227383Y-107950000D01*
X118247008Y-108161793D01*
X118305217Y-108366372D01*
X118400025Y-108556775D01*
X118408477Y-108567968D01*
X118986300Y-107990145D01*
X118986300Y-108001832D01*
X119013130Y-108101962D01*
X119064962Y-108191737D01*
X119138263Y-108265038D01*
X119228038Y-108316870D01*
X119328168Y-108343700D01*
X119339853Y-108343700D01*
X118764662Y-108918889D01*
X118866235Y-108981780D01*
X118866236Y-108981781D01*
X119064563Y-109058613D01*
X119064573Y-109058616D01*
X119273653Y-109097700D01*
X119486347Y-109097700D01*
X119695426Y-109058616D01*
X119695436Y-109058613D01*
X119893765Y-108981780D01*
X119893767Y-108981779D01*
X119995336Y-108918889D01*
X119420148Y-108343700D01*
X119431832Y-108343700D01*
X119531962Y-108316870D01*
X119621737Y-108265038D01*
X119695038Y-108191737D01*
X119746870Y-108101962D01*
X119773700Y-108001832D01*
X119773700Y-107990146D01*
X120351521Y-108567967D01*
X120359974Y-108556775D01*
X120454782Y-108366372D01*
X120512991Y-108161793D01*
X120532617Y-107950000D01*
X120532617Y-107949999D01*
X120512991Y-107738206D01*
X120454781Y-107533623D01*
X120454781Y-107533621D01*
X120359976Y-107343226D01*
X120359975Y-107343224D01*
X120351522Y-107332031D01*
X120351521Y-107332031D01*
X119773700Y-107909852D01*
X119773700Y-107898168D01*
X119746870Y-107798038D01*
X119695038Y-107708263D01*
X119621737Y-107634962D01*
X119531962Y-107583130D01*
X119431832Y-107556300D01*
X119420147Y-107556300D01*
X119995336Y-106981109D01*
X119995335Y-106981108D01*
X119893769Y-106918221D01*
X119893763Y-106918218D01*
X119695426Y-106841383D01*
X119485509Y-106802143D01*
X119423228Y-106770475D01*
X119387955Y-106710163D01*
X119390889Y-106640355D01*
X119431098Y-106583214D01*
X119485509Y-106558365D01*
X119486392Y-106558200D01*
X119486396Y-106558200D01*
X119695566Y-106519099D01*
X119893989Y-106442230D01*
X120074909Y-106330209D01*
X120232165Y-106186851D01*
X120360402Y-106017039D01*
X120391530Y-105954526D01*
X120455249Y-105826560D01*
X120455249Y-105826559D01*
X120455248Y-105826559D01*
X120455251Y-105826555D01*
X120513485Y-105621885D01*
X120533119Y-105410000D01*
X120532757Y-105406098D01*
X120513485Y-105198115D01*
X120492306Y-105123678D01*
X120455251Y-104993445D01*
X120455249Y-104993440D01*
X120455249Y-104993439D01*
X120360403Y-104802962D01*
X120232163Y-104633147D01*
X120074909Y-104489791D01*
X120074907Y-104489789D01*
X119893992Y-104377771D01*
X119893986Y-104377768D01*
X119737603Y-104317186D01*
X119695566Y-104300901D01*
X119486868Y-104261888D01*
X119424589Y-104230221D01*
X119389316Y-104169908D01*
X119392250Y-104100100D01*
X119432459Y-104042960D01*
X119486868Y-104018111D01*
X119695566Y-103979099D01*
X119893989Y-103902230D01*
X120074909Y-103790209D01*
X120232165Y-103646851D01*
X120360402Y-103477039D01*
X120360403Y-103477037D01*
X120455249Y-103286560D01*
X120455249Y-103286559D01*
X120455248Y-103286559D01*
X120455251Y-103286555D01*
X120513485Y-103081885D01*
X120533119Y-102870000D01*
X120513485Y-102658115D01*
X120455251Y-102453445D01*
X120455249Y-102453440D01*
X120455249Y-102453439D01*
X120360403Y-102262962D01*
X120232163Y-102093147D01*
X120074909Y-101949791D01*
X120074907Y-101949789D01*
X119893992Y-101837771D01*
X119893986Y-101837768D01*
X119695564Y-101760900D01*
X119647472Y-101751910D01*
X119585191Y-101720242D01*
X119549919Y-101659929D01*
X119552853Y-101590121D01*
X119582575Y-101542343D01*
X119661161Y-101463757D01*
X119704045Y-101435814D01*
X119893989Y-101362230D01*
X120074909Y-101250209D01*
X120074909Y-101250208D01*
X120074912Y-101250207D01*
X120210547Y-101126558D01*
X120232165Y-101106851D01*
X120360402Y-100937039D01*
X120390139Y-100877319D01*
X120455249Y-100746560D01*
X120455249Y-100746559D01*
X120455248Y-100746559D01*
X120455251Y-100746555D01*
X120513485Y-100541885D01*
X120533119Y-100330000D01*
X120513485Y-100118115D01*
X120455251Y-99913445D01*
X120455249Y-99913440D01*
X120455249Y-99913439D01*
X120360403Y-99722962D01*
X120232163Y-99553147D01*
X120074909Y-99409791D01*
X120074907Y-99409789D01*
X119893992Y-99297771D01*
X119893986Y-99297768D01*
X119727200Y-99233156D01*
X119695566Y-99220901D01*
X119486868Y-99181888D01*
X119424589Y-99150221D01*
X119389316Y-99089908D01*
X119392250Y-99020100D01*
X119432459Y-98962960D01*
X119486868Y-98938111D01*
X119695566Y-98899099D01*
X119893989Y-98822230D01*
X119909088Y-98812880D01*
X119915239Y-98809073D01*
X119980516Y-98790500D01*
X123288543Y-98790500D01*
X123418582Y-98764632D01*
X123481835Y-98752051D01*
X123663914Y-98676632D01*
X123827782Y-98567139D01*
X123967139Y-98427782D01*
X124076632Y-98263914D01*
X124152051Y-98081835D01*
X124168691Y-97998181D01*
X124190500Y-97888543D01*
X124190500Y-90635782D01*
X124210185Y-90568743D01*
X124226819Y-90548101D01*
X124838101Y-89936819D01*
X124899424Y-89903334D01*
X124925782Y-89900500D01*
X126534218Y-89900500D01*
X126601257Y-89920185D01*
X126621899Y-89936819D01*
X128503181Y-91818101D01*
X128536666Y-91879424D01*
X128539500Y-91905782D01*
X128539500Y-111858541D01*
X128539500Y-111858543D01*
X128539499Y-111858543D01*
X128577947Y-112051829D01*
X128577950Y-112051839D01*
X128653364Y-112233907D01*
X128653371Y-112233920D01*
X128762859Y-112397780D01*
X128762860Y-112397781D01*
X128762861Y-112397782D01*
X128902218Y-112537139D01*
X128902219Y-112537139D01*
X128909286Y-112544206D01*
X128909285Y-112544206D01*
X128909288Y-112544208D01*
X131302860Y-114937781D01*
X131302861Y-114937782D01*
X131442218Y-115077139D01*
X131606086Y-115186632D01*
X131712745Y-115230811D01*
X131788164Y-115262051D01*
X131981454Y-115300499D01*
X131981457Y-115300500D01*
X131981459Y-115300500D01*
X147418542Y-115300500D01*
X147437870Y-115296655D01*
X147515188Y-115281275D01*
X147611836Y-115262051D01*
X147665165Y-115239961D01*
X147793914Y-115186632D01*
X147957782Y-115077139D01*
X148097139Y-114937782D01*
X148097139Y-114937780D01*
X148107347Y-114927573D01*
X148107348Y-114927570D01*
X148734919Y-114300000D01*
X167134709Y-114300000D01*
X167153856Y-114640959D01*
X167153858Y-114640971D01*
X167211060Y-114977637D01*
X167211062Y-114977646D01*
X167271269Y-115186628D01*
X167305601Y-115305796D01*
X167409221Y-115555956D01*
X167436287Y-115621300D01*
X167601480Y-115920196D01*
X167601483Y-115920201D01*
X167799092Y-116198703D01*
X167799096Y-116198708D01*
X168026654Y-116453346D01*
X168281292Y-116680904D01*
X168281295Y-116680906D01*
X168281296Y-116680907D01*
X168559798Y-116878516D01*
X168559803Y-116878519D01*
X168559806Y-116878520D01*
X168559808Y-116878522D01*
X168858698Y-117043712D01*
X169174204Y-117174399D01*
X169502359Y-117268939D01*
X169839036Y-117326143D01*
X170180000Y-117345291D01*
X170520964Y-117326143D01*
X170857641Y-117268939D01*
X171185796Y-117174399D01*
X171501302Y-117043712D01*
X171800192Y-116878522D01*
X171800197Y-116878518D01*
X171800201Y-116878516D01*
X171915310Y-116796840D01*
X172078708Y-116680904D01*
X172333346Y-116453346D01*
X172560904Y-116198708D01*
X172676840Y-116035310D01*
X172758516Y-115920201D01*
X172758519Y-115920196D01*
X172758522Y-115920192D01*
X172923712Y-115621302D01*
X173054399Y-115305796D01*
X173148939Y-114977641D01*
X173206143Y-114640964D01*
X173225291Y-114300000D01*
X173206143Y-113959036D01*
X173148939Y-113622359D01*
X173054399Y-113294204D01*
X172923712Y-112978698D01*
X172758522Y-112679808D01*
X172758520Y-112679806D01*
X172758519Y-112679803D01*
X172758516Y-112679798D01*
X172560907Y-112401296D01*
X172560906Y-112401295D01*
X172560904Y-112401292D01*
X172333346Y-112146654D01*
X172078708Y-111919096D01*
X172078705Y-111919094D01*
X172078703Y-111919092D01*
X171800201Y-111721483D01*
X171800196Y-111721480D01*
X171501300Y-111556287D01*
X171406887Y-111517180D01*
X171185796Y-111425601D01*
X171015832Y-111376635D01*
X170857646Y-111331062D01*
X170857637Y-111331060D01*
X170520971Y-111273858D01*
X170520959Y-111273856D01*
X170180000Y-111254709D01*
X169839040Y-111273856D01*
X169839028Y-111273858D01*
X169502362Y-111331060D01*
X169502353Y-111331062D01*
X169180469Y-111423796D01*
X169174204Y-111425601D01*
X169140898Y-111439397D01*
X168858699Y-111556287D01*
X168559803Y-111721480D01*
X168559798Y-111721483D01*
X168281296Y-111919092D01*
X168026654Y-112146654D01*
X167799092Y-112401296D01*
X167601483Y-112679798D01*
X167601480Y-112679803D01*
X167436287Y-112978699D01*
X167305600Y-113294207D01*
X167211062Y-113622353D01*
X167211060Y-113622362D01*
X167153858Y-113959028D01*
X167153856Y-113959040D01*
X167134709Y-114300000D01*
X148734919Y-114300000D01*
X150637139Y-112397782D01*
X150650184Y-112378259D01*
X150746632Y-112233914D01*
X150822051Y-112051835D01*
X150860500Y-111858541D01*
X150860500Y-107640758D01*
X150880185Y-107573719D01*
X150896819Y-107553077D01*
X150898495Y-107551401D01*
X151028425Y-107365842D01*
X151083002Y-107322217D01*
X151152500Y-107315023D01*
X151214855Y-107346546D01*
X151231575Y-107365842D01*
X151349056Y-107533623D01*
X151361505Y-107551401D01*
X151528599Y-107718495D01*
X151586482Y-107759025D01*
X151722165Y-107854032D01*
X151722167Y-107854033D01*
X151722170Y-107854035D01*
X151936337Y-107953903D01*
X152164592Y-108015063D01*
X152335319Y-108030000D01*
X152399999Y-108035659D01*
X152400000Y-108035659D01*
X152400001Y-108035659D01*
X152464681Y-108030000D01*
X152635408Y-108015063D01*
X152863663Y-107953903D01*
X153077830Y-107854035D01*
X153271401Y-107718495D01*
X153438495Y-107551401D01*
X153568425Y-107365842D01*
X153623002Y-107322217D01*
X153692500Y-107315023D01*
X153754855Y-107346546D01*
X153771575Y-107365842D01*
X153889056Y-107533623D01*
X153901505Y-107551401D01*
X154068599Y-107718495D01*
X154126482Y-107759025D01*
X154262165Y-107854032D01*
X154262167Y-107854033D01*
X154262170Y-107854035D01*
X154476337Y-107953903D01*
X154704592Y-108015063D01*
X154830096Y-108026043D01*
X154895164Y-108051495D01*
X154906969Y-108061890D01*
X156702860Y-109857781D01*
X156702861Y-109857782D01*
X156842215Y-109997136D01*
X156842219Y-109997140D01*
X156848683Y-110001459D01*
X157006086Y-110106632D01*
X157112745Y-110150811D01*
X157188164Y-110182051D01*
X157381454Y-110220499D01*
X157381457Y-110220500D01*
X157381459Y-110220500D01*
X175358543Y-110220500D01*
X175488582Y-110194632D01*
X175551835Y-110182051D01*
X175733914Y-110106632D01*
X175897782Y-109997139D01*
X176037139Y-109857782D01*
X176146632Y-109693914D01*
X176222051Y-109511835D01*
X176237824Y-109432539D01*
X176260500Y-109318543D01*
X176260500Y-87531456D01*
X176260499Y-87531454D01*
X176236870Y-87412665D01*
X176222051Y-87338165D01*
X176215376Y-87322051D01*
X176206227Y-87299964D01*
X176184137Y-87246632D01*
X176146635Y-87156093D01*
X176146634Y-87156092D01*
X176146632Y-87156086D01*
X176112500Y-87105004D01*
X176037139Y-86992217D01*
X175894686Y-86849764D01*
X175894655Y-86849735D01*
X175516479Y-86471559D01*
X175516459Y-86471537D01*
X175372785Y-86327863D01*
X175372781Y-86327860D01*
X175208920Y-86218371D01*
X175208907Y-86218364D01*
X175077097Y-86163768D01*
X175026836Y-86142949D01*
X175026828Y-86142947D01*
X174930188Y-86123724D01*
X174833544Y-86104500D01*
X174833541Y-86104500D01*
X172886864Y-86104500D01*
X172819825Y-86084815D01*
X172789917Y-86057813D01*
X172738334Y-85993130D01*
X172700050Y-85945123D01*
X172513217Y-85771768D01*
X172513214Y-85771765D01*
X172504646Y-85765924D01*
X172460345Y-85711894D01*
X172450500Y-85663472D01*
X172450500Y-83991527D01*
X172470185Y-83924488D01*
X172504647Y-83889074D01*
X172513217Y-83883232D01*
X172700050Y-83709877D01*
X172858959Y-83510612D01*
X172986393Y-83289888D01*
X173079508Y-83052637D01*
X173136222Y-82804157D01*
X173147147Y-82658369D01*
X173155268Y-82550004D01*
X173155268Y-82549995D01*
X173136222Y-82295845D01*
X173132760Y-82280678D01*
X173079508Y-82047363D01*
X172986393Y-81810112D01*
X172858959Y-81589388D01*
X172700050Y-81390123D01*
X172513217Y-81216768D01*
X172302634Y-81073195D01*
X172302630Y-81073193D01*
X172302627Y-81073191D01*
X172302626Y-81073190D01*
X172073006Y-80962612D01*
X172073008Y-80962612D01*
X171829466Y-80887489D01*
X171829462Y-80887488D01*
X171829458Y-80887487D01*
X171708231Y-80869214D01*
X171577440Y-80849500D01*
X171577435Y-80849500D01*
X171322565Y-80849500D01*
X171322559Y-80849500D01*
X171165609Y-80873157D01*
X171070542Y-80887487D01*
X171070539Y-80887488D01*
X171070533Y-80887489D01*
X170826992Y-80962612D01*
X170597373Y-81073190D01*
X170597372Y-81073191D01*
X170386782Y-81216768D01*
X170199952Y-81390121D01*
X170199950Y-81390123D01*
X170041041Y-81589388D01*
X169913608Y-81810109D01*
X169820492Y-82047362D01*
X169820490Y-82047369D01*
X169763777Y-82295845D01*
X169744732Y-82549995D01*
X169744732Y-82550004D01*
X169763777Y-82804154D01*
X169818260Y-83042861D01*
X169820492Y-83052637D01*
X169913607Y-83289888D01*
X170041041Y-83510612D01*
X170199950Y-83709877D01*
X170199955Y-83709881D01*
X170199958Y-83709885D01*
X170386774Y-83883225D01*
X170386779Y-83883228D01*
X170386783Y-83883232D01*
X170395351Y-83889073D01*
X170439652Y-83943099D01*
X170449500Y-83991527D01*
X170449500Y-85663472D01*
X170429815Y-85730511D01*
X170395354Y-85765924D01*
X170386785Y-85771765D01*
X170199952Y-85945121D01*
X170199950Y-85945123D01*
X170041041Y-86144388D01*
X169913608Y-86365109D01*
X169820492Y-86602362D01*
X169820490Y-86602369D01*
X169763777Y-86850845D01*
X169744732Y-87104995D01*
X169744732Y-87105004D01*
X169763777Y-87359154D01*
X169820107Y-87605954D01*
X169820492Y-87607637D01*
X169913607Y-87844888D01*
X170041041Y-88065612D01*
X170199950Y-88264877D01*
X170386783Y-88438232D01*
X170597366Y-88581805D01*
X170597371Y-88581807D01*
X170597372Y-88581808D01*
X170597373Y-88581809D01*
X170698482Y-88630500D01*
X170826992Y-88692387D01*
X170826993Y-88692387D01*
X170826996Y-88692389D01*
X171070542Y-88767513D01*
X171322565Y-88805500D01*
X171577435Y-88805500D01*
X171829458Y-88767513D01*
X172073004Y-88692389D01*
X172302634Y-88581805D01*
X172513217Y-88438232D01*
X172700050Y-88264877D01*
X172789917Y-88152186D01*
X172847106Y-88112047D01*
X172886864Y-88105500D01*
X174135500Y-88105500D01*
X174202539Y-88125185D01*
X174248294Y-88177989D01*
X174259500Y-88229500D01*
X174259500Y-93514217D01*
X174239815Y-93581256D01*
X174223181Y-93601898D01*
X172662181Y-95162898D01*
X172600858Y-95196383D01*
X172531166Y-95191399D01*
X172475233Y-95149527D01*
X172450816Y-95084063D01*
X172450500Y-95075217D01*
X172450500Y-93626527D01*
X172470185Y-93559488D01*
X172504647Y-93524074D01*
X172513217Y-93518232D01*
X172517545Y-93514217D01*
X172634645Y-93405564D01*
X172700050Y-93344877D01*
X172858959Y-93145612D01*
X172986393Y-92924888D01*
X173079508Y-92687637D01*
X173136222Y-92439157D01*
X173155268Y-92185000D01*
X173136222Y-91930843D01*
X173079508Y-91682363D01*
X172986393Y-91445112D01*
X172858959Y-91224388D01*
X172700050Y-91025123D01*
X172513217Y-90851768D01*
X172302634Y-90708195D01*
X172302630Y-90708193D01*
X172302627Y-90708191D01*
X172302626Y-90708190D01*
X172073006Y-90597612D01*
X172073008Y-90597612D01*
X171829466Y-90522489D01*
X171829462Y-90522488D01*
X171829458Y-90522487D01*
X171708231Y-90504214D01*
X171577440Y-90484500D01*
X171577435Y-90484500D01*
X171322565Y-90484500D01*
X171322559Y-90484500D01*
X171165609Y-90508157D01*
X171070542Y-90522487D01*
X171070539Y-90522488D01*
X171070533Y-90522489D01*
X170826992Y-90597612D01*
X170597373Y-90708190D01*
X170597372Y-90708191D01*
X170386782Y-90851768D01*
X170199952Y-91025121D01*
X170199950Y-91025123D01*
X170041041Y-91224388D01*
X169913608Y-91445109D01*
X169820492Y-91682362D01*
X169820490Y-91682369D01*
X169763777Y-91930845D01*
X169744732Y-92184995D01*
X169744732Y-92185004D01*
X169763777Y-92439154D01*
X169777234Y-92498115D01*
X169820492Y-92687637D01*
X169912428Y-92921885D01*
X169913608Y-92924890D01*
X169920422Y-92936692D01*
X170041041Y-93145612D01*
X170199950Y-93344877D01*
X170199955Y-93344881D01*
X170199958Y-93344885D01*
X170386774Y-93518225D01*
X170386779Y-93518228D01*
X170386783Y-93518232D01*
X170395351Y-93524073D01*
X170439652Y-93578099D01*
X170449500Y-93626527D01*
X170449500Y-94784217D01*
X170429815Y-94851256D01*
X170413181Y-94871898D01*
X168521899Y-96763181D01*
X168460576Y-96796666D01*
X168434218Y-96799500D01*
X167257588Y-96799500D01*
X167190549Y-96779815D01*
X167186465Y-96777075D01*
X167166622Y-96763181D01*
X167032734Y-96669432D01*
X166974724Y-96642381D01*
X166922285Y-96596210D01*
X166903133Y-96529017D01*
X166923348Y-96462135D01*
X166974725Y-96417618D01*
X166975643Y-96417190D01*
X167032734Y-96390568D01*
X167219139Y-96260047D01*
X167380047Y-96099139D01*
X167510568Y-95912734D01*
X167606739Y-95706496D01*
X167665635Y-95486692D01*
X167685468Y-95260000D01*
X167665635Y-95033308D01*
X167616855Y-94851256D01*
X167606741Y-94813511D01*
X167606738Y-94813502D01*
X167605374Y-94810576D01*
X167510568Y-94607266D01*
X167380047Y-94420861D01*
X167380045Y-94420858D01*
X167219140Y-94259953D01*
X167032734Y-94129432D01*
X167032732Y-94129431D01*
X166826497Y-94033261D01*
X166826488Y-94033258D01*
X166606697Y-93974366D01*
X166606693Y-93974365D01*
X166606692Y-93974365D01*
X166606691Y-93974364D01*
X166606686Y-93974364D01*
X166380002Y-93954532D01*
X166379998Y-93954532D01*
X166153313Y-93974364D01*
X166153302Y-93974366D01*
X165933511Y-94033258D01*
X165933502Y-94033261D01*
X165727267Y-94129431D01*
X165727265Y-94129432D01*
X165540860Y-94259953D01*
X165379954Y-94420858D01*
X165249432Y-94607265D01*
X165249431Y-94607267D01*
X165153261Y-94813502D01*
X165153258Y-94813511D01*
X165094366Y-95033302D01*
X165094364Y-95033313D01*
X165074532Y-95259998D01*
X165074532Y-95260001D01*
X165094364Y-95486686D01*
X165094366Y-95486697D01*
X165153258Y-95706488D01*
X165153261Y-95706497D01*
X165249431Y-95912732D01*
X165249432Y-95912734D01*
X165379954Y-96099141D01*
X165540858Y-96260045D01*
X165555340Y-96270185D01*
X165727266Y-96390568D01*
X165784357Y-96417190D01*
X165785275Y-96417618D01*
X165837714Y-96463791D01*
X165856866Y-96530984D01*
X165836650Y-96597865D01*
X165785275Y-96642382D01*
X165727267Y-96669431D01*
X165727265Y-96669432D01*
X165540858Y-96799954D01*
X165379954Y-96960858D01*
X165249432Y-97147265D01*
X165249431Y-97147267D01*
X165153261Y-97353502D01*
X165153258Y-97353511D01*
X165094366Y-97573302D01*
X165094364Y-97573313D01*
X165074532Y-97799998D01*
X165074532Y-97800001D01*
X165094364Y-98026686D01*
X165094366Y-98026697D01*
X165153258Y-98246488D01*
X165153261Y-98246497D01*
X165249431Y-98452732D01*
X165249432Y-98452734D01*
X165379954Y-98639141D01*
X165540858Y-98800045D01*
X165569621Y-98820185D01*
X165727266Y-98930568D01*
X165785275Y-98957618D01*
X165837714Y-99003791D01*
X165856866Y-99070984D01*
X165836650Y-99137865D01*
X165785275Y-99182382D01*
X165727267Y-99209431D01*
X165727265Y-99209432D01*
X165540858Y-99339954D01*
X165379954Y-99500858D01*
X165249432Y-99687265D01*
X165249431Y-99687267D01*
X165153261Y-99893502D01*
X165153258Y-99893511D01*
X165094366Y-100113302D01*
X165094364Y-100113313D01*
X165074532Y-100339998D01*
X165074532Y-100340001D01*
X165094364Y-100566686D01*
X165094366Y-100566697D01*
X165153258Y-100786488D01*
X165153261Y-100786497D01*
X165249431Y-100992732D01*
X165249432Y-100992734D01*
X165379954Y-101179141D01*
X165540858Y-101340045D01*
X165555075Y-101350000D01*
X165727266Y-101470568D01*
X165785275Y-101497618D01*
X165837714Y-101543791D01*
X165856866Y-101610984D01*
X165836650Y-101677865D01*
X165785275Y-101722382D01*
X165727267Y-101749431D01*
X165727265Y-101749432D01*
X165540860Y-101879953D01*
X165379954Y-102040858D01*
X165249432Y-102227265D01*
X165249431Y-102227267D01*
X165153261Y-102433502D01*
X165153258Y-102433511D01*
X165094366Y-102653302D01*
X165094364Y-102653313D01*
X165074532Y-102879998D01*
X165074532Y-102880001D01*
X165094364Y-103106686D01*
X165094366Y-103106697D01*
X165153258Y-103326488D01*
X165153261Y-103326497D01*
X165249431Y-103532732D01*
X165249432Y-103532734D01*
X165379954Y-103719141D01*
X165540858Y-103880045D01*
X165557512Y-103891706D01*
X165727266Y-104010568D01*
X165933504Y-104106739D01*
X165933509Y-104106740D01*
X165933511Y-104106741D01*
X165986415Y-104120916D01*
X166153308Y-104165635D01*
X166315230Y-104179801D01*
X166379998Y-104185468D01*
X166380000Y-104185468D01*
X166380002Y-104185468D01*
X166443642Y-104179900D01*
X166606692Y-104165635D01*
X166826496Y-104106739D01*
X167032734Y-104010568D01*
X167219139Y-103880047D01*
X167380047Y-103719139D01*
X167510568Y-103532734D01*
X167606739Y-103326496D01*
X167665635Y-103106692D01*
X167671040Y-103044905D01*
X167696492Y-102979838D01*
X167706871Y-102968048D01*
X168038104Y-102636816D01*
X168099425Y-102603334D01*
X168125783Y-102600500D01*
X170277145Y-102600500D01*
X170344184Y-102620185D01*
X170368374Y-102640517D01*
X170430252Y-102707734D01*
X170430256Y-102707738D01*
X170626491Y-102860474D01*
X170845190Y-102978828D01*
X171080386Y-103059571D01*
X171325665Y-103100500D01*
X171574335Y-103100500D01*
X171819614Y-103059571D01*
X172054810Y-102978828D01*
X172273509Y-102860474D01*
X172469744Y-102707738D01*
X172638164Y-102524785D01*
X172774173Y-102316607D01*
X172874063Y-102088881D01*
X172935108Y-101847821D01*
X172936564Y-101830255D01*
X172955643Y-101600005D01*
X172955643Y-101599994D01*
X172935109Y-101352187D01*
X172935107Y-101352175D01*
X172874063Y-101111118D01*
X172774173Y-100883393D01*
X172638166Y-100675217D01*
X172538266Y-100566697D01*
X172469744Y-100492262D01*
X172273509Y-100339526D01*
X172273507Y-100339525D01*
X172273506Y-100339524D01*
X172054811Y-100221172D01*
X172054802Y-100221169D01*
X171819616Y-100140429D01*
X171574335Y-100099500D01*
X171325665Y-100099500D01*
X171080383Y-100140429D01*
X170845197Y-100221169D01*
X170845183Y-100221175D01*
X170696969Y-100301384D01*
X170628641Y-100315979D01*
X170563269Y-100291316D01*
X170521608Y-100235225D01*
X170516886Y-100165515D01*
X170550269Y-100104650D01*
X174047819Y-96607101D01*
X174109142Y-96573616D01*
X174178834Y-96578600D01*
X174234767Y-96620472D01*
X174259184Y-96685936D01*
X174259500Y-96694782D01*
X174259500Y-108095500D01*
X174239815Y-108162539D01*
X174187011Y-108208294D01*
X174135500Y-108219500D01*
X172095305Y-108219500D01*
X172028266Y-108199815D01*
X171982511Y-108147011D01*
X171972567Y-108077853D01*
X172001592Y-108014297D01*
X172050341Y-107981392D01*
X172049917Y-107980425D01*
X172054614Y-107978364D01*
X172273228Y-107860057D01*
X172273231Y-107860055D01*
X172320056Y-107823609D01*
X171579409Y-107082962D01*
X171642993Y-107065925D01*
X171757007Y-107000099D01*
X171850099Y-106907007D01*
X171915925Y-106792993D01*
X171932962Y-106729410D01*
X172673434Y-107469882D01*
X172773731Y-107316369D01*
X172873587Y-107088717D01*
X172934612Y-106847738D01*
X172934614Y-106847729D01*
X172955141Y-106600005D01*
X172955141Y-106599994D01*
X172934614Y-106352270D01*
X172934612Y-106352261D01*
X172873587Y-106111282D01*
X172773731Y-105883630D01*
X172673434Y-105730116D01*
X171932962Y-106470589D01*
X171915925Y-106407007D01*
X171850099Y-106292993D01*
X171757007Y-106199901D01*
X171642993Y-106134075D01*
X171579410Y-106117037D01*
X172320057Y-105376390D01*
X172320056Y-105376389D01*
X172273229Y-105339943D01*
X172054614Y-105221635D01*
X172054603Y-105221630D01*
X171819493Y-105140916D01*
X171574293Y-105100000D01*
X171325707Y-105100000D01*
X171080506Y-105140916D01*
X170845396Y-105221630D01*
X170845390Y-105221632D01*
X170626761Y-105339949D01*
X170579942Y-105376388D01*
X170579942Y-105376390D01*
X171320590Y-106117037D01*
X171257007Y-106134075D01*
X171142993Y-106199901D01*
X171049901Y-106292993D01*
X170984075Y-106407007D01*
X170967037Y-106470589D01*
X170226564Y-105730116D01*
X170126267Y-105883632D01*
X170026412Y-106111282D01*
X169965387Y-106352261D01*
X169965385Y-106352270D01*
X169944859Y-106599994D01*
X169944859Y-106600005D01*
X169965385Y-106847729D01*
X169965387Y-106847738D01*
X170026412Y-107088717D01*
X170126266Y-107316364D01*
X170226564Y-107469882D01*
X170967037Y-106729409D01*
X170984075Y-106792993D01*
X171049901Y-106907007D01*
X171142993Y-107000099D01*
X171257007Y-107065925D01*
X171320590Y-107082962D01*
X170579942Y-107823609D01*
X170626768Y-107860055D01*
X170626770Y-107860056D01*
X170845385Y-107978364D01*
X170850083Y-107980425D01*
X170849606Y-107981512D01*
X170901973Y-108018604D01*
X170928104Y-108083403D01*
X170915053Y-108152043D01*
X170866964Y-108202731D01*
X170804695Y-108219500D01*
X157945783Y-108219500D01*
X157878744Y-108199815D01*
X157858102Y-108183181D01*
X156321890Y-106646969D01*
X156288405Y-106585646D01*
X156286043Y-106570095D01*
X156285017Y-106558365D01*
X156275063Y-106444592D01*
X156213903Y-106216337D01*
X156114035Y-106002171D01*
X156108425Y-105994158D01*
X155978494Y-105808597D01*
X155811402Y-105641506D01*
X155811395Y-105641501D01*
X155617834Y-105505967D01*
X155617830Y-105505965D01*
X155546727Y-105472809D01*
X155403663Y-105406097D01*
X155403659Y-105406096D01*
X155403655Y-105406094D01*
X155175413Y-105344938D01*
X155175403Y-105344936D01*
X154940001Y-105324341D01*
X154939999Y-105324341D01*
X154704596Y-105344936D01*
X154704586Y-105344938D01*
X154476344Y-105406094D01*
X154476335Y-105406098D01*
X154262171Y-105505964D01*
X154262169Y-105505965D01*
X154068597Y-105641505D01*
X153901505Y-105808597D01*
X153771575Y-105994158D01*
X153716998Y-106037783D01*
X153647500Y-106044977D01*
X153585145Y-106013454D01*
X153568425Y-105994158D01*
X153438494Y-105808597D01*
X153271402Y-105641506D01*
X153271395Y-105641501D01*
X153077834Y-105505967D01*
X153077830Y-105505965D01*
X153006727Y-105472809D01*
X152863663Y-105406097D01*
X152863659Y-105406096D01*
X152863655Y-105406094D01*
X152635413Y-105344938D01*
X152635403Y-105344936D01*
X152400001Y-105324341D01*
X152399999Y-105324341D01*
X152164596Y-105344936D01*
X152164586Y-105344938D01*
X151936344Y-105406094D01*
X151936335Y-105406098D01*
X151722171Y-105505964D01*
X151722169Y-105505965D01*
X151528597Y-105641505D01*
X151361505Y-105808597D01*
X151231575Y-105994158D01*
X151176998Y-106037783D01*
X151107500Y-106044977D01*
X151045145Y-106013454D01*
X151028425Y-105994158D01*
X150898494Y-105808597D01*
X150731402Y-105641506D01*
X150731395Y-105641501D01*
X150537834Y-105505967D01*
X150537830Y-105505965D01*
X150466727Y-105472809D01*
X150323663Y-105406097D01*
X150323659Y-105406096D01*
X150323655Y-105406094D01*
X150095413Y-105344938D01*
X150095403Y-105344936D01*
X149860001Y-105324341D01*
X149859999Y-105324341D01*
X149624596Y-105344936D01*
X149624586Y-105344938D01*
X149396344Y-105406094D01*
X149396335Y-105406098D01*
X149182171Y-105505964D01*
X149182169Y-105505965D01*
X148988597Y-105641505D01*
X148821505Y-105808597D01*
X148691575Y-105994158D01*
X148636998Y-106037783D01*
X148567500Y-106044977D01*
X148505145Y-106013454D01*
X148488425Y-105994158D01*
X148358494Y-105808597D01*
X148356819Y-105806922D01*
X148356315Y-105806000D01*
X148355014Y-105804449D01*
X148355325Y-105804187D01*
X148323334Y-105745599D01*
X148320500Y-105719241D01*
X148320500Y-104004500D01*
X148340185Y-103937461D01*
X148392989Y-103891706D01*
X148444500Y-103880500D01*
X157882412Y-103880500D01*
X157949451Y-103900185D01*
X157953523Y-103902917D01*
X158107266Y-104010568D01*
X158313504Y-104106739D01*
X158313509Y-104106740D01*
X158313511Y-104106741D01*
X158366415Y-104120916D01*
X158533308Y-104165635D01*
X158695230Y-104179801D01*
X158759998Y-104185468D01*
X158760000Y-104185468D01*
X158760002Y-104185468D01*
X158823642Y-104179900D01*
X158986692Y-104165635D01*
X159206496Y-104106739D01*
X159412734Y-104010568D01*
X159599139Y-103880047D01*
X159760047Y-103719139D01*
X159890568Y-103532734D01*
X159986739Y-103326496D01*
X160045635Y-103106692D01*
X160065468Y-102880000D01*
X160045635Y-102653308D01*
X159986739Y-102433504D01*
X159890568Y-102227266D01*
X159760047Y-102040861D01*
X159760045Y-102040858D01*
X159599140Y-101879953D01*
X159412734Y-101749432D01*
X159412728Y-101749429D01*
X159354725Y-101722382D01*
X159302285Y-101676210D01*
X159283133Y-101609017D01*
X159303348Y-101542135D01*
X159354725Y-101497618D01*
X159412734Y-101470568D01*
X159599139Y-101340047D01*
X159760047Y-101179139D01*
X159890568Y-100992734D01*
X159986739Y-100786496D01*
X160045635Y-100566692D01*
X160065468Y-100340000D01*
X160065426Y-100339524D01*
X160055072Y-100221172D01*
X160045635Y-100113308D01*
X159986739Y-99893504D01*
X159890568Y-99687266D01*
X159760047Y-99500861D01*
X159760045Y-99500858D01*
X159599141Y-99339954D01*
X159412734Y-99209432D01*
X159412728Y-99209429D01*
X159354725Y-99182382D01*
X159302285Y-99136210D01*
X159283133Y-99069017D01*
X159303348Y-99002135D01*
X159354725Y-98957618D01*
X159412734Y-98930568D01*
X159599139Y-98800047D01*
X159760047Y-98639139D01*
X159890568Y-98452734D01*
X159986739Y-98246496D01*
X160045635Y-98026692D01*
X160065468Y-97800000D01*
X160045635Y-97573308D01*
X159986739Y-97353504D01*
X159890568Y-97147266D01*
X159760047Y-96960861D01*
X159760045Y-96960858D01*
X159599143Y-96799956D01*
X159594444Y-96796666D01*
X159573912Y-96782289D01*
X159530287Y-96727712D01*
X159523095Y-96658213D01*
X159554617Y-96595859D01*
X159614847Y-96560445D01*
X159631781Y-96557424D01*
X159667380Y-96553596D01*
X159802086Y-96503354D01*
X159802093Y-96503350D01*
X159917187Y-96417190D01*
X159917190Y-96417187D01*
X160003350Y-96302093D01*
X160003354Y-96302086D01*
X160053596Y-96167379D01*
X160053598Y-96167372D01*
X160059999Y-96107844D01*
X160060000Y-96107827D01*
X160060000Y-95510000D01*
X159075686Y-95510000D01*
X159080080Y-95505606D01*
X159132741Y-95414394D01*
X159160000Y-95312661D01*
X159160000Y-95207339D01*
X159132741Y-95105606D01*
X159080080Y-95014394D01*
X159075686Y-95010000D01*
X160060000Y-95010000D01*
X160060000Y-94412172D01*
X160059999Y-94412155D01*
X160053598Y-94352627D01*
X160053596Y-94352620D01*
X160003354Y-94217913D01*
X160003350Y-94217906D01*
X159917190Y-94102812D01*
X159917187Y-94102809D01*
X159802093Y-94016649D01*
X159802086Y-94016645D01*
X159667379Y-93966403D01*
X159667372Y-93966401D01*
X159607844Y-93960000D01*
X159010000Y-93960000D01*
X159010000Y-94944314D01*
X159005606Y-94939920D01*
X158914394Y-94887259D01*
X158812661Y-94860000D01*
X158707339Y-94860000D01*
X158605606Y-94887259D01*
X158514394Y-94939920D01*
X158510000Y-94944314D01*
X158510000Y-93960000D01*
X157912155Y-93960000D01*
X157852627Y-93966401D01*
X157852620Y-93966403D01*
X157717913Y-94016645D01*
X157717906Y-94016649D01*
X157602812Y-94102809D01*
X157602809Y-94102812D01*
X157516649Y-94217906D01*
X157516645Y-94217913D01*
X157466403Y-94352620D01*
X157466401Y-94352627D01*
X157460000Y-94412155D01*
X157460000Y-95010000D01*
X158444314Y-95010000D01*
X158439920Y-95014394D01*
X158387259Y-95105606D01*
X158360000Y-95207339D01*
X158360000Y-95312661D01*
X158387259Y-95414394D01*
X158439920Y-95505606D01*
X158444314Y-95510000D01*
X157460000Y-95510000D01*
X157460000Y-96107844D01*
X157466401Y-96167372D01*
X157466403Y-96167379D01*
X157516645Y-96302086D01*
X157516649Y-96302093D01*
X157602809Y-96417187D01*
X157602812Y-96417190D01*
X157717906Y-96503350D01*
X157717913Y-96503354D01*
X157852620Y-96553596D01*
X157852627Y-96553598D01*
X157888218Y-96557425D01*
X157952769Y-96584163D01*
X157992618Y-96641555D01*
X157995111Y-96711380D01*
X157959459Y-96771469D01*
X157946088Y-96782287D01*
X157920861Y-96799951D01*
X157759954Y-96960858D01*
X157629432Y-97147265D01*
X157629431Y-97147267D01*
X157533261Y-97353502D01*
X157533259Y-97353508D01*
X157515976Y-97418012D01*
X157479611Y-97477672D01*
X157416764Y-97508201D01*
X157347388Y-97499906D01*
X157308520Y-97473599D01*
X156366819Y-96531898D01*
X156333334Y-96470575D01*
X156330500Y-96444217D01*
X156330500Y-81742684D01*
X156350185Y-81675645D01*
X156402989Y-81629890D01*
X156472147Y-81619946D01*
X156535703Y-81648971D01*
X156569061Y-81695232D01*
X156593364Y-81753907D01*
X156593371Y-81753920D01*
X156702860Y-81917781D01*
X156702863Y-81917785D01*
X156846537Y-82061459D01*
X156846559Y-82061479D01*
X157969735Y-83184655D01*
X157969764Y-83184686D01*
X158112214Y-83327136D01*
X158112218Y-83327139D01*
X158276079Y-83436628D01*
X158276092Y-83436635D01*
X158404833Y-83489961D01*
X158447744Y-83507735D01*
X158458164Y-83512051D01*
X158554812Y-83531275D01*
X158603135Y-83540887D01*
X158651458Y-83550500D01*
X158651459Y-83550500D01*
X158651460Y-83550500D01*
X158848540Y-83550500D01*
X160165500Y-83550500D01*
X160232539Y-83570185D01*
X160278294Y-83622989D01*
X160289500Y-83674500D01*
X160289500Y-84624218D01*
X160269815Y-84691257D01*
X160253181Y-84711899D01*
X159641899Y-85323181D01*
X159580576Y-85356666D01*
X159554218Y-85359500D01*
X158651457Y-85359500D01*
X158458170Y-85397947D01*
X158458160Y-85397950D01*
X158276092Y-85473364D01*
X158276079Y-85473371D01*
X158112218Y-85582860D01*
X158112214Y-85582863D01*
X157972863Y-85722214D01*
X157972860Y-85722218D01*
X157863371Y-85886079D01*
X157863364Y-85886092D01*
X157787950Y-86068160D01*
X157787947Y-86068170D01*
X157749500Y-86261456D01*
X157749500Y-87300965D01*
X157740061Y-87348417D01*
X157717326Y-87403305D01*
X157717324Y-87403310D01*
X157713449Y-87412662D01*
X157713447Y-87412671D01*
X157675000Y-87605954D01*
X157675000Y-88450772D01*
X157655315Y-88517811D01*
X157620854Y-88553224D01*
X157612285Y-88559065D01*
X157425452Y-88732421D01*
X157425450Y-88732423D01*
X157266541Y-88931688D01*
X157139108Y-89152409D01*
X157045992Y-89389662D01*
X157045990Y-89389669D01*
X156989277Y-89638145D01*
X156970232Y-89892295D01*
X156970232Y-89892304D01*
X156989277Y-90146454D01*
X157001612Y-90200499D01*
X157045992Y-90394937D01*
X157139107Y-90632188D01*
X157266541Y-90852912D01*
X157425450Y-91052177D01*
X157612283Y-91225532D01*
X157822866Y-91369105D01*
X157822871Y-91369107D01*
X157822872Y-91369108D01*
X157822873Y-91369109D01*
X157937617Y-91424366D01*
X158052492Y-91479687D01*
X158052493Y-91479687D01*
X158052496Y-91479689D01*
X158296042Y-91554813D01*
X158548065Y-91592800D01*
X158802935Y-91592800D01*
X159054958Y-91554813D01*
X159298504Y-91479689D01*
X159528134Y-91369105D01*
X159738717Y-91225532D01*
X159925550Y-91052177D01*
X160084459Y-90852912D01*
X160211893Y-90632188D01*
X160305008Y-90394937D01*
X160361722Y-90146457D01*
X160374849Y-89971291D01*
X160380768Y-89892304D01*
X160380768Y-89892295D01*
X160363413Y-89660709D01*
X160362034Y-89642300D01*
X162069468Y-89642300D01*
X163207018Y-89642300D01*
X163196389Y-89660709D01*
X163155500Y-89813309D01*
X163155500Y-89971291D01*
X163196389Y-90123891D01*
X163207018Y-90142300D01*
X162069468Y-90142300D01*
X162069774Y-90146379D01*
X162069775Y-90146386D01*
X162126467Y-90394775D01*
X162126473Y-90394794D01*
X162219558Y-90631971D01*
X162219557Y-90631971D01*
X162346955Y-90852628D01*
X162505820Y-91051840D01*
X162692597Y-91225142D01*
X162903116Y-91368671D01*
X162903124Y-91368676D01*
X163132676Y-91479221D01*
X163132674Y-91479221D01*
X163376152Y-91554324D01*
X163376160Y-91554326D01*
X163505500Y-91573820D01*
X163505500Y-90440782D01*
X163523909Y-90451411D01*
X163676509Y-90492300D01*
X163834491Y-90492300D01*
X163987091Y-90451411D01*
X164005500Y-90440782D01*
X164005500Y-91573819D01*
X164134839Y-91554326D01*
X164134847Y-91554324D01*
X164378324Y-91479221D01*
X164607876Y-91368676D01*
X164607877Y-91368675D01*
X164818405Y-91225140D01*
X165005179Y-91051840D01*
X165164044Y-90852628D01*
X165291441Y-90631971D01*
X165384526Y-90394794D01*
X165384532Y-90394775D01*
X165441224Y-90146386D01*
X165441225Y-90146379D01*
X165441532Y-90142300D01*
X164303982Y-90142300D01*
X164314611Y-90123891D01*
X164355500Y-89971291D01*
X164355500Y-89813309D01*
X164314611Y-89660709D01*
X164303982Y-89642300D01*
X165441531Y-89642300D01*
X165441225Y-89638220D01*
X165441224Y-89638213D01*
X165384532Y-89389824D01*
X165384526Y-89389805D01*
X165291441Y-89152628D01*
X165291442Y-89152628D01*
X165164044Y-88931971D01*
X165005179Y-88732759D01*
X164818405Y-88559459D01*
X164607877Y-88415924D01*
X164607876Y-88415923D01*
X164378323Y-88305378D01*
X164378325Y-88305378D01*
X164134854Y-88230277D01*
X164134848Y-88230276D01*
X164005500Y-88210779D01*
X164005500Y-89343817D01*
X163987091Y-89333189D01*
X163834491Y-89292300D01*
X163676509Y-89292300D01*
X163523909Y-89333189D01*
X163505500Y-89343817D01*
X163505500Y-88210779D01*
X163376151Y-88230276D01*
X163376145Y-88230277D01*
X163132675Y-88305378D01*
X162903124Y-88415923D01*
X162903116Y-88415928D01*
X162692597Y-88559457D01*
X162505820Y-88732759D01*
X162346955Y-88931971D01*
X162219558Y-89152628D01*
X162126473Y-89389805D01*
X162126467Y-89389824D01*
X162069775Y-89638213D01*
X162069774Y-89638220D01*
X162069468Y-89642300D01*
X160362034Y-89642300D01*
X160361722Y-89638143D01*
X160305008Y-89389663D01*
X160211893Y-89152412D01*
X160084459Y-88931688D01*
X159925550Y-88732423D01*
X159750457Y-88569961D01*
X159738714Y-88559065D01*
X159730146Y-88553224D01*
X159685845Y-88499194D01*
X159676000Y-88450772D01*
X159676000Y-88033535D01*
X159685438Y-87986084D01*
X159702699Y-87944414D01*
X159712051Y-87921836D01*
X159747667Y-87742781D01*
X159747733Y-87742452D01*
X159750500Y-87728542D01*
X159750500Y-87484500D01*
X159770185Y-87417461D01*
X159822989Y-87371706D01*
X159874500Y-87360500D01*
X160118542Y-87360500D01*
X160137870Y-87356655D01*
X160215188Y-87341275D01*
X160311836Y-87322051D01*
X160365165Y-87299961D01*
X160493914Y-87246632D01*
X160657782Y-87137139D01*
X160797139Y-86997782D01*
X160797140Y-86997779D01*
X160804206Y-86990714D01*
X160804209Y-86990710D01*
X161927778Y-85867141D01*
X161927782Y-85867139D01*
X162067139Y-85727782D01*
X162176632Y-85563914D01*
X162176633Y-85563911D01*
X162176635Y-85563908D01*
X162228046Y-85439789D01*
X162242663Y-85404500D01*
X162252051Y-85381836D01*
X162278096Y-85250901D01*
X162290500Y-85188541D01*
X162290500Y-83272848D01*
X162310185Y-83205809D01*
X162311398Y-83203957D01*
X162322209Y-83187778D01*
X162423786Y-83035756D01*
X162501091Y-82849127D01*
X162540500Y-82651003D01*
X162540500Y-82448997D01*
X162501091Y-82250873D01*
X162423786Y-82064244D01*
X162370094Y-81983889D01*
X162349217Y-81917214D01*
X162367701Y-81849834D01*
X162370078Y-81846134D01*
X162423786Y-81765756D01*
X162501091Y-81579127D01*
X162540500Y-81381003D01*
X162540500Y-81178997D01*
X162536461Y-81158691D01*
X162542688Y-81089101D01*
X162585550Y-81033923D01*
X162651439Y-81010678D01*
X162658078Y-81010500D01*
X166468543Y-81010500D01*
X166598582Y-80984632D01*
X166661835Y-80972051D01*
X166843914Y-80896632D01*
X167007782Y-80787139D01*
X167147139Y-80647782D01*
X167256632Y-80483914D01*
X167332051Y-80301835D01*
X167350913Y-80207011D01*
X167370500Y-80108543D01*
X167370500Y-72144749D01*
X167390185Y-72077710D01*
X167420190Y-72045482D01*
X167465053Y-72011898D01*
X167477546Y-72002546D01*
X167563796Y-71887331D01*
X167614091Y-71752483D01*
X167620500Y-71692873D01*
X167620499Y-70974499D01*
X167640183Y-70907461D01*
X167692987Y-70861706D01*
X167744499Y-70850500D01*
X170075500Y-70850500D01*
X170142539Y-70870185D01*
X170188294Y-70922989D01*
X170199500Y-70974500D01*
X170199500Y-71692870D01*
X170199501Y-71692876D01*
X170205908Y-71752483D01*
X170256202Y-71887328D01*
X170256203Y-71887329D01*
X170256204Y-71887331D01*
X170342452Y-72002543D01*
X170342455Y-72002547D01*
X170399810Y-72045482D01*
X170441682Y-72101415D01*
X170449500Y-72144749D01*
X170449500Y-76028472D01*
X170429815Y-76095511D01*
X170395354Y-76130924D01*
X170386785Y-76136765D01*
X170199952Y-76310121D01*
X170199950Y-76310123D01*
X170041041Y-76509388D01*
X169913608Y-76730109D01*
X169820492Y-76967362D01*
X169820490Y-76967369D01*
X169763777Y-77215845D01*
X169744732Y-77469995D01*
X169744732Y-77470004D01*
X169763777Y-77724154D01*
X169818260Y-77962861D01*
X169820492Y-77972637D01*
X169913607Y-78209888D01*
X170041041Y-78430612D01*
X170199950Y-78629877D01*
X170386783Y-78803232D01*
X170597366Y-78946805D01*
X170597371Y-78946807D01*
X170597372Y-78946808D01*
X170597373Y-78946809D01*
X170688949Y-78990909D01*
X170826992Y-79057387D01*
X170826993Y-79057387D01*
X170826996Y-79057389D01*
X171070542Y-79132513D01*
X171322565Y-79170500D01*
X171577435Y-79170500D01*
X171829458Y-79132513D01*
X172073004Y-79057389D01*
X172290727Y-78952539D01*
X172302626Y-78946809D01*
X172302626Y-78946808D01*
X172302634Y-78946805D01*
X172513217Y-78803232D01*
X172700050Y-78629877D01*
X172858959Y-78430612D01*
X172986393Y-78209888D01*
X173079508Y-77972637D01*
X173136222Y-77724157D01*
X173152610Y-77505468D01*
X173155268Y-77470004D01*
X173155268Y-77469995D01*
X173136222Y-77215845D01*
X173135277Y-77211706D01*
X173079508Y-76967363D01*
X172986393Y-76730112D01*
X172858959Y-76509388D01*
X172700050Y-76310123D01*
X172513217Y-76136768D01*
X172513214Y-76136765D01*
X172504646Y-76130924D01*
X172460345Y-76076894D01*
X172450500Y-76028472D01*
X172450500Y-72144749D01*
X172470185Y-72077710D01*
X172500190Y-72045482D01*
X172545053Y-72011898D01*
X172557546Y-72002546D01*
X172643796Y-71887331D01*
X172694091Y-71752483D01*
X172700500Y-71692873D01*
X172700499Y-70547128D01*
X172694120Y-70487785D01*
X172694091Y-70487516D01*
X172643797Y-70352671D01*
X172643796Y-70352670D01*
X172643796Y-70352669D01*
X172642967Y-70351562D01*
X172642485Y-70350268D01*
X172639546Y-70344886D01*
X172640319Y-70344463D01*
X172618551Y-70286099D01*
X172627675Y-70229798D01*
X172661089Y-70149132D01*
X172661089Y-70149131D01*
X172661091Y-70149127D01*
X172700500Y-69951003D01*
X172700500Y-69748997D01*
X172661091Y-69550873D01*
X172583786Y-69364244D01*
X172530094Y-69283889D01*
X172509217Y-69217214D01*
X172527701Y-69149834D01*
X172530078Y-69146134D01*
X172583786Y-69065756D01*
X172661091Y-68879127D01*
X172700500Y-68681003D01*
X172700500Y-68478997D01*
X172661091Y-68280873D01*
X172583786Y-68094244D01*
X172583784Y-68094241D01*
X172583782Y-68094237D01*
X172471558Y-67926281D01*
X172328718Y-67783441D01*
X172160762Y-67671217D01*
X172160752Y-67671212D01*
X171974127Y-67593909D01*
X171974119Y-67593907D01*
X171776007Y-67554500D01*
X171776003Y-67554500D01*
X171123997Y-67554500D01*
X171123996Y-67554500D01*
X171060867Y-67567057D01*
X171010292Y-67577117D01*
X170986102Y-67579500D01*
X166835782Y-67579500D01*
X166768743Y-67559815D01*
X166748101Y-67543181D01*
X164533779Y-65328859D01*
X164533759Y-65328837D01*
X164390085Y-65185163D01*
X164390081Y-65185160D01*
X164226220Y-65075671D01*
X164226211Y-65075666D01*
X164153615Y-65045596D01*
X164097465Y-65022338D01*
X164044136Y-65000249D01*
X164044132Y-65000248D01*
X164044128Y-65000246D01*
X163947488Y-64981024D01*
X163850844Y-64961800D01*
X163850841Y-64961800D01*
X138612375Y-64961800D01*
X138612355Y-64961799D01*
X138606241Y-64961799D01*
X138409160Y-64961799D01*
X138409157Y-64961799D01*
X138215872Y-65000246D01*
X138215864Y-65000248D01*
X138033788Y-65075666D01*
X138033779Y-65075671D01*
X137869919Y-65185159D01*
X137869915Y-65185162D01*
X136781898Y-66273181D01*
X136720575Y-66306666D01*
X136694217Y-66309500D01*
X132543898Y-66309500D01*
X132519707Y-66307117D01*
X132469132Y-66297057D01*
X132406004Y-66284500D01*
X132406003Y-66284500D01*
X131753997Y-66284500D01*
X131753996Y-66284500D01*
X131690867Y-66297057D01*
X131640292Y-66307117D01*
X131616102Y-66309500D01*
X127463898Y-66309500D01*
X127439707Y-66307117D01*
X127389132Y-66297057D01*
X127326004Y-66284500D01*
X127326003Y-66284500D01*
X126673997Y-66284500D01*
X126673996Y-66284500D01*
X126610867Y-66297057D01*
X126560292Y-66307117D01*
X126536102Y-66309500D01*
X124361456Y-66309500D01*
X124168171Y-66347946D01*
X124168167Y-66347948D01*
X124168165Y-66347948D01*
X124168164Y-66347949D01*
X124092745Y-66379188D01*
X124092743Y-66379189D01*
X123986089Y-66423366D01*
X123986079Y-66423371D01*
X123851282Y-66513440D01*
X123851281Y-66513442D01*
X123822970Y-66532357D01*
X123822212Y-66532865D01*
X121541899Y-68813181D01*
X121480576Y-68846666D01*
X121454218Y-68849500D01*
X116741457Y-68849500D01*
X116669021Y-68863909D01*
X116669020Y-68863909D01*
X116548167Y-68887947D01*
X116548159Y-68887950D01*
X116494834Y-68910037D01*
X116494834Y-68910038D01*
X116468486Y-68920952D01*
X116366089Y-68963366D01*
X116366079Y-68963371D01*
X116202219Y-69072859D01*
X116144828Y-69130251D01*
X116062861Y-69212218D01*
X116062858Y-69212221D01*
X111381899Y-73893181D01*
X111320576Y-73926666D01*
X111294218Y-73929500D01*
X110391457Y-73929500D01*
X110198170Y-73967947D01*
X110198160Y-73967950D01*
X110016092Y-74043364D01*
X110016079Y-74043371D01*
X109852218Y-74152860D01*
X109852214Y-74152863D01*
X109712863Y-74292214D01*
X109712860Y-74292218D01*
X109603371Y-74456079D01*
X109603364Y-74456092D01*
X109527950Y-74638160D01*
X109527947Y-74638170D01*
X109489500Y-74831456D01*
X109489500Y-77615500D01*
X109469815Y-77682539D01*
X109417011Y-77728294D01*
X109365500Y-77739500D01*
X107851455Y-77739500D01*
X107754812Y-77758724D01*
X107658167Y-77777947D01*
X107658161Y-77777949D01*
X107604834Y-77800037D01*
X107604834Y-77800038D01*
X107559315Y-77818892D01*
X107476089Y-77853366D01*
X107476079Y-77853371D01*
X107312219Y-77962859D01*
X107242540Y-78032538D01*
X107172861Y-78102218D01*
X107172858Y-78102221D01*
X106042221Y-79232858D01*
X106042218Y-79232861D01*
X105994512Y-79280567D01*
X105902859Y-79372219D01*
X105793371Y-79536080D01*
X105793364Y-79536093D01*
X105766962Y-79599836D01*
X105766962Y-79599837D01*
X105741955Y-79660210D01*
X105717949Y-79718164D01*
X105704991Y-79783308D01*
X105704991Y-79783309D01*
X105679500Y-79911456D01*
X105679500Y-91585500D01*
X105659815Y-91652539D01*
X105607011Y-91698294D01*
X105555500Y-91709500D01*
X105311456Y-91709500D01*
X105118171Y-91747946D01*
X105118167Y-91747948D01*
X105118165Y-91747948D01*
X105118164Y-91747949D01*
X105042745Y-91779188D01*
X105042743Y-91779189D01*
X104936089Y-91823366D01*
X104936079Y-91823371D01*
X104772219Y-91932859D01*
X104750263Y-91954816D01*
X104694518Y-92010561D01*
X104647814Y-92057265D01*
X104555159Y-92149919D01*
X104445671Y-92313779D01*
X104445664Y-92313792D01*
X104370250Y-92495860D01*
X104370247Y-92495870D01*
X104331800Y-92689156D01*
X104331800Y-92689159D01*
X104331800Y-100350841D01*
X104331800Y-100350843D01*
X104331799Y-100350843D01*
X102100500Y-100350843D01*
X102100500Y-68580000D01*
X103634709Y-68580000D01*
X103653856Y-68920952D01*
X103653858Y-68920971D01*
X103711060Y-69257637D01*
X103711062Y-69257646D01*
X103781300Y-69501448D01*
X103805601Y-69585796D01*
X103854770Y-69704500D01*
X103936287Y-69901300D01*
X104101480Y-70200196D01*
X104101483Y-70200201D01*
X104299092Y-70478703D01*
X104299096Y-70478708D01*
X104526654Y-70733346D01*
X104781292Y-70960904D01*
X104781295Y-70960906D01*
X104781296Y-70960907D01*
X105059798Y-71158516D01*
X105059803Y-71158519D01*
X105059806Y-71158520D01*
X105059808Y-71158522D01*
X105358698Y-71323712D01*
X105674204Y-71454399D01*
X106002359Y-71548939D01*
X106339036Y-71606143D01*
X106680000Y-71625291D01*
X107020964Y-71606143D01*
X107357641Y-71548939D01*
X107685796Y-71454399D01*
X108001302Y-71323712D01*
X108300192Y-71158522D01*
X108300197Y-71158518D01*
X108300201Y-71158516D01*
X108493364Y-71021459D01*
X108578708Y-70960904D01*
X108833346Y-70733346D01*
X109060904Y-70478708D01*
X109188223Y-70299269D01*
X109258516Y-70200201D01*
X109258519Y-70200196D01*
X109258522Y-70200192D01*
X109423712Y-69901302D01*
X109554399Y-69585796D01*
X109648939Y-69257641D01*
X109706143Y-68920964D01*
X109708493Y-68879127D01*
X109717120Y-68725500D01*
X109725291Y-68580000D01*
X109706143Y-68239036D01*
X109648939Y-67902359D01*
X109554399Y-67574204D01*
X109423712Y-67258698D01*
X109258522Y-66959808D01*
X109258520Y-66959806D01*
X109258519Y-66959803D01*
X109258516Y-66959798D01*
X109060907Y-66681296D01*
X109060906Y-66681295D01*
X109060904Y-66681292D01*
X108833346Y-66426654D01*
X108578708Y-66199096D01*
X108578705Y-66199094D01*
X108578703Y-66199092D01*
X108300201Y-66001483D01*
X108300196Y-66001480D01*
X108001300Y-65836287D01*
X107935956Y-65809221D01*
X107685796Y-65705601D01*
X107601448Y-65681300D01*
X107357646Y-65611062D01*
X107357637Y-65611060D01*
X107020971Y-65553858D01*
X107020959Y-65553856D01*
X106680000Y-65534709D01*
X106339040Y-65553856D01*
X106339028Y-65553858D01*
X106002362Y-65611060D01*
X106002353Y-65611062D01*
X105674207Y-65705600D01*
X105674204Y-65705601D01*
X105581796Y-65743877D01*
X105358699Y-65836287D01*
X105059803Y-66001480D01*
X105059798Y-66001483D01*
X104781296Y-66199092D01*
X104526654Y-66426654D01*
X104299092Y-66681296D01*
X104101483Y-66959798D01*
X104101480Y-66959803D01*
X103936287Y-67258699D01*
X103885580Y-67381118D01*
X103807241Y-67570246D01*
X103805600Y-67574207D01*
X103711062Y-67902353D01*
X103711060Y-67902362D01*
X103653858Y-68239028D01*
X103653856Y-68239040D01*
X103634709Y-68580000D01*
X102100500Y-68580000D01*
X102100500Y-64124500D01*
X102120185Y-64057461D01*
X102172989Y-64011706D01*
X102224500Y-64000500D01*
X104074108Y-64000500D01*
X177175500Y-64000500D01*
X177242539Y-64020185D01*
G37*
%TD.AperFunction*%
%TD*%
%TA.AperFunction,NonConductor*%
G36*
X149761972Y-78490185D02*
G01*
X149807727Y-78542989D01*
X149817671Y-78612147D01*
X149788646Y-78675703D01*
X149729868Y-78713477D01*
X149705740Y-78718028D01*
X149633313Y-78724364D01*
X149633302Y-78724366D01*
X149413511Y-78783258D01*
X149413502Y-78783261D01*
X149207267Y-78879431D01*
X149096688Y-78956858D01*
X149030482Y-78979185D01*
X148962715Y-78962173D01*
X148937885Y-78942963D01*
X148797785Y-78802863D01*
X148797781Y-78802860D01*
X148640252Y-78697602D01*
X148595447Y-78643990D01*
X148586740Y-78574665D01*
X148616895Y-78511637D01*
X148676338Y-78474918D01*
X148709143Y-78470500D01*
X149694933Y-78470500D01*
X149761972Y-78490185D01*
G37*
%TD.AperFunction*%
%TA.AperFunction,NonConductor*%
G36*
X163353557Y-66982485D02*
G01*
X163374199Y-66999119D01*
X164232398Y-67857318D01*
X164265883Y-67918641D01*
X164260899Y-67988333D01*
X164232398Y-68032680D01*
X160911899Y-71353181D01*
X160850576Y-71386666D01*
X160824218Y-71389500D01*
X152301457Y-71389500D01*
X152108170Y-71427947D01*
X152108160Y-71427950D01*
X151926092Y-71503364D01*
X151926079Y-71503371D01*
X151762218Y-71612860D01*
X151762214Y-71612863D01*
X151622863Y-71752214D01*
X151622860Y-71752218D01*
X151513371Y-71916079D01*
X151513364Y-71916092D01*
X151437950Y-72098160D01*
X151437947Y-72098170D01*
X151399500Y-72291456D01*
X151399500Y-74334157D01*
X151386501Y-74389427D01*
X151324750Y-74513442D01*
X151266514Y-74718115D01*
X151253471Y-74858881D01*
X151227685Y-74923819D01*
X151220616Y-74928882D01*
X151251693Y-74988751D01*
X151253471Y-75001118D01*
X151266514Y-75141884D01*
X151324750Y-75346559D01*
X151324750Y-75346560D01*
X151419596Y-75537037D01*
X151547836Y-75706852D01*
X151626463Y-75778530D01*
X151674036Y-75821899D01*
X151705090Y-75850208D01*
X151705092Y-75850210D01*
X151886007Y-75962228D01*
X151886013Y-75962231D01*
X151914591Y-75973302D01*
X152084434Y-76039099D01*
X152293604Y-76078200D01*
X152293606Y-76078200D01*
X152506394Y-76078200D01*
X152506396Y-76078200D01*
X152715566Y-76039099D01*
X152913989Y-75962230D01*
X153094909Y-75850209D01*
X153252165Y-75706851D01*
X153380402Y-75537039D01*
X153400500Y-75496676D01*
X153475249Y-75346560D01*
X153475249Y-75346559D01*
X153475248Y-75346559D01*
X153475251Y-75346555D01*
X153533485Y-75141885D01*
X153543760Y-75031003D01*
X153546529Y-75001118D01*
X153572315Y-74936181D01*
X153579384Y-74931117D01*
X153578224Y-74928882D01*
X153760616Y-74928882D01*
X153791693Y-74988751D01*
X153793471Y-75001118D01*
X153806514Y-75141884D01*
X153864750Y-75346559D01*
X153864750Y-75346560D01*
X153959596Y-75537037D01*
X154087836Y-75706852D01*
X154166463Y-75778530D01*
X154214036Y-75821899D01*
X154245090Y-75850208D01*
X154245092Y-75850210D01*
X154426007Y-75962228D01*
X154426013Y-75962231D01*
X154454591Y-75973302D01*
X154624434Y-76039099D01*
X154833604Y-76078200D01*
X154833606Y-76078200D01*
X155046394Y-76078200D01*
X155046396Y-76078200D01*
X155255566Y-76039099D01*
X155453989Y-75962230D01*
X155634909Y-75850209D01*
X155792165Y-75706851D01*
X155920402Y-75537039D01*
X155940500Y-75496676D01*
X156015249Y-75346560D01*
X156015249Y-75346559D01*
X156015248Y-75346559D01*
X156015251Y-75346555D01*
X156073485Y-75141885D01*
X156083760Y-75031003D01*
X156086529Y-75001118D01*
X156112315Y-74936181D01*
X156119384Y-74931117D01*
X156088307Y-74871248D01*
X156086529Y-74858881D01*
X156073485Y-74718115D01*
X156056963Y-74660047D01*
X156015251Y-74513445D01*
X156015249Y-74513440D01*
X156015249Y-74513439D01*
X155920403Y-74322962D01*
X155792163Y-74153147D01*
X155634909Y-74009791D01*
X155634907Y-74009789D01*
X155453992Y-73897771D01*
X155453986Y-73897768D01*
X155297603Y-73837186D01*
X155255566Y-73820901D01*
X155046396Y-73781800D01*
X154833604Y-73781800D01*
X154624434Y-73820901D01*
X154624431Y-73820901D01*
X154624431Y-73820902D01*
X154426013Y-73897768D01*
X154426007Y-73897771D01*
X154245092Y-74009789D01*
X154245090Y-74009791D01*
X154087836Y-74153147D01*
X153959596Y-74322962D01*
X153864750Y-74513439D01*
X153864750Y-74513440D01*
X153806514Y-74718115D01*
X153793471Y-74858881D01*
X153767685Y-74923819D01*
X153760616Y-74928882D01*
X153578224Y-74928882D01*
X153548307Y-74871248D01*
X153546529Y-74858881D01*
X153533485Y-74718115D01*
X153516963Y-74660047D01*
X153475251Y-74513445D01*
X153446690Y-74456086D01*
X153413499Y-74389427D01*
X153400500Y-74334157D01*
X153400500Y-73514500D01*
X153420185Y-73447461D01*
X153472989Y-73401706D01*
X153524500Y-73390500D01*
X161388542Y-73390500D01*
X161407870Y-73386655D01*
X161485188Y-73371275D01*
X161581836Y-73352051D01*
X161635165Y-73329961D01*
X161763914Y-73276632D01*
X161927782Y-73167139D01*
X162067139Y-73027782D01*
X162067139Y-73027780D01*
X162077347Y-73017573D01*
X162077348Y-73017570D01*
X164965266Y-70129653D01*
X165026587Y-70096170D01*
X165096279Y-70101154D01*
X165152212Y-70143026D01*
X165167506Y-70169882D01*
X165192324Y-70229798D01*
X165192325Y-70229799D01*
X165199794Y-70299269D01*
X165180038Y-70344660D01*
X165180454Y-70344887D01*
X165177919Y-70349528D01*
X165177037Y-70351556D01*
X165176206Y-70352665D01*
X165176202Y-70352672D01*
X165125908Y-70487517D01*
X165119501Y-70547116D01*
X165119501Y-70547123D01*
X165119500Y-70547135D01*
X165119500Y-71692870D01*
X165119501Y-71692876D01*
X165125908Y-71752483D01*
X165176202Y-71887328D01*
X165176203Y-71887329D01*
X165176204Y-71887331D01*
X165262452Y-72002543D01*
X165262455Y-72002547D01*
X165319810Y-72045482D01*
X165361682Y-72101415D01*
X165369500Y-72144749D01*
X165369500Y-78885500D01*
X165349815Y-78952539D01*
X165297011Y-78998294D01*
X165245500Y-79009500D01*
X162219700Y-79009500D01*
X162176367Y-79001682D01*
X162160095Y-78995613D01*
X162147481Y-78990908D01*
X162087883Y-78984501D01*
X162087881Y-78984500D01*
X162087873Y-78984500D01*
X162087864Y-78984500D01*
X160492129Y-78984500D01*
X160492123Y-78984501D01*
X160432516Y-78990908D01*
X160297671Y-79041202D01*
X160297664Y-79041206D01*
X160182455Y-79127452D01*
X160182452Y-79127455D01*
X160096206Y-79242664D01*
X160096202Y-79242671D01*
X160045908Y-79377517D01*
X160039501Y-79437116D01*
X160039500Y-79437127D01*
X160039500Y-79849099D01*
X160039501Y-80155500D01*
X160019817Y-80222539D01*
X159967013Y-80268294D01*
X159915501Y-80279500D01*
X159874500Y-80279500D01*
X159807461Y-80259815D01*
X159761706Y-80207011D01*
X159750500Y-80155500D01*
X159750500Y-77935781D01*
X159770185Y-77868742D01*
X159786815Y-77848104D01*
X160657778Y-76977141D01*
X160657782Y-76977139D01*
X160797139Y-76837782D01*
X160906632Y-76673914D01*
X160906635Y-76673907D01*
X160966753Y-76528769D01*
X160966753Y-76528768D01*
X160982051Y-76491836D01*
X161020500Y-76298540D01*
X161020500Y-76101460D01*
X161020500Y-76101459D01*
X161020500Y-75525839D01*
X161033499Y-75470569D01*
X161095251Y-75346555D01*
X161153485Y-75141885D01*
X161173119Y-74930000D01*
X161169110Y-74886741D01*
X161153485Y-74718115D01*
X161136963Y-74660047D01*
X161095251Y-74513445D01*
X161095249Y-74513440D01*
X161095249Y-74513439D01*
X161000403Y-74322962D01*
X160872163Y-74153147D01*
X160714909Y-74009791D01*
X160714907Y-74009789D01*
X160533992Y-73897771D01*
X160533986Y-73897768D01*
X160377603Y-73837186D01*
X160335566Y-73820901D01*
X160126396Y-73781800D01*
X159913604Y-73781800D01*
X159704434Y-73820901D01*
X159704431Y-73820901D01*
X159704431Y-73820902D01*
X159506013Y-73897768D01*
X159506007Y-73897771D01*
X159325092Y-74009789D01*
X159325090Y-74009791D01*
X159167836Y-74153147D01*
X159039596Y-74322962D01*
X158944750Y-74513439D01*
X158944750Y-74513440D01*
X158886514Y-74718115D01*
X158873471Y-74858881D01*
X158847685Y-74923819D01*
X158840616Y-74928882D01*
X158871693Y-74988751D01*
X158873471Y-75001118D01*
X158886514Y-75141884D01*
X158944748Y-75346552D01*
X158944753Y-75346565D01*
X158961039Y-75379270D01*
X159006500Y-75470569D01*
X159019500Y-75525839D01*
X159019500Y-75734218D01*
X158999815Y-75801257D01*
X158983181Y-75821899D01*
X158692181Y-76112899D01*
X158630858Y-76146384D01*
X158561166Y-76141400D01*
X158505233Y-76099528D01*
X158480816Y-76034064D01*
X158480500Y-76025218D01*
X158480500Y-75525839D01*
X158493499Y-75470569D01*
X158555251Y-75346555D01*
X158613485Y-75141885D01*
X158623760Y-75031003D01*
X158626529Y-75001118D01*
X158652315Y-74936181D01*
X158659384Y-74931117D01*
X158628307Y-74871248D01*
X158626529Y-74858881D01*
X158613485Y-74718115D01*
X158596963Y-74660047D01*
X158555251Y-74513445D01*
X158555249Y-74513440D01*
X158555249Y-74513439D01*
X158460403Y-74322962D01*
X158332163Y-74153147D01*
X158174909Y-74009791D01*
X158174907Y-74009789D01*
X157993992Y-73897771D01*
X157993986Y-73897768D01*
X157837603Y-73837186D01*
X157795566Y-73820901D01*
X157586396Y-73781800D01*
X157373604Y-73781800D01*
X157164434Y-73820901D01*
X157164431Y-73820901D01*
X157164431Y-73820902D01*
X156966013Y-73897768D01*
X156966007Y-73897771D01*
X156785092Y-74009789D01*
X156785090Y-74009791D01*
X156627836Y-74153147D01*
X156499596Y-74322962D01*
X156404750Y-74513439D01*
X156404750Y-74513440D01*
X156346514Y-74718115D01*
X156333471Y-74858881D01*
X156307685Y-74923819D01*
X156300616Y-74928882D01*
X156331693Y-74988751D01*
X156333471Y-75001118D01*
X156346514Y-75141884D01*
X156404748Y-75346552D01*
X156404753Y-75346565D01*
X156421039Y-75379270D01*
X156466500Y-75470569D01*
X156479500Y-75525839D01*
X156479500Y-79937315D01*
X156459815Y-80004354D01*
X156407011Y-80050109D01*
X156337853Y-80060053D01*
X156274297Y-80031028D01*
X156240939Y-79984768D01*
X156216632Y-79926086D01*
X156121231Y-79783308D01*
X156107138Y-79762216D01*
X156107135Y-79762213D01*
X153184209Y-76839289D01*
X153184206Y-76839285D01*
X153184206Y-76839286D01*
X153177139Y-76832219D01*
X153177139Y-76832218D01*
X153037782Y-76692861D01*
X153037781Y-76692860D01*
X153037780Y-76692859D01*
X152873920Y-76583371D01*
X152873907Y-76583364D01*
X152742097Y-76528768D01*
X152691836Y-76507949D01*
X152691828Y-76507947D01*
X152595188Y-76488724D01*
X152498544Y-76469500D01*
X152498541Y-76469500D01*
X142094500Y-76469500D01*
X142027461Y-76449815D01*
X141981706Y-76397011D01*
X141970500Y-76345500D01*
X141970500Y-74234435D01*
X143631800Y-74234435D01*
X143631800Y-75625570D01*
X143631801Y-75625576D01*
X143638208Y-75685183D01*
X143688502Y-75820028D01*
X143688506Y-75820035D01*
X143774752Y-75935244D01*
X143774755Y-75935247D01*
X143889964Y-76021493D01*
X143889971Y-76021497D01*
X144024817Y-76071791D01*
X144024816Y-76071791D01*
X144031744Y-76072535D01*
X144084427Y-76078200D01*
X145475572Y-76078199D01*
X145535183Y-76071791D01*
X145670031Y-76021496D01*
X145785246Y-75935246D01*
X145871496Y-75820031D01*
X145921791Y-75685183D01*
X145928200Y-75625573D01*
X145928199Y-75036294D01*
X145947883Y-74969257D01*
X145992456Y-74930633D01*
X146107235Y-74930633D01*
X146133402Y-74942583D01*
X146171176Y-75001361D01*
X146175670Y-75024854D01*
X146186514Y-75141884D01*
X146244750Y-75346559D01*
X146244750Y-75346560D01*
X146339596Y-75537037D01*
X146467836Y-75706852D01*
X146546463Y-75778530D01*
X146594036Y-75821899D01*
X146625090Y-75850208D01*
X146625092Y-75850210D01*
X146806007Y-75962228D01*
X146806013Y-75962231D01*
X146834591Y-75973302D01*
X147004434Y-76039099D01*
X147213604Y-76078200D01*
X147213606Y-76078200D01*
X147426394Y-76078200D01*
X147426396Y-76078200D01*
X147635566Y-76039099D01*
X147833989Y-75962230D01*
X148014909Y-75850209D01*
X148172165Y-75706851D01*
X148300402Y-75537039D01*
X148320500Y-75496676D01*
X148395249Y-75346560D01*
X148395249Y-75346559D01*
X148395248Y-75346559D01*
X148395251Y-75346555D01*
X148453485Y-75141885D01*
X148463760Y-75031003D01*
X148466529Y-75001118D01*
X148492315Y-74936181D01*
X148499384Y-74931117D01*
X148498224Y-74928882D01*
X148680616Y-74928882D01*
X148711693Y-74988751D01*
X148713471Y-75001118D01*
X148726514Y-75141884D01*
X148784750Y-75346559D01*
X148784750Y-75346560D01*
X148879596Y-75537037D01*
X149007836Y-75706852D01*
X149086463Y-75778530D01*
X149134036Y-75821899D01*
X149165090Y-75850208D01*
X149165092Y-75850210D01*
X149346007Y-75962228D01*
X149346013Y-75962231D01*
X149374591Y-75973302D01*
X149544434Y-76039099D01*
X149753604Y-76078200D01*
X149753606Y-76078200D01*
X149966394Y-76078200D01*
X149966396Y-76078200D01*
X150175566Y-76039099D01*
X150373989Y-75962230D01*
X150554909Y-75850209D01*
X150712165Y-75706851D01*
X150840402Y-75537039D01*
X150860500Y-75496676D01*
X150935249Y-75346560D01*
X150935249Y-75346559D01*
X150935248Y-75346559D01*
X150935251Y-75346555D01*
X150993485Y-75141885D01*
X151003760Y-75031003D01*
X151006529Y-75001118D01*
X151032315Y-74936181D01*
X151039384Y-74931117D01*
X151008307Y-74871248D01*
X151006529Y-74858881D01*
X150993485Y-74718115D01*
X150976963Y-74660047D01*
X150935251Y-74513445D01*
X150935249Y-74513440D01*
X150935249Y-74513439D01*
X150840403Y-74322962D01*
X150712163Y-74153147D01*
X150554909Y-74009791D01*
X150554907Y-74009789D01*
X150373992Y-73897771D01*
X150373986Y-73897768D01*
X150217603Y-73837186D01*
X150175566Y-73820901D01*
X149966396Y-73781800D01*
X149753604Y-73781800D01*
X149544434Y-73820901D01*
X149544431Y-73820901D01*
X149544431Y-73820902D01*
X149346013Y-73897768D01*
X149346007Y-73897771D01*
X149165092Y-74009789D01*
X149165090Y-74009791D01*
X149007836Y-74153147D01*
X148879596Y-74322962D01*
X148784750Y-74513439D01*
X148784750Y-74513440D01*
X148726514Y-74718115D01*
X148713471Y-74858881D01*
X148687685Y-74923819D01*
X148680616Y-74928882D01*
X148498224Y-74928882D01*
X148468307Y-74871248D01*
X148466529Y-74858881D01*
X148453485Y-74718115D01*
X148436963Y-74660047D01*
X148395251Y-74513445D01*
X148395249Y-74513440D01*
X148395249Y-74513439D01*
X148300403Y-74322962D01*
X148172163Y-74153147D01*
X148014909Y-74009791D01*
X148014907Y-74009789D01*
X147833992Y-73897771D01*
X147833986Y-73897768D01*
X147677603Y-73837186D01*
X147635566Y-73820901D01*
X147426396Y-73781800D01*
X147213604Y-73781800D01*
X147004434Y-73820901D01*
X147004431Y-73820901D01*
X147004431Y-73820902D01*
X146806013Y-73897768D01*
X146806007Y-73897771D01*
X146625092Y-74009789D01*
X146625090Y-74009791D01*
X146467836Y-74153147D01*
X146339596Y-74322962D01*
X146244750Y-74513439D01*
X146244750Y-74513440D01*
X146186514Y-74718115D01*
X146175670Y-74835147D01*
X146149884Y-74900084D01*
X146107235Y-74930633D01*
X145992456Y-74930633D01*
X145995259Y-74928204D01*
X145962696Y-74909525D01*
X145930506Y-74847513D01*
X145928199Y-74823705D01*
X145928199Y-74234429D01*
X145928198Y-74234423D01*
X145928197Y-74234416D01*
X145921791Y-74174817D01*
X145913709Y-74153149D01*
X145871497Y-74039971D01*
X145871493Y-74039964D01*
X145785247Y-73924755D01*
X145785244Y-73924752D01*
X145670035Y-73838506D01*
X145670028Y-73838502D01*
X145535182Y-73788208D01*
X145535183Y-73788208D01*
X145475583Y-73781801D01*
X145475581Y-73781800D01*
X145475573Y-73781800D01*
X145475564Y-73781800D01*
X144084429Y-73781800D01*
X144084423Y-73781801D01*
X144024816Y-73788208D01*
X143889971Y-73838502D01*
X143889964Y-73838506D01*
X143774755Y-73924752D01*
X143774752Y-73924755D01*
X143688506Y-74039964D01*
X143688502Y-74039971D01*
X143638208Y-74174817D01*
X143632694Y-74226109D01*
X143631801Y-74234423D01*
X143631800Y-74234435D01*
X141970500Y-74234435D01*
X141970500Y-71585782D01*
X141990185Y-71518743D01*
X142006819Y-71498101D01*
X142618101Y-70886819D01*
X142679424Y-70853334D01*
X142705782Y-70850500D01*
X155038543Y-70850500D01*
X155168582Y-70824632D01*
X155231835Y-70812051D01*
X155413914Y-70736632D01*
X155577782Y-70627139D01*
X155717139Y-70487782D01*
X155826632Y-70323914D01*
X155902051Y-70141835D01*
X155916233Y-70070540D01*
X155940500Y-69948543D01*
X155940500Y-67905839D01*
X155953499Y-67850569D01*
X156015251Y-67726555D01*
X156073485Y-67521885D01*
X156086529Y-67381118D01*
X156112315Y-67316181D01*
X156169116Y-67275493D01*
X156238897Y-67271973D01*
X156299503Y-67306738D01*
X156331693Y-67368751D01*
X156333471Y-67381118D01*
X156346514Y-67521884D01*
X156404750Y-67726559D01*
X156404750Y-67726560D01*
X156499596Y-67917037D01*
X156627836Y-68086852D01*
X156785090Y-68230208D01*
X156785092Y-68230210D01*
X156966007Y-68342228D01*
X156966013Y-68342231D01*
X157008048Y-68358515D01*
X157164434Y-68419099D01*
X157373604Y-68458200D01*
X157373606Y-68458200D01*
X157586394Y-68458200D01*
X157586396Y-68458200D01*
X157795566Y-68419099D01*
X157993989Y-68342230D01*
X158009088Y-68332880D01*
X158015239Y-68329073D01*
X158080516Y-68310500D01*
X159419484Y-68310500D01*
X159484761Y-68329073D01*
X159496738Y-68336488D01*
X159506011Y-68342230D01*
X159704434Y-68419099D01*
X159913604Y-68458200D01*
X159913606Y-68458200D01*
X160126394Y-68458200D01*
X160126396Y-68458200D01*
X160335566Y-68419099D01*
X160533989Y-68342230D01*
X160714909Y-68230209D01*
X160872165Y-68086851D01*
X161000402Y-67917039D01*
X161033501Y-67850567D01*
X161095249Y-67726560D01*
X161095249Y-67726559D01*
X161095248Y-67726559D01*
X161095251Y-67726555D01*
X161153485Y-67521885D01*
X161173119Y-67310000D01*
X161171534Y-67292896D01*
X161153497Y-67098241D01*
X161166912Y-67029671D01*
X161215269Y-66979240D01*
X161276968Y-66962800D01*
X163286518Y-66962800D01*
X163353557Y-66982485D01*
G37*
%TD.AperFunction*%
%TA.AperFunction,NonConductor*%
G36*
X133346278Y-84071153D02*
G01*
X133402212Y-84113024D01*
X133417506Y-84139882D01*
X133486212Y-84305752D01*
X133486217Y-84305762D01*
X133598441Y-84473718D01*
X133741281Y-84616558D01*
X133909237Y-84728782D01*
X133909241Y-84728784D01*
X133909244Y-84728786D01*
X134095873Y-84806091D01*
X134177942Y-84822415D01*
X134239851Y-84854799D01*
X134241431Y-84856351D01*
X135563599Y-86178519D01*
X135597084Y-86239842D01*
X135592100Y-86309534D01*
X135550228Y-86365467D01*
X135508013Y-86385974D01*
X135443517Y-86403256D01*
X135443502Y-86403261D01*
X135237267Y-86499431D01*
X135237265Y-86499432D01*
X135134595Y-86571322D01*
X135090256Y-86602369D01*
X135083535Y-86607075D01*
X135017329Y-86629402D01*
X135012412Y-86629500D01*
X133815782Y-86629500D01*
X133748743Y-86609815D01*
X133728101Y-86593181D01*
X133116819Y-85981899D01*
X133083334Y-85920576D01*
X133080500Y-85894218D01*
X133080500Y-84285781D01*
X133100185Y-84218742D01*
X133116810Y-84198109D01*
X133215268Y-84099650D01*
X133276586Y-84066169D01*
X133346278Y-84071153D01*
G37*
%TD.AperFunction*%
%TA.AperFunction,NonConductor*%
G36*
X113242539Y-93730185D02*
G01*
X113288294Y-93782989D01*
X113299500Y-93834500D01*
X113299500Y-94654157D01*
X113286501Y-94709427D01*
X113224750Y-94833442D01*
X113166514Y-95038115D01*
X113146881Y-95249999D01*
X113146881Y-95250000D01*
X113166514Y-95461884D01*
X113224750Y-95666559D01*
X113224750Y-95666560D01*
X113319596Y-95857037D01*
X113447836Y-96026852D01*
X113605090Y-96170208D01*
X113605092Y-96170210D01*
X113786007Y-96282228D01*
X113786013Y-96282231D01*
X113828048Y-96298515D01*
X113984434Y-96359099D01*
X114193129Y-96398111D01*
X114255410Y-96429779D01*
X114290683Y-96490092D01*
X114287749Y-96559900D01*
X114247540Y-96617040D01*
X114193129Y-96641888D01*
X113984434Y-96680901D01*
X113984431Y-96680901D01*
X113984431Y-96680902D01*
X113786013Y-96757768D01*
X113786007Y-96757771D01*
X113605092Y-96869789D01*
X113605090Y-96869791D01*
X113447836Y-97013147D01*
X113319596Y-97182962D01*
X113224750Y-97373439D01*
X113224750Y-97373440D01*
X113179188Y-97533575D01*
X113141909Y-97592668D01*
X113078599Y-97622225D01*
X113009359Y-97612863D01*
X112972241Y-97587321D01*
X110001479Y-94616559D01*
X110001459Y-94616537D01*
X109857785Y-94472863D01*
X109857781Y-94472860D01*
X109693920Y-94363371D01*
X109693911Y-94363366D01*
X109601805Y-94325215D01*
X109565165Y-94310038D01*
X109538500Y-94298993D01*
X109511837Y-94287949D01*
X109511833Y-94287947D01*
X109371091Y-94259953D01*
X109371090Y-94259952D01*
X109344816Y-94254726D01*
X109318542Y-94249500D01*
X109318541Y-94249500D01*
X107280516Y-94249500D01*
X107215239Y-94230927D01*
X107193994Y-94217773D01*
X107193991Y-94217771D01*
X107193989Y-94217770D01*
X107193988Y-94217769D01*
X107193987Y-94217769D01*
X106999079Y-94142262D01*
X106995566Y-94140901D01*
X106798633Y-94104087D01*
X106736353Y-94072420D01*
X106701080Y-94012107D01*
X106704014Y-93942299D01*
X106744223Y-93885159D01*
X106808941Y-93858828D01*
X106821419Y-93858199D01*
X107375571Y-93858199D01*
X107375572Y-93858199D01*
X107435183Y-93851791D01*
X107570031Y-93801496D01*
X107649199Y-93742231D01*
X107658546Y-93735234D01*
X107724010Y-93710816D01*
X107732857Y-93710500D01*
X113175500Y-93710500D01*
X113242539Y-93730185D01*
G37*
%TD.AperFunction*%
%TA.AperFunction,NonConductor*%
G36*
X135852539Y-69600185D02*
G01*
X135898294Y-69652989D01*
X135909500Y-69704500D01*
X135909500Y-70422870D01*
X135909501Y-70422876D01*
X135915908Y-70482483D01*
X135966202Y-70617328D01*
X135966203Y-70617329D01*
X135966204Y-70617331D01*
X136052452Y-70732543D01*
X136052455Y-70732547D01*
X136057907Y-70736628D01*
X136108945Y-70774835D01*
X136109810Y-70775482D01*
X136151682Y-70831415D01*
X136159500Y-70874749D01*
X136159500Y-71924217D01*
X136139815Y-71991256D01*
X136123181Y-72011898D01*
X135511430Y-72623648D01*
X135450107Y-72657133D01*
X135447941Y-72657584D01*
X135365878Y-72673907D01*
X135365872Y-72673909D01*
X135179247Y-72751212D01*
X135179237Y-72751217D01*
X135011281Y-72863441D01*
X134868441Y-73006281D01*
X134756217Y-73174237D01*
X134756212Y-73174247D01*
X134678909Y-73360872D01*
X134678907Y-73360880D01*
X134639500Y-73558992D01*
X134639500Y-73761007D01*
X134678907Y-73959119D01*
X134678909Y-73959127D01*
X134756213Y-74145755D01*
X134809904Y-74226109D01*
X134830782Y-74292787D01*
X134812297Y-74360167D01*
X134809904Y-74363891D01*
X134756213Y-74444244D01*
X134678909Y-74630872D01*
X134678907Y-74630880D01*
X134639500Y-74828992D01*
X134639500Y-75031007D01*
X134678907Y-75229119D01*
X134678909Y-75229127D01*
X134712325Y-75309800D01*
X134719794Y-75379270D01*
X134700038Y-75424660D01*
X134700454Y-75424887D01*
X134697919Y-75429528D01*
X134697037Y-75431556D01*
X134696206Y-75432665D01*
X134696202Y-75432672D01*
X134645908Y-75567517D01*
X134639668Y-75625564D01*
X134639501Y-75627123D01*
X134639500Y-75627135D01*
X134639500Y-76772870D01*
X134639501Y-76772876D01*
X134645908Y-76832483D01*
X134696202Y-76967328D01*
X134696203Y-76967329D01*
X134696204Y-76967331D01*
X134782452Y-77082543D01*
X134782455Y-77082547D01*
X134839810Y-77125482D01*
X134881682Y-77181415D01*
X134889500Y-77224749D01*
X134889500Y-79544217D01*
X134869815Y-79611256D01*
X134853181Y-79631898D01*
X134266897Y-80218181D01*
X134205574Y-80251666D01*
X134179216Y-80254500D01*
X133822130Y-80254500D01*
X133822123Y-80254501D01*
X133762516Y-80260908D01*
X133627671Y-80311202D01*
X133627664Y-80311206D01*
X133512455Y-80397452D01*
X133512452Y-80397455D01*
X133426206Y-80512664D01*
X133426202Y-80512671D01*
X133375908Y-80647517D01*
X133369501Y-80707116D01*
X133369500Y-80707127D01*
X133369500Y-81089101D01*
X133369501Y-81425500D01*
X133349817Y-81492539D01*
X133297013Y-81538294D01*
X133257324Y-81546927D01*
X133257519Y-81548903D01*
X133251457Y-81549499D01*
X133179021Y-81563909D01*
X133179020Y-81563909D01*
X133058171Y-81587947D01*
X133058163Y-81587949D01*
X133007903Y-81608768D01*
X133007902Y-81608768D01*
X132876092Y-81663364D01*
X132876079Y-81663371D01*
X132712219Y-81772859D01*
X132674970Y-81810109D01*
X132572861Y-81912218D01*
X132572858Y-81912221D01*
X131442221Y-83042858D01*
X131442218Y-83042861D01*
X131372538Y-83112540D01*
X131302859Y-83182219D01*
X131193371Y-83346079D01*
X131193366Y-83346089D01*
X131140038Y-83474834D01*
X131124625Y-83512050D01*
X131124624Y-83512052D01*
X131117948Y-83528167D01*
X131117947Y-83528171D01*
X131079500Y-83721454D01*
X131079500Y-86458544D01*
X131117947Y-86651828D01*
X131117950Y-86651840D01*
X131139556Y-86704000D01*
X131193366Y-86833911D01*
X131193371Y-86833920D01*
X131302860Y-86997781D01*
X131302863Y-86997785D01*
X131446537Y-87141459D01*
X131446559Y-87141479D01*
X132569735Y-88264655D01*
X132569764Y-88264686D01*
X132712214Y-88407136D01*
X132712218Y-88407139D01*
X132876079Y-88516628D01*
X132876092Y-88516635D01*
X133004833Y-88569961D01*
X133047744Y-88587735D01*
X133058164Y-88592051D01*
X133154812Y-88611275D01*
X133203135Y-88620887D01*
X133251458Y-88630500D01*
X133251459Y-88630500D01*
X133251460Y-88630500D01*
X133448540Y-88630500D01*
X135012412Y-88630500D01*
X135079451Y-88650185D01*
X135083523Y-88652917D01*
X135237266Y-88760568D01*
X135443504Y-88856739D01*
X135663308Y-88915635D01*
X135825230Y-88929801D01*
X135889998Y-88935468D01*
X135890000Y-88935468D01*
X135890002Y-88935468D01*
X135946673Y-88930509D01*
X136116692Y-88915635D01*
X136336496Y-88856739D01*
X136542734Y-88760568D01*
X136729139Y-88630047D01*
X136890047Y-88469139D01*
X137020568Y-88282734D01*
X137116739Y-88076496D01*
X137134024Y-88011988D01*
X137170389Y-87952327D01*
X137233236Y-87921798D01*
X137302611Y-87930093D01*
X137341480Y-87956400D01*
X138663181Y-89278101D01*
X138696666Y-89339424D01*
X138699500Y-89365782D01*
X138699500Y-98035249D01*
X138679815Y-98102288D01*
X138649812Y-98134515D01*
X138592457Y-98177451D01*
X138592451Y-98177457D01*
X138506206Y-98292664D01*
X138506202Y-98292671D01*
X138455908Y-98427517D01*
X138449501Y-98487116D01*
X138449500Y-98487127D01*
X138449500Y-98908088D01*
X138449501Y-99205500D01*
X138429817Y-99272539D01*
X138377013Y-99318294D01*
X138325501Y-99329500D01*
X135994500Y-99329500D01*
X135927461Y-99309815D01*
X135881706Y-99257011D01*
X135870500Y-99205500D01*
X135870499Y-98487129D01*
X135870498Y-98487123D01*
X135870497Y-98487116D01*
X135864120Y-98427785D01*
X135864091Y-98427516D01*
X135813797Y-98292671D01*
X135813793Y-98292664D01*
X135727547Y-98177455D01*
X135727544Y-98177452D01*
X135612335Y-98091206D01*
X135612328Y-98091202D01*
X135477482Y-98040908D01*
X135477483Y-98040908D01*
X135417883Y-98034501D01*
X135417881Y-98034500D01*
X135417873Y-98034500D01*
X135417865Y-98034500D01*
X135060782Y-98034500D01*
X134993743Y-98014815D01*
X134973101Y-97998181D01*
X134386819Y-97411899D01*
X134353334Y-97350576D01*
X134350500Y-97324218D01*
X134350500Y-96421456D01*
X134350499Y-96421454D01*
X134323718Y-96286819D01*
X134312051Y-96228165D01*
X134305376Y-96212051D01*
X134258607Y-96099139D01*
X134236632Y-96046086D01*
X134183526Y-95966607D01*
X134127139Y-95882217D01*
X133984686Y-95739764D01*
X133984655Y-95739735D01*
X133116819Y-94871899D01*
X133083334Y-94810576D01*
X133080500Y-94784218D01*
X133080500Y-92709998D01*
X134584532Y-92709998D01*
X134584532Y-92710001D01*
X134604364Y-92936686D01*
X134604366Y-92936697D01*
X134663258Y-93156488D01*
X134663261Y-93156497D01*
X134759431Y-93362732D01*
X134759432Y-93362734D01*
X134889954Y-93549141D01*
X135050858Y-93710045D01*
X135050861Y-93710047D01*
X135237266Y-93840568D01*
X135443504Y-93936739D01*
X135663308Y-93995635D01*
X135825230Y-94009801D01*
X135889998Y-94015468D01*
X135890000Y-94015468D01*
X135890002Y-94015468D01*
X135953551Y-94009908D01*
X136116692Y-93995635D01*
X136336496Y-93936739D01*
X136542734Y-93840568D01*
X136729139Y-93710047D01*
X136890047Y-93549139D01*
X137020568Y-93362734D01*
X137116739Y-93156496D01*
X137175635Y-92936692D01*
X137195468Y-92710000D01*
X137193644Y-92689156D01*
X137176734Y-92495870D01*
X137175635Y-92483308D01*
X137116739Y-92263504D01*
X137020568Y-92057266D01*
X136890047Y-91870861D01*
X136890045Y-91870858D01*
X136729141Y-91709954D01*
X136542734Y-91579432D01*
X136542732Y-91579431D01*
X136336497Y-91483261D01*
X136336488Y-91483258D01*
X136116697Y-91424366D01*
X136116693Y-91424365D01*
X136116692Y-91424365D01*
X136116691Y-91424364D01*
X136116686Y-91424364D01*
X135890002Y-91404532D01*
X135889998Y-91404532D01*
X135663313Y-91424364D01*
X135663302Y-91424366D01*
X135443511Y-91483258D01*
X135443502Y-91483261D01*
X135237267Y-91579431D01*
X135237265Y-91579432D01*
X135050858Y-91709954D01*
X134889954Y-91870858D01*
X134759432Y-92057265D01*
X134759431Y-92057267D01*
X134663261Y-92263502D01*
X134663258Y-92263511D01*
X134604366Y-92483302D01*
X134604364Y-92483313D01*
X134584532Y-92709998D01*
X133080500Y-92709998D01*
X133080500Y-91341456D01*
X133061068Y-91243769D01*
X133061068Y-91243768D01*
X133042052Y-91148171D01*
X133042051Y-91148164D01*
X133042049Y-91148159D01*
X133002292Y-91052176D01*
X132966635Y-90966092D01*
X132966628Y-90966079D01*
X132857140Y-90802219D01*
X132857139Y-90802218D01*
X132717782Y-90662861D01*
X132717781Y-90662860D01*
X130576819Y-88521898D01*
X130543334Y-88460575D01*
X130540500Y-88434217D01*
X130540500Y-81745782D01*
X130560185Y-81678743D01*
X130576819Y-81658101D01*
X132857136Y-79377785D01*
X132857139Y-79377782D01*
X132917020Y-79288164D01*
X132947417Y-79242671D01*
X132966632Y-79213914D01*
X133011295Y-79106086D01*
X133042051Y-79031836D01*
X133080500Y-78838541D01*
X133080500Y-78641460D01*
X133080500Y-78641459D01*
X133080500Y-70874749D01*
X133100185Y-70807710D01*
X133130190Y-70775482D01*
X133187546Y-70732546D01*
X133273796Y-70617331D01*
X133324091Y-70482483D01*
X133330500Y-70422873D01*
X133330499Y-69704499D01*
X133350183Y-69637461D01*
X133402987Y-69591706D01*
X133454499Y-69580500D01*
X135785500Y-69580500D01*
X135852539Y-69600185D01*
G37*
%TD.AperFunction*%
%TA.AperFunction,NonConductor*%
G36*
X168792256Y-98820185D02*
G01*
X168838011Y-98872989D01*
X168847955Y-98942147D01*
X168818930Y-99005703D01*
X168812898Y-99012181D01*
X168531899Y-99293181D01*
X168470576Y-99326666D01*
X168444218Y-99329500D01*
X167541458Y-99329500D01*
X167521761Y-99333418D01*
X167503165Y-99337117D01*
X167478974Y-99339500D01*
X167257588Y-99339500D01*
X167190549Y-99319815D01*
X167186465Y-99317075D01*
X167158894Y-99297770D01*
X167032734Y-99209432D01*
X166974724Y-99182381D01*
X166922285Y-99136210D01*
X166903133Y-99069017D01*
X166923348Y-99002135D01*
X166974725Y-98957618D01*
X167032734Y-98930568D01*
X167186465Y-98822924D01*
X167252671Y-98800598D01*
X167257588Y-98800500D01*
X168725217Y-98800500D01*
X168792256Y-98820185D01*
G37*
%TD.AperFunction*%
%TA.AperFunction,NonConductor*%
G36*
X118844761Y-96269073D02*
G01*
X118856738Y-96276488D01*
X118866011Y-96282230D01*
X119064434Y-96359099D01*
X119273129Y-96398111D01*
X119335410Y-96429779D01*
X119370683Y-96490092D01*
X119367749Y-96559900D01*
X119327540Y-96617040D01*
X119273129Y-96641888D01*
X119064434Y-96680901D01*
X119064431Y-96680901D01*
X119064431Y-96680902D01*
X118866013Y-96757768D01*
X118866007Y-96757771D01*
X118685092Y-96869789D01*
X118685090Y-96869791D01*
X118527836Y-97013147D01*
X118399596Y-97182962D01*
X118304750Y-97373439D01*
X118304750Y-97373440D01*
X118246514Y-97578115D01*
X118226881Y-97789999D01*
X118226881Y-97790000D01*
X118246514Y-98001884D01*
X118304750Y-98206559D01*
X118304750Y-98206560D01*
X118399596Y-98397037D01*
X118467631Y-98487129D01*
X118527835Y-98566851D01*
X118654036Y-98681899D01*
X118685090Y-98710208D01*
X118685092Y-98710210D01*
X118866007Y-98822228D01*
X118866013Y-98822231D01*
X118908048Y-98838515D01*
X119064434Y-98899099D01*
X119273129Y-98938111D01*
X119335410Y-98969779D01*
X119370683Y-99030092D01*
X119367749Y-99099900D01*
X119327540Y-99157040D01*
X119273129Y-99181888D01*
X119064434Y-99220901D01*
X119064431Y-99220901D01*
X119064431Y-99220902D01*
X118866013Y-99297768D01*
X118866012Y-99297769D01*
X118787774Y-99346211D01*
X118718955Y-99388823D01*
X118651595Y-99407379D01*
X118584896Y-99386570D01*
X118565997Y-99371077D01*
X117876819Y-98681899D01*
X117843334Y-98620576D01*
X117840500Y-98594218D01*
X117840500Y-96374500D01*
X117860185Y-96307461D01*
X117912989Y-96261706D01*
X117964500Y-96250500D01*
X118779484Y-96250500D01*
X118844761Y-96269073D01*
G37*
%TD.AperFunction*%
%TA.AperFunction,NonConductor*%
G36*
X115782539Y-96270185D02*
G01*
X115828294Y-96322989D01*
X115839500Y-96374500D01*
X115839500Y-99158544D01*
X115877947Y-99351833D01*
X115877949Y-99351836D01*
X115900038Y-99405165D01*
X115917832Y-99448122D01*
X115953366Y-99533911D01*
X115953371Y-99533920D01*
X116062860Y-99697781D01*
X116062863Y-99697785D01*
X116206537Y-99841459D01*
X116206559Y-99841479D01*
X117242399Y-100877319D01*
X117275884Y-100938642D01*
X117270900Y-101008334D01*
X117242399Y-101052681D01*
X116461899Y-101833181D01*
X116400576Y-101866666D01*
X116374218Y-101869500D01*
X114900516Y-101869500D01*
X114835239Y-101850927D01*
X114813994Y-101837773D01*
X114813991Y-101837771D01*
X114813989Y-101837770D01*
X114813988Y-101837769D01*
X114813987Y-101837769D01*
X114615564Y-101760900D01*
X114567472Y-101751910D01*
X114505191Y-101720242D01*
X114469919Y-101659929D01*
X114472853Y-101590121D01*
X114502573Y-101542346D01*
X114581163Y-101463755D01*
X114624048Y-101435813D01*
X114794590Y-101369745D01*
X114813989Y-101362230D01*
X114994909Y-101250209D01*
X114994909Y-101250208D01*
X114994912Y-101250207D01*
X115130547Y-101126558D01*
X115152165Y-101106851D01*
X115280402Y-100937039D01*
X115310139Y-100877319D01*
X115375249Y-100746560D01*
X115375249Y-100746559D01*
X115375248Y-100746559D01*
X115375251Y-100746555D01*
X115433485Y-100541885D01*
X115453119Y-100330000D01*
X115433485Y-100118115D01*
X115375251Y-99913445D01*
X115375249Y-99913440D01*
X115375249Y-99913439D01*
X115280403Y-99722962D01*
X115152163Y-99553147D01*
X114994909Y-99409791D01*
X114994907Y-99409789D01*
X114813992Y-99297771D01*
X114813986Y-99297769D01*
X114813983Y-99297768D01*
X114624047Y-99224186D01*
X114581161Y-99196241D01*
X114502578Y-99117658D01*
X114469093Y-99056335D01*
X114474077Y-98986643D01*
X114515949Y-98930710D01*
X114567471Y-98908089D01*
X114615566Y-98899099D01*
X114813989Y-98822230D01*
X114994909Y-98710209D01*
X115152165Y-98566851D01*
X115280402Y-98397039D01*
X115346690Y-98263914D01*
X115375249Y-98206560D01*
X115375249Y-98206559D01*
X115375248Y-98206559D01*
X115375251Y-98206555D01*
X115433485Y-98001885D01*
X115453119Y-97790000D01*
X115433485Y-97578115D01*
X115375251Y-97373445D01*
X115375249Y-97373440D01*
X115375249Y-97373439D01*
X115280403Y-97182962D01*
X115152163Y-97013147D01*
X114994909Y-96869791D01*
X114994907Y-96869789D01*
X114813992Y-96757771D01*
X114813986Y-96757768D01*
X114625238Y-96684648D01*
X114615566Y-96680901D01*
X114406868Y-96641888D01*
X114344589Y-96610221D01*
X114309316Y-96549908D01*
X114312250Y-96480100D01*
X114352459Y-96422960D01*
X114406868Y-96398111D01*
X114615566Y-96359099D01*
X114813989Y-96282230D01*
X114829088Y-96272880D01*
X114835239Y-96269073D01*
X114900516Y-96250500D01*
X115715500Y-96250500D01*
X115782539Y-96270185D01*
G37*
%TD.AperFunction*%
%TA.AperFunction,NonConductor*%
G36*
X108821257Y-96270185D02*
G01*
X108841899Y-96286819D01*
X112797399Y-100242319D01*
X112830884Y-100303642D01*
X112825900Y-100373334D01*
X112797399Y-100417681D01*
X108841899Y-104373181D01*
X108780576Y-104406666D01*
X108754218Y-104409500D01*
X107280516Y-104409500D01*
X107215239Y-104390927D01*
X107193994Y-104377773D01*
X107193991Y-104377771D01*
X107193989Y-104377770D01*
X107193988Y-104377769D01*
X107193987Y-104377769D01*
X107094777Y-104339335D01*
X106995566Y-104300901D01*
X106786868Y-104261888D01*
X106724589Y-104230221D01*
X106689316Y-104169908D01*
X106692250Y-104100100D01*
X106732459Y-104042960D01*
X106786868Y-104018111D01*
X106995566Y-103979099D01*
X107193989Y-103902230D01*
X107374909Y-103790209D01*
X107532165Y-103646851D01*
X107660402Y-103477039D01*
X107660403Y-103477037D01*
X107755249Y-103286560D01*
X107755249Y-103286559D01*
X107755248Y-103286559D01*
X107755251Y-103286555D01*
X107813485Y-103081885D01*
X107833119Y-102870000D01*
X107813485Y-102658115D01*
X107755251Y-102453445D01*
X107755249Y-102453440D01*
X107755249Y-102453439D01*
X107660403Y-102262962D01*
X107532163Y-102093147D01*
X107374909Y-101949791D01*
X107374907Y-101949789D01*
X107193992Y-101837771D01*
X107193986Y-101837768D01*
X107037603Y-101777186D01*
X106995566Y-101760901D01*
X106786868Y-101721888D01*
X106724589Y-101690221D01*
X106689316Y-101629908D01*
X106692250Y-101560100D01*
X106732459Y-101502960D01*
X106786868Y-101478111D01*
X106995566Y-101439099D01*
X107193989Y-101362230D01*
X107374909Y-101250209D01*
X107374909Y-101250208D01*
X107374912Y-101250207D01*
X107510547Y-101126558D01*
X107532165Y-101106851D01*
X107660402Y-100937039D01*
X107690139Y-100877319D01*
X107755249Y-100746560D01*
X107755249Y-100746559D01*
X107755248Y-100746559D01*
X107755251Y-100746555D01*
X107813485Y-100541885D01*
X107833119Y-100330000D01*
X107813485Y-100118115D01*
X107755251Y-99913445D01*
X107755249Y-99913440D01*
X107755249Y-99913439D01*
X107660403Y-99722962D01*
X107532163Y-99553147D01*
X107374909Y-99409791D01*
X107374907Y-99409789D01*
X107193992Y-99297771D01*
X107193986Y-99297768D01*
X107027200Y-99233156D01*
X106995566Y-99220901D01*
X106786868Y-99181888D01*
X106724589Y-99150221D01*
X106689316Y-99089908D01*
X106692250Y-99020100D01*
X106732459Y-98962960D01*
X106786868Y-98938111D01*
X106995566Y-98899099D01*
X107193989Y-98822230D01*
X107374909Y-98710209D01*
X107532165Y-98566851D01*
X107660402Y-98397039D01*
X107726690Y-98263914D01*
X107755249Y-98206560D01*
X107755249Y-98206559D01*
X107755248Y-98206559D01*
X107755251Y-98206555D01*
X107813485Y-98001885D01*
X107833119Y-97790000D01*
X107813485Y-97578115D01*
X107755251Y-97373445D01*
X107755249Y-97373440D01*
X107755249Y-97373439D01*
X107660403Y-97182962D01*
X107532163Y-97013147D01*
X107374909Y-96869791D01*
X107374907Y-96869789D01*
X107193992Y-96757771D01*
X107193986Y-96757768D01*
X107005238Y-96684648D01*
X106995566Y-96680901D01*
X106786868Y-96641888D01*
X106724589Y-96610221D01*
X106689316Y-96549908D01*
X106692250Y-96480100D01*
X106732459Y-96422960D01*
X106786868Y-96398111D01*
X106995566Y-96359099D01*
X107193989Y-96282230D01*
X107209088Y-96272880D01*
X107215239Y-96269073D01*
X107280516Y-96250500D01*
X108754218Y-96250500D01*
X108821257Y-96270185D01*
G37*
%TD.AperFunction*%
M02*
