%TF.GenerationSoftware,KiCad,Pcbnew,8.0.6*%
%TF.CreationDate,2024-12-10T23:45:21+05:30*%
%TF.ProjectId,PLL_type_2,504c4c5f-7479-4706-955f-322e6b696361,rev?*%
%TF.SameCoordinates,Original*%
%TF.FileFunction,Drillmap*%
%TF.FilePolarity,Positive*%
%FSLAX45Y45*%
G04 Gerber Fmt 4.5, Leading zero omitted, Abs format (unit mm)*
G04 Created by KiCad (PCBNEW 8.0.6) date 2024-12-10 23:45:21*
%MOMM*%
%LPD*%
G01*
G04 APERTURE LIST*
%ADD10C,0.050000*%
%ADD11C,0.200000*%
G04 APERTURE END LIST*
D10*
X17272000Y-11430000D02*
G75*
G02*
X16764000Y-11430000I-254000J0D01*
G01*
X16764000Y-11430000D02*
G75*
G02*
X17272000Y-11430000I254000J0D01*
G01*
X10922000Y-6858000D02*
G75*
G02*
X10414000Y-6858000I-254000J0D01*
G01*
X10414000Y-6858000D02*
G75*
G02*
X10922000Y-6858000I254000J0D01*
G01*
X17780000Y-6350000D02*
X17780000Y-11938000D01*
X17780000Y-11938000D02*
X10160000Y-11938000D01*
X10160000Y-6350000D02*
X10414000Y-6350000D01*
X10160000Y-11938000D02*
X10160000Y-6350000D01*
X10414000Y-6350000D02*
X17780000Y-6350000D01*
D11*
X10418277Y-12251984D02*
X10418277Y-12051984D01*
X10418277Y-12051984D02*
X10465896Y-12051984D01*
X10465896Y-12051984D02*
X10494467Y-12061508D01*
X10494467Y-12061508D02*
X10513515Y-12080555D01*
X10513515Y-12080555D02*
X10523039Y-12099603D01*
X10523039Y-12099603D02*
X10532563Y-12137698D01*
X10532563Y-12137698D02*
X10532563Y-12166269D01*
X10532563Y-12166269D02*
X10523039Y-12204365D01*
X10523039Y-12204365D02*
X10513515Y-12223412D01*
X10513515Y-12223412D02*
X10494467Y-12242460D01*
X10494467Y-12242460D02*
X10465896Y-12251984D01*
X10465896Y-12251984D02*
X10418277Y-12251984D01*
X10618277Y-12251984D02*
X10618277Y-12118650D01*
X10618277Y-12156746D02*
X10627801Y-12137698D01*
X10627801Y-12137698D02*
X10637324Y-12128174D01*
X10637324Y-12128174D02*
X10656372Y-12118650D01*
X10656372Y-12118650D02*
X10675420Y-12118650D01*
X10742086Y-12251984D02*
X10742086Y-12118650D01*
X10742086Y-12051984D02*
X10732563Y-12061508D01*
X10732563Y-12061508D02*
X10742086Y-12071031D01*
X10742086Y-12071031D02*
X10751610Y-12061508D01*
X10751610Y-12061508D02*
X10742086Y-12051984D01*
X10742086Y-12051984D02*
X10742086Y-12071031D01*
X10865896Y-12251984D02*
X10846848Y-12242460D01*
X10846848Y-12242460D02*
X10837324Y-12223412D01*
X10837324Y-12223412D02*
X10837324Y-12051984D01*
X10970658Y-12251984D02*
X10951610Y-12242460D01*
X10951610Y-12242460D02*
X10942086Y-12223412D01*
X10942086Y-12223412D02*
X10942086Y-12051984D01*
X11199229Y-12251984D02*
X11199229Y-12051984D01*
X11199229Y-12051984D02*
X11265896Y-12194841D01*
X11265896Y-12194841D02*
X11332562Y-12051984D01*
X11332562Y-12051984D02*
X11332562Y-12251984D01*
X11513515Y-12251984D02*
X11513515Y-12147222D01*
X11513515Y-12147222D02*
X11503991Y-12128174D01*
X11503991Y-12128174D02*
X11484943Y-12118650D01*
X11484943Y-12118650D02*
X11446848Y-12118650D01*
X11446848Y-12118650D02*
X11427801Y-12128174D01*
X11513515Y-12242460D02*
X11494467Y-12251984D01*
X11494467Y-12251984D02*
X11446848Y-12251984D01*
X11446848Y-12251984D02*
X11427801Y-12242460D01*
X11427801Y-12242460D02*
X11418277Y-12223412D01*
X11418277Y-12223412D02*
X11418277Y-12204365D01*
X11418277Y-12204365D02*
X11427801Y-12185317D01*
X11427801Y-12185317D02*
X11446848Y-12175793D01*
X11446848Y-12175793D02*
X11494467Y-12175793D01*
X11494467Y-12175793D02*
X11513515Y-12166269D01*
X11608753Y-12118650D02*
X11608753Y-12318650D01*
X11608753Y-12128174D02*
X11627801Y-12118650D01*
X11627801Y-12118650D02*
X11665896Y-12118650D01*
X11665896Y-12118650D02*
X11684943Y-12128174D01*
X11684943Y-12128174D02*
X11694467Y-12137698D01*
X11694467Y-12137698D02*
X11703991Y-12156746D01*
X11703991Y-12156746D02*
X11703991Y-12213888D01*
X11703991Y-12213888D02*
X11694467Y-12232936D01*
X11694467Y-12232936D02*
X11684943Y-12242460D01*
X11684943Y-12242460D02*
X11665896Y-12251984D01*
X11665896Y-12251984D02*
X11627801Y-12251984D01*
X11627801Y-12251984D02*
X11608753Y-12242460D01*
X11789705Y-12232936D02*
X11799229Y-12242460D01*
X11799229Y-12242460D02*
X11789705Y-12251984D01*
X11789705Y-12251984D02*
X11780182Y-12242460D01*
X11780182Y-12242460D02*
X11789705Y-12232936D01*
X11789705Y-12232936D02*
X11789705Y-12251984D01*
X11789705Y-12128174D02*
X11799229Y-12137698D01*
X11799229Y-12137698D02*
X11789705Y-12147222D01*
X11789705Y-12147222D02*
X11780182Y-12137698D01*
X11780182Y-12137698D02*
X11789705Y-12128174D01*
X11789705Y-12128174D02*
X11789705Y-12147222D01*
M02*
