M48
; DRILL file {KiCad 8.0.6} date 2024-12-10T23:45:23+0530
; FORMAT={-:-/ absolute / metric / decimal}
; #@! TF.CreationDate,2024-12-10T23:45:23+05:30
; #@! TF.GenerationSoftware,Kicad,Pcbnew,8.0.6
; #@! TF.FileFunction,Plated,1,2,PTH
FMAT,2
METRIC
; #@! TA.AperFunction,Plated,PTH,ComponentDrill
T1C0.750
; #@! TA.AperFunction,Plated,PTH,ComponentDrill
T2C0.787
; #@! TA.AperFunction,Plated,PTH,ComponentDrill
T3C0.800
; #@! TA.AperFunction,Plated,PTH,ComponentDrill
T4C1.000
; #@! TA.AperFunction,Plated,PTH,ComponentDrill
T5C1.200
%
G90
G05
T1
X127.0Y-67.31
X127.0Y-68.58
X127.0Y-69.85
X132.08Y-67.31
X132.08Y-68.58
X132.08Y-69.85
X134.62Y-81.28
X134.62Y-82.55
X134.62Y-83.82
X134.62Y-99.06
X134.62Y-100.33
X134.62Y-101.6
X135.89Y-73.66
X135.89Y-74.93
X135.89Y-76.2
X137.16Y-67.31
X137.16Y-68.58
X137.16Y-69.85
X139.7Y-99.06
X139.7Y-100.33
X139.7Y-101.6
X161.29Y-80.01
X161.29Y-81.28
X161.29Y-82.55
X166.37Y-68.58
X166.37Y-69.85
X166.37Y-71.12
X171.45Y-68.58
X171.45Y-69.85
X171.45Y-71.12
T2
X106.68Y-92.71
X106.68Y-95.25
X106.68Y-97.79
X106.68Y-100.33
X106.68Y-102.87
X106.68Y-105.41
X106.68Y-107.95
X110.49Y-78.74
X110.49Y-86.36
X113.03Y-78.74
X113.03Y-86.36
X114.3Y-92.71
X114.3Y-95.25
X114.3Y-97.79
X114.3Y-100.33
X114.3Y-102.87
X114.3Y-105.41
X114.3Y-107.95
X115.57Y-78.74
X115.57Y-86.36
X118.11Y-78.74
X118.11Y-86.36
X119.38Y-92.71
X119.38Y-95.25
X119.38Y-97.79
X119.38Y-100.33
X119.38Y-102.87
X119.38Y-105.41
X119.38Y-107.95
X120.65Y-78.74
X120.65Y-86.36
X123.19Y-78.74
X123.19Y-86.36
X125.73Y-78.74
X125.73Y-86.36
X127.0Y-92.71
X127.0Y-95.25
X127.0Y-97.79
X127.0Y-100.33
X127.0Y-102.87
X127.0Y-105.41
X127.0Y-107.95
X144.78Y-67.31
X144.78Y-74.93
X147.32Y-67.31
X147.32Y-74.93
X149.86Y-67.31
X149.86Y-74.93
X152.4Y-67.31
X152.4Y-74.93
X154.94Y-67.31
X154.94Y-74.93
X157.48Y-67.31
X157.48Y-74.93
X160.02Y-67.31
X160.02Y-74.93
T3
X116.84Y-73.66
X121.92Y-73.66
X124.685Y-76.2
X129.765Y-76.2
X135.89Y-87.63
X135.89Y-92.71
X137.16Y-106.68
X137.16Y-110.18
X143.51Y-88.9
X146.01Y-88.9
X149.86Y-80.01
X149.86Y-85.09
X158.76Y-95.26
X158.76Y-97.8
X158.76Y-100.34
X158.76Y-102.88
X166.38Y-95.26
X166.38Y-97.8
X166.38Y-100.34
X166.38Y-102.88
T4
X140.97Y-81.28
X144.78Y-106.68
X145.97Y-81.28
X147.32Y-106.68
X148.63Y-95.25
X149.86Y-106.68
X152.4Y-106.68
X153.63Y-95.25
X154.94Y-106.68
X171.45Y-101.6
X171.45Y-106.6
T5
X158.675Y-89.892
X163.755Y-89.892
X171.45Y-77.47
X171.45Y-82.55
X171.45Y-87.105
X171.45Y-92.185
M30
